<?xml version="1.0" encoding="UTF-8"?>
<!DOCTYPE svg PUBLIC "-//W3C//DTD SVG 1.1//EN" "http://www.w3.org/Graphics/SVG/1.1/DTD/svg11.dtd">
<!-- Creator: CorelDRAW 2018 (64-Bit) -->
<svg xmlns="http://www.w3.org/2000/svg" xml:space="preserve" width="67.7334mm" height="67.7334mm" version="1.1" style="shape-rendering:geometricPrecision; text-rendering:geometricPrecision; image-rendering:optimizeQuality; fill-rule:evenodd; clip-rule:evenodd"
viewBox="0 0 6719 6719"
 xmlns:xlink="http://www.w3.org/1999/xlink">
 <defs>
  <style type="text/css">
   <![CDATA[
    .fil0 {fill:#330000}
    .fil1 {fill:#FF9A00}
   ]]>
  </style>
 </defs>
 <g id="Слой_x0020_1">
  <metadata id="CorelCorpID_0Corel-Layer"/>
  <path class="fil0" d="M1574.76 0l3569.47 0c869.57,0 1574.76,705.2 1574.76,1574.76l0 3569.47c0,869.56 -705.2,1574.75 -1574.76,1574.75l-3569.47 0.01c-869.56,-0.01 -1574.75,-705.21 -1574.75,-1574.77l-0.01 -3569.46c0.01,-869.57 705.21,-1574.76 1574.77,-1574.76z"/>
  <path class="fil1" d="M3247.52 4207.41l-1041.44 0 -212.77 657.9c-5.59,25.2 -27.99,41.99 -53.19,39.19l-526.31 0c-30.8,0 -39.2,-16.79 -30.8,-50.39l901.46 -2595.2c8.4,-27.99 16.8,-58.79 27.99,-92.38 11.2,-58.79 16.8,-120.39 16.8,-181.98 -2.8,-14 8.39,-27.99 22.4,-30.79l725.09 0c22.39,0 33.59,8.4 36.4,22.4l1021.84 2883.55c8.4,30.8 0,44.8 -27.99,44.8l-585.11 0c-19.6,2.8 -39.19,-11.2 -44.8,-30.8l-229.56 -666.29zm-879.06 -568.31l711.09 0c-16.79,-58.79 -39.19,-128.78 -64.39,-201.57 -25.2,-75.59 -50.39,-156.77 -75.59,-240.76 -27.99,-86.79 -53.19,-170.78 -81.19,-257.56 -27.99,-86.79 -53.19,-167.98 -75.59,-249.16 -22.39,-78.39 -41.99,-151.18 -61.58,-218.36l-5.6 0c-25.2,120.38 -55.99,240.76 -95.18,361.14 -42,134.38 -83.99,274.36 -128.79,414.34 -39.19,142.78 -81.18,274.36 -123.17,391.94l0 0zm2390.82 -1195.41c-92.38,2.8 -181.97,-33.6 -249.15,-97.99 -64.39,-69.99 -97.99,-162.38 -95.19,-257.57 -2.8,-95.18 33.6,-184.77 100.78,-249.15 67.19,-64.39 156.77,-97.99 249.16,-97.99 109.18,0 193.17,33.6 254.76,97.99 61.59,67.19 95.18,156.77 92.38,249.15 2.8,95.19 -30.79,187.57 -97.99,257.57 -64.39,67.19 -159.57,103.58 -254.76,97.99zm-313.54 2430.02l0 -2155.67c0,-27.99 11.2,-39.19 36.4,-39.19l554.31 0c25.2,0 36.4,14 36.4,39.19l0 2155.67c0,30.8 -11.2,44.8 -36.4,44.8l-548.71 0c-27.99,0 -41.99,-16.79 -41.99,-44.8z"/>
 </g>
</svg>
