<?xml version="1.0" encoding="UTF-8"?>
<!DOCTYPE svg PUBLIC "-//W3C//DTD SVG 1.1//EN" "http://www.w3.org/Graphics/SVG/1.1/DTD/svg11.dtd">
<!-- Creator: CorelDRAW 2018 (64-Bit) -->
<svg xmlns="http://www.w3.org/2000/svg" xml:space="preserve" width="67.7334mm" height="67.7334mm" version="1.1" style="shape-rendering:geometricPrecision; text-rendering:geometricPrecision; image-rendering:optimizeQuality; fill-rule:evenodd; clip-rule:evenodd"
viewBox="0 0 2025.3 2025.3"
 xmlns:xlink="http://www.w3.org/1999/xlink">
 <defs>
  <style type="text/css">
   <![CDATA[
    .fil0 {fill:#FEFEFE}
    .fil3 {fill:url(#id0)}
    .fil1 {fill:url(#id1)}
    .fil2 {fill:url(#id2)}
   ]]>
  </style>
  <linearGradient id="id0" gradientUnits="userSpaceOnUse" x1="382.77" y1="1438.75" x2="1438.75" y2="1179.38">
   <stop offset="0" style="stop-opacity:1; stop-color:#4ADE80"/>
   <stop offset="0.278431" style="stop-opacity:1; stop-color:#4ADE80"/>
   <stop offset="0.490196" style="stop-opacity:1; stop-color:#22C55E"/>
   <stop offset="0.678431" style="stop-opacity:1; stop-color:#22C55E"/>
   <stop offset="1" style="stop-opacity:1; stop-color:#16A34A"/>
  </linearGradient>
  <linearGradient id="id1" gradientUnits="userSpaceOnUse" x1="920.03" y1="512.45" x2="1642.54" y2="1698.11">
   <stop offset="0" style="stop-opacity:1; stop-color:#16A34A"/>
   <stop offset="0.219608" style="stop-opacity:1; stop-color:#22C55E"/>
   <stop offset="0.529412" style="stop-opacity:1; stop-color:#22C55E"/>
   <stop offset="0.8" style="stop-opacity:1; stop-color:#4ADE80"/>
   <stop offset="1" style="stop-opacity:1; stop-color:#4ADE80"/>
  </linearGradient>
  <linearGradient id="id2" gradientUnits="userSpaceOnUse" x1="827.39" y1="327.2" x2="1123.81" y2="1494.32">
   <stop offset="0" style="stop-opacity:1; stop-color:#4ADE80"/>
   <stop offset="0.490196" style="stop-opacity:1; stop-color:#4ADE80"/>
   <stop offset="0.831373" style="stop-opacity:1; stop-color:#86EFAC"/>
   <stop offset="1" style="stop-opacity:1; stop-color:#86EFAC"/>
  </linearGradient>
 </defs>
 <g id="Слой_x0020_1">
  <metadata id="CorelCorpID_0Corel-Layer"/>
  <path class="fil0" d="M474.68 0l1075.94 0c262.11,0 474.68,212.57 474.68,474.68l0 1075.94c0,262.11 -212.57,474.68 -474.68,474.68l-1075.94 0c-262.11,-0 -474.68,-212.57 -474.68,-474.68l-0 -1075.94c0,-262.11 212.57,-474.68 474.68,-474.68z"/>
  <g id="_2381297824160">
   <path class="fil1" d="M1716.64 1012.65l0 529.43c0,96.32 -78.08,174.56 -174.56,174.56 -70.24,0 -128.8,-49.76 -142.4,-115.84 -1.92,-9.6 -3.04,-19.52 -3.04,-29.6l0 -558.55c0,-22.24 -1.92,-44.16 -5.6,-65.6 -13.28,-77.6 -50.08,-149.12 -106.88,-205.91 -72.48,-72.48 -168.96,-112.48 -271.51,-112.48 -102.56,0 -199.04,40 -271.52,112.48 -56.8,56.8 -93.6,128.32 -106.88,205.91 25.76,-214.88 177.11,-391.03 378.39,-453.43 50.88,-15.68 104.8,-24.16 160.8,-24.16 298.88,0 541.43,241.44 543.19,539.99l0 1.6 0 1.6z"/>
   <path class="fil2" d="M1716.64 1009.45c-1.76,-298.56 -244.31,-539.99 -543.19,-539.99 -56,0 -109.92,8.48 -160.8,24.16 -201.28,62.4 -352.63,238.56 -378.39,453.43 -3.68,21.44 -5.6,43.36 -5.6,65.6 0,22.25 1.92,44.16 5.6,65.6 13.28,77.59 50.08,149.12 106.88,205.91 72.48,72.48 168.96,112.48 271.52,112.48 102.56,0 199.04,-40 271.51,-112.48 56.8,-56.8 93.6,-128.32 106.88,-205.91 -25.76,214.87 -177.11,391.03 -378.39,453.43 -50.88,15.68 -104.8,24.16 -160.8,24.16 -300,0 -543.19,-243.19 -543.19,-543.19 0,-95.04 18.72,-187.2 55.36,-274.08 35.52,-83.84 86.24,-159.2 150.72,-223.68 64.64,-64.64 139.84,-115.36 223.68,-150.72 87.04,-36.8 179.19,-55.52 274.23,-55.52 95.04,0 187.2,18.72 274.08,55.36 83.83,35.52 159.2,86.23 223.68,150.72 64.64,64.64 115.36,139.84 150.72,223.68 36.48,86.07 55.04,177.11 55.52,271.04l0.01 0z"/>
   <path class="fil3" d="M1399.68 1600.8c-35.52,23.52 -73.28,43.68 -112.96,60.48 -86.88,36.64 -179.04,55.36 -274.08,55.36 -95.04,0 -187.2,-18.72 -274.08,-55.36 -83.83,-35.52 -159.2,-86.24 -223.68,-150.72 -64.64,-64.63 -115.36,-139.84 -150.72,-223.67 -36.8,-87.04 -55.52,-179.2 -55.52,-274.23 0,300 243.2,543.19 543.19,543.19 56,0 109.92,-8.48 160.8,-24.16 201.28,-62.39 352.63,-238.56 378.39,-453.43 3.68,-21.44 5.6,-43.36 5.6,-65.6l0 558.55c0,10.08 1.12,20 3.04,29.6l0 -0.01z"/>
  </g>
 </g>
</svg>
