<?xml version="1.0" encoding="UTF-8"?>
<!DOCTYPE svg PUBLIC "-//W3C//DTD SVG 1.1//EN" "http://www.w3.org/Graphics/SVG/1.1/DTD/svg11.dtd">
<!-- Creator: CorelDRAW 2018 (64-Bit) -->
<svg xmlns="http://www.w3.org/2000/svg" xml:space="preserve" width="67.7334mm" height="67.7334mm" version="1.1" style="shape-rendering:geometricPrecision; text-rendering:geometricPrecision; image-rendering:optimizeQuality; fill-rule:evenodd; clip-rule:evenodd"
viewBox="0 0 5038.32 5038.32"
 xmlns:xlink="http://www.w3.org/1999/xlink">
 <defs>
  <style type="text/css">
   <![CDATA[
    .fil6 {fill:none}
    .fil0 {fill:#FEFEFE}
    .fil4 {fill:#3DAC47}
    .fil3 {fill:#A7D1A3}
    .fil5 {fill:#E0C305}
    .fil2 {fill:#E30613}
    .fil1 {fill:#FFDD00}
   ]]>
  </style>
   <clipPath id="id0">
    <path d="M792.35 4133.67l2732.35 0 959.3 -1614.51 -959.3 -1614.51 -2732.35 0 0 3229.02zm599.78 -2645.84l1800.58 0.26 612.64 1031.07 -612.64 1031.07 -1800.58 0 0 -2062.41z"/>
   </clipPath>
 </defs>
 <g id="Слой_x0020_1">
  <metadata id="CorelCorpID_0Corel-Layer"/>
  <path class="fil0" d="M1180.86 0l2676.61 0c652.06,0 1180.86,528.8 1180.86,1180.86l0 2676.61c0,652.05 -528.8,1180.85 -1180.86,1180.85l-2676.61 0.01c-652.05,-0.01 -1180.85,-528.81 -1180.85,-1180.86l-0.01 -2676.6c0.01,-652.06 528.81,-1180.86 1180.86,-1180.86z"/>
  <path class="fil1" d="M792.35 4133.67l2732.35 0 959.3 -1614.51 -959.3 -1614.51 -2732.35 0 0 3229.02zm599.78 -2645.84l1800.58 0.26 612.64 1031.07 -612.64 1031.07 -1800.58 0 0 -2062.41z"/>
  <g style="clip-path:url(#id0)">
   <g id="_2381441838896">
    <rect class="fil2" x="792.35" y="904.65" width="828.64" height="1033.62"/>
    <rect class="fil3" x="1620.99" y="750.03" width="1181.96" height="834.92"/>
    <polygon class="fil4" points="2825.58,3338.98 2825.58,4133.67 3524.7,4133.67 3940.67,3433.58 3155.84,2982.12 "/>
    <rect class="fil5" x="485.83" y="2413.8" width="1297.65" height="729.3"/>
    <rect class="fil5" transform="matrix(0.712665 -0.402648 0.402648 0.712665 3025.04 1811.71)" width="1692.56" height="951.24"/>
   </g>
  </g>
  <path class="fil6" d="M792.35 4133.67l2732.35 0 959.3 -1614.51 -959.3 -1614.51 -2732.35 0 0 3229.02zm599.78 -2645.84l1800.58 0.26 612.64 1031.07 -612.64 1031.07 -1800.58 0 0 -2062.41z"/>
 </g>
</svg>
