<?xml version="1.0" encoding="UTF-8"?>
<!DOCTYPE svg PUBLIC "-//W3C//DTD SVG 1.1//EN" "http://www.w3.org/Graphics/SVG/1.1/DTD/svg11.dtd">
<!-- Creator: CorelDRAW 2018 (64-Bit) -->
<svg xmlns="http://www.w3.org/2000/svg" xml:space="preserve" width="67.7334mm" height="67.7334mm" version="1.1" style="shape-rendering:geometricPrecision; text-rendering:geometricPrecision; image-rendering:optimizeQuality; fill-rule:evenodd; clip-rule:evenodd"
viewBox="0 0 2025.3 2025.3"
 xmlns:xlink="http://www.w3.org/1999/xlink">
 <defs>
  <style type="text/css">
   <![CDATA[
    .fil0 {fill:whitesmoke}
    .fil2 {fill:#3E474A}
    .fil3 {fill:#47B353}
    .fil1 {fill:#FEFEFE}
   ]]>
  </style>
 </defs>
 <g id="Слой_x0020_1">
  <metadata id="CorelCorpID_0Corel-Layer"/>
  <path class="fil0" d="M474.68 0l1075.94 0c262.11,0 474.68,212.57 474.68,474.68l0 1075.94c0,262.11 -212.57,474.68 -474.68,474.68l-1075.94 0c-262.11,-0 -474.68,-212.57 -474.68,-474.68l-0 -1075.94c0,-262.11 212.57,-474.68 474.68,-474.68z"/>
  <g id="_2381456340688">
   <path class="fil1" d="M1647.7 513.81l-532.36 -316.01c-63.54,-37.72 -141.86,-37.72 -205.4,0l-532.36 316.01c-63.52,37.72 -102.67,107.41 -102.67,182.85l0 632.02c0,75.42 39.15,145.15 102.69,182.87l532.36 315.95c31.77,18.87 67.2,28.28 102.68,28.28 35.47,0 70.91,-9.41 102.68,-28.28l532.36 -315.95c63.54,-37.72 102.71,-107.45 102.71,-182.87l0 -632.02c0,-75.44 -39.17,-145.13 -102.7,-182.85z"/>
   <path class="fil2" d="M928.57 1795.15l-532.36 -315.95c-52.07,-30.91 -84.42,-88.58 -84.42,-150.52l0 -632c0,-61.94 32.35,-119.61 84.4,-150.5l532.38 -316.01c25.52,-15.15 54.6,-23.16 84.08,-23.16 29.47,0 58.54,8.01 84.08,23.16l532.36 316.01c43.88,26.05 73.47,71.14 81.79,121.73 -17.65,-37.68 -57.48,-47.93 -103.87,-20.82l-503.64 311.08c-62.8,36.71 -109.1,77.9 -109.14,153.63l0 620.58c-0.03,45.34 18.28,74.71 46.41,83.23 -9.24,1.6 -18.56,2.72 -27.98,2.72 -29.48,0 -58.56,-8.01 -84.08,-23.16zm719.13 -1281.34l-532.36 -315.99c-31.77,-18.87 -67.24,-28.29 -102.7,-28.29 -35.46,0 -70.93,9.42 -102.7,28.29l-532.36 315.99c-63.52,37.72 -102.67,107.43 -102.67,182.87l0 632c0,75.42 39.15,145.15 102.69,182.87l532.36 315.96c31.78,18.85 67.22,28.28 102.68,28.28 35.47,0 70.91,-9.42 102.68,-28.28l532.37 -315.96c63.54,-37.72 102.7,-107.45 102.7,-182.87l0 -632c0,-75.44 -39.16,-145.15 -102.7,-182.87z"/>
   <path class="fil3" d="M1508.14 1389.77l-132.56 79.34c-3.52,2.05 -6.09,4.35 -6.12,8.58l0 34.69c0,4.24 2.85,6 6.36,3.94l134.61 -81.81c3.51,-2.05 4.05,-5.97 4.07,-10.19l0 -30.6c0,-4.22 -2.85,-5.99 -6.36,-3.94z"/>
   <path class="fil1" d="M1225.87 1097.79c4.29,-2.18 7.82,0.5 7.88,6.11l0.45 45.86c19.2,-7.64 35.88,-9.68 50.98,-6.19 3.28,0.88 4.73,5.33 3.39,10.63l-10.09 40.64c-0.78,3.07 -2.51,6.17 -4.59,8.1 -0.88,0.86 -1.77,1.53 -2.66,1.98 -1.36,0.69 -2.7,0.91 -3.98,0.65 -6.9,-1.56 -23.3,-5.14 -49.1,7.93 -27.06,13.7 -36.54,37.22 -36.35,54.67 0.23,20.84 10.92,27.16 47.83,27.79 49.19,0.82 70.44,22.31 70.96,71.85 0.51,48.65 -25.47,100.89 -65.19,132.91l0.88 45.39c0.05,5.46 -3.5,11.73 -7.79,13.9l-26.89 15.49c-4.31,2.18 -7.84,-0.5 -7.9,-5.97l-0.47 -44.65c-23.02,9.57 -46.36,11.88 -61.27,5.89 -2.81,-1.1 -4.01,-5.24 -2.9,-9.97l9.75 -41.05c0.77,-3.24 2.49,-6.47 4.81,-8.53 0.82,-0.8 1.67,-1.41 2.52,-1.84 1.54,-0.78 3.05,-0.94 4.33,-0.46 16.06,5.41 36.61,2.88 56.37,-7.12 25.1,-12.7 41.89,-38.29 41.62,-63.72 -0.24,-23.08 -12.73,-32.66 -43.11,-32.89 -38.67,0.11 -74.71,-7.51 -75.31,-64.43 -0.48,-46.86 23.88,-95.63 62.46,-126.46l-0.48 -45.82c-0.06,-5.63 3.38,-11.83 7.81,-14.05l26.03 -16.62z"/>
  </g>
 </g>
</svg>
