<?xml version="1.0" encoding="UTF-8"?>
<!DOCTYPE svg PUBLIC "-//W3C//DTD SVG 1.1//EN" "http://www.w3.org/Graphics/SVG/1.1/DTD/svg11.dtd">
<!-- Creator: CorelDRAW 2018 (64-Bit) -->
<svg xmlns="http://www.w3.org/2000/svg" xml:space="preserve" width="59.2662mm" height="67.733mm" version="1.1" style="shape-rendering:geometricPrecision; text-rendering:geometricPrecision; image-rendering:optimizeQuality; fill-rule:evenodd; clip-rule:evenodd"
viewBox="0 0 1612.76 1843.16"
 xmlns:xlink="http://www.w3.org/1999/xlink">
 <defs>
  <style type="text/css">
   <![CDATA[
    .fil1 {fill:#3E474A}
    .fil2 {fill:#47B353}
    .fil0 {fill:#FEFEFE}
   ]]>
  </style>
 </defs>
 <g id="Слой_x0020_1">
  <metadata id="CorelCorpID_0Corel-Layer"/>
  <g id="_2381476438192">
   <path class="fil0" d="M1500.51 376.33l-581.88 -345.41c-69.45,-41.23 -155.06,-41.23 -224.51,0l-581.89 345.41c-69.43,41.23 -112.23,117.4 -112.23,199.86l0 690.82c0,82.44 42.79,158.65 112.25,199.88l581.89 345.35c34.72,20.62 73.45,30.91 112.24,30.91 38.77,0 77.51,-10.28 112.23,-30.91l581.89 -345.35c69.45,-41.23 112.27,-117.44 112.27,-199.88l0 -690.82c0,-82.46 -42.82,-158.63 -112.25,-199.86z"/>
   <path class="fil1" d="M714.47 1776.87l-581.89 -345.35c-56.91,-33.79 -92.27,-96.83 -92.27,-164.52l0 -690.8c0,-67.71 35.36,-130.74 92.25,-164.51l581.91 -345.41c27.9,-16.56 59.67,-25.32 91.9,-25.32 32.21,0 63.99,8.76 91.91,25.32l581.88 345.41c47.96,28.47 80.31,77.76 89.4,133.05 -19.3,-41.19 -62.82,-52.39 -113.54,-22.76l-550.5 340.03c-68.64,40.13 -119.25,85.15 -119.3,167.92l0 678.32c-0.04,49.56 19.98,81.66 50.72,90.97 -10.1,1.75 -20.28,2.97 -30.59,2.97 -32.22,0 -64,-8.76 -91.9,-25.32zm786.03 -1400.56l-581.88 -345.39c-34.73,-20.62 -73.5,-30.93 -112.25,-30.93 -38.76,0 -77.53,10.3 -112.26,30.93l-581.89 345.39c-69.43,41.23 -112.23,117.43 -112.23,199.88l0 690.8c0,82.44 42.79,158.65 112.25,199.88l581.89 345.36c34.74,20.61 73.48,30.91 112.24,30.91 38.77,0 77.51,-10.3 112.23,-30.91l581.9 -345.36c69.45,-41.23 112.25,-117.45 112.25,-199.88l0 -690.8c0,-82.46 -42.8,-158.65 -112.25,-199.88z"/>
   <path class="fil2" d="M1347.97 1333.79l-144.89 86.72c-3.85,2.24 -6.66,4.76 -6.69,9.37l0 37.91c0,4.63 3.11,6.56 6.95,4.3l147.14 -89.42c3.83,-2.24 4.42,-6.53 4.45,-11.14l0 -33.45c0,-4.61 -3.11,-6.54 -6.96,-4.3z"/>
   <path class="fil0" d="M1039.43 1014.64c4.69,-2.38 8.55,0.54 8.62,6.68l0.49 50.12c20.98,-8.35 39.21,-10.58 55.73,-6.76 3.58,0.96 5.17,5.83 3.71,11.62l-11.03 44.42c-0.86,3.36 -2.75,6.75 -5.02,8.85 -0.96,0.94 -1.93,1.67 -2.9,2.16 -1.49,0.76 -2.95,0.99 -4.35,0.71 -7.54,-1.7 -25.47,-5.62 -53.66,8.66 -29.58,14.98 -39.93,40.68 -39.73,59.76 0.25,22.78 11.93,29.68 52.28,30.37 53.77,0.89 77,24.39 77.56,78.53 0.56,53.18 -27.83,110.28 -71.26,145.27l0.96 49.62c0.05,5.97 -3.82,12.82 -8.51,15.2l-29.39 16.93c-4.71,2.38 -8.57,-0.55 -8.63,-6.52l-0.51 -48.81c-25.17,10.46 -50.68,12.99 -66.97,6.44 -3.07,-1.2 -4.39,-5.73 -3.17,-10.89l10.65 -44.86c0.85,-3.54 2.72,-7.08 5.26,-9.33 0.9,-0.87 1.83,-1.55 2.76,-2.02 1.69,-0.85 3.34,-1.03 4.73,-0.51 17.56,5.92 40.02,3.15 61.61,-7.78 27.43,-13.88 45.78,-41.85 45.5,-69.65 -0.26,-25.23 -13.91,-35.7 -47.12,-35.95 -42.26,0.12 -81.66,-8.21 -82.31,-70.43 -0.53,-51.22 26.1,-104.53 68.27,-138.23l-0.53 -50.09c-0.06,-6.16 3.7,-12.93 8.53,-15.36l28.45 -18.16z"/>
  </g>
 </g>
</svg>
