<?xml version="1.0" encoding="UTF-8"?>
<!DOCTYPE svg PUBLIC "-//W3C//DTD SVG 1.1//EN" "http://www.w3.org/Graphics/SVG/1.1/DTD/svg11.dtd">
<!-- Creator: CorelDRAW 2018 (64-Bit) -->
<svg xmlns="http://www.w3.org/2000/svg" xml:space="preserve" width="67.7334mm" height="67.7334mm" version="1.1" style="shape-rendering:geometricPrecision; text-rendering:geometricPrecision; image-rendering:optimizeQuality; fill-rule:evenodd; clip-rule:evenodd"
viewBox="0 0 2025.3 2025.3"
 xmlns:xlink="http://www.w3.org/1999/xlink">
 <defs>
  <style type="text/css">
   <![CDATA[
    .fil0 {fill:#FEFEFE}
    .fil2 {fill:#3E474A}
    .fil3 {fill:#47B353}
    .fil1 {fill:#FEFEFE}
   ]]>
  </style>
 </defs>
 <g id="Слой_x0020_1">
  <metadata id="CorelCorpID_0Corel-Layer"/>
  <path class="fil0" d="M474.68 0l1075.94 0c262.11,0 474.68,212.57 474.68,474.68l0 1075.94c0,262.11 -212.57,474.68 -474.68,474.68l-1075.94 0c-262.11,-0 -474.68,-212.57 -474.68,-474.68l-0 -1075.94c0,-262.11 212.57,-474.68 474.68,-474.68z"/>
  <path class="fil1" d="M1612.48 544.58l-499.52 -296.52c-59.62,-35.39 -133.11,-35.39 -192.73,0l-499.52 296.52c-59.6,35.39 -96.34,100.79 -96.34,171.57l0 593.04c0,70.77 36.74,136.19 96.36,171.59l499.52 296.46c29.81,17.7 63.05,26.53 96.35,26.53 33.28,0 66.54,-8.83 96.34,-26.53l499.52 -296.46c59.62,-35.39 96.38,-100.82 96.38,-171.59l0 -593.04c0,-70.78 -36.76,-136.18 -96.36,-171.57z"/>
  <path class="fil2" d="M937.71 1746.88l-499.52 -296.47c-48.86,-29 -79.21,-83.12 -79.21,-141.23l0 -593.02c0,-58.12 30.35,-112.23 79.19,-141.22l499.54 -296.52c23.95,-14.22 51.23,-21.74 78.89,-21.74 27.65,0 54.93,7.52 78.9,21.74l499.52 296.52c41.17,24.44 68.94,66.75 76.75,114.22 -16.57,-35.36 -53.93,-44.97 -97.47,-19.54l-472.58 291.9c-58.92,34.45 -102.37,73.1 -102.41,144.15l0 582.3c-0.03,42.55 17.15,70.1 43.54,78.09 -8.67,1.5 -17.41,2.55 -26.26,2.55 -27.66,0 -54.94,-7.52 -78.89,-21.74zm674.77 -1202.31l-499.52 -296.5c-29.81,-17.7 -63.09,-26.55 -96.36,-26.55 -33.27,0 -66.56,8.84 -96.37,26.55l-499.52 296.5c-59.6,35.39 -96.34,100.81 -96.34,171.59l0 593.02c0,70.77 36.74,136.19 96.36,171.59l499.52 296.47c29.82,17.69 63.08,26.53 96.35,26.53 33.28,0 66.54,-8.84 96.34,-26.53l499.54 -296.47c59.62,-35.4 96.36,-100.82 96.36,-171.59l0 -593.02c0,-70.78 -36.74,-136.2 -96.36,-171.59z"/>
  <path class="fil3" d="M1481.53 1366.51l-124.38 74.45c-3.3,1.92 -5.72,4.08 -5.74,8.05l0 32.55c0,3.98 2.67,5.63 5.97,3.69l126.31 -76.76c3.29,-1.92 3.8,-5.6 3.82,-9.57l0 -28.71c0,-3.96 -2.67,-5.62 -5.97,-3.7z"/>
  <path class="fil1" d="M1216.67 1092.54c4.02,-2.04 7.34,0.47 7.4,5.74l0.42 43.03c18.01,-7.17 33.66,-9.08 47.84,-5.81 3.08,0.82 4.44,5.01 3.18,9.97l-9.47 38.13c-0.74,2.88 -2.36,5.79 -4.31,7.6 -0.82,0.81 -1.66,1.43 -2.49,1.85 -1.27,0.65 -2.53,0.85 -3.73,0.61 -6.47,-1.46 -21.86,-4.83 -46.07,7.44 -25.39,12.86 -34.28,34.92 -34.11,51.3 0.21,19.56 10.24,25.48 44.88,26.08 46.16,0.77 66.1,20.93 66.58,67.42 0.48,45.65 -23.89,94.67 -61.17,124.71l0.82 42.59c0.05,5.13 -3.28,11 -7.31,13.05l-25.23 14.53c-4.04,2.04 -7.36,-0.47 -7.41,-5.6l-0.44 -41.9c-21.6,8.98 -43.5,11.15 -57.49,5.53 -2.63,-1.03 -3.76,-4.92 -2.72,-9.35l9.15 -38.51c0.73,-3.04 2.33,-6.08 4.52,-8.01 0.77,-0.75 1.57,-1.33 2.37,-1.73 1.45,-0.73 2.86,-0.89 4.07,-0.44 15.07,5.08 34.35,2.71 52.89,-6.68 23.55,-11.91 39.3,-35.93 39.06,-59.79 -0.23,-21.65 -11.95,-30.65 -40.45,-30.86 -36.28,0.1 -70.1,-7.05 -70.66,-60.46 -0.45,-43.97 22.41,-89.73 58.61,-118.66l-0.45 -43c-0.05,-5.28 3.17,-11.1 7.33,-13.19l24.42 -15.59z"/>
 </g>
</svg>
