<?xml version="1.0" encoding="UTF-8"?>
<!DOCTYPE svg PUBLIC "-//W3C//DTD SVG 1.1//EN" "http://www.w3.org/Graphics/SVG/1.1/DTD/svg11.dtd">
<!-- Creator: CorelDRAW 2018 (64-Bit) -->
<svg xmlns="http://www.w3.org/2000/svg" xml:space="preserve" width="67.7334mm" height="67.7334mm" version="1.1" style="shape-rendering:geometricPrecision; text-rendering:geometricPrecision; image-rendering:optimizeQuality; fill-rule:evenodd; clip-rule:evenodd"
viewBox="0 0 2025.3 2025.3"
 xmlns:xlink="http://www.w3.org/1999/xlink">
 <defs>
  <style type="text/css">
   <![CDATA[
    .fil5 {fill:none}
    .fil1 {fill:#004482}
    .fil2 {fill:#00599C}
    .fil0 {fill:#394AAB}
    .fil3 {fill:#659AD2}
    .fil4 {fill:white}
   ]]>
  </style>
   <clipPath id="id0">
    <path d="M474.68 0l1075.94 0c262.11,0 474.68,212.57 474.68,474.68l0 1075.94c0,262.11 -212.57,474.68 -474.68,474.68l-1075.94 0c-262.11,-0 -474.68,-212.57 -474.68,-474.68l-0 -1075.94c0,-262.11 212.57,-474.68 474.68,-474.68z"/>
   </clipPath>
 </defs>
 <g id="Слой_x0020_1">
  <metadata id="CorelCorpID_0Corel-Layer"/>
  <path class="fil0" d="M474.68 0l1075.94 0c262.11,0 474.68,212.57 474.68,474.68l0 1075.94c0,262.11 -212.57,474.68 -474.68,474.68l-1075.94 0c-262.11,-0 -474.68,-212.57 -474.68,-474.68l-0 -1075.94c0,-262.11 212.57,-474.68 474.68,-474.68z"/>
  <g style="clip-path:url(#id0)">
   <g id="_2381399068544">
    <path id="1" class="fil1" d="M2024.51 543.47c0.02,-1.45 0.05,-2.96 0.05,-4.43 0,-33.8 -8.52,-67.15 -24.73,-96.78 -17.53,-29.94 -42.87,-54.64 -73.26,-71.41 -269.53,-155.61 -539.14,-311.01 -808.84,-466.19 -72.62,-41.99 -143.01,-40.5 -215.17,2.14 -107.26,63.03 -644.4,371.13 -804.46,463.96 -65.92,38.17 -97.95,96.65 -97.95,172.62l0 938.53c-0.01,1.29 -0.04,2.68 -0.04,3.99 0,33.21 -69.37,174.99 -53.36,204.06 17.12,31.06 184.16,463.08 214.91,480.8 160.43,92.46 634,-115.38 741.26,-52.07 72.16,42.64 142.55,44.13 215.27,2.14 269.46,-155.68 748.72,218.91 1018.49,63.67 31.12,-17.06 54.4,-503.13 71.52,-534.2 16,-29.03 -182.94,-1079.23 -182.94,-1106.83l-0.74 0z"/>
    <path class="fil2" d="M2024.7 1481.91c0.02,1.34 0.04,2.74 0.04,4.1 0,40.65 62.01,176.75 27,155.56l-1039.41 -628.93 914.23 -641.8c30.35,16.76 55.69,41.47 73.19,71.41 16.25,29.61 24.81,62.93 24.81,96.71 0,1.5 -0.03,3.04 -0.05,4.51 0.19,312.84 0.19,938.44 0.19,938.44l-0 -0.01z"/>
    <path class="fil3" d="M2172.8 341.39l-2226.33 1285.26c-24.89,-46.98 -41.71,-937.43 -55.2,-1049.66 0,-75.98 -88.53,-508.26 -22.7,-546.43 160.15,-92.83 926.72,-60.74 1034.07,-123.96 71.97,-42.64 870.3,-152.92 942.92,-110.92 269.46,155.68 -15.71,319.05 254.05,474.3 30.35,16.76 102.04,52.17 73.19,71.41l-0.01 0.01z"/>
    <path class="fil4" d="M1051.43 1391.78c-0.16,0 -0.38,0 -0.52,0 -135.33,0 -259.99,-73.63 -325.37,-192.08 -3.29,-5.84 -6.39,-11.8 -9.31,-17.88 -24.41,-50.47 -37.17,-105.95 -37.17,-162.06 0,-205.35 166.53,-371.88 371.88,-371.88 111.18,0 216.65,49.85 287.25,135.7 4.93,5.96 9.31,12.2 14.24,18.62 2.24,3.07 4.47,6.14 6.52,9.31l326.53 -188.08c-7.94,-12.78 -16.25,-25.19 -24.94,-37.23 -4.56,-6.43 -9.31,-12.57 -13.78,-18.62 -140.75,-182.89 -358.64,-290.15 -589.51,-290.15 -410.79,0 -743.93,333.14 -743.93,743.94 0,119.89 29.06,238.05 84.46,344.31 3.17,5.96 6.43,11.83 9.31,17.69 132.1,233.03 379.44,377.19 647.32,377.19 253.88,0 490.42,-129.53 627.03,-343.45l-319.27 -193.01c-68.65,104.58 -185.43,167.69 -310.55,167.69 -0.04,0 -0.13,0 -0.18,0l-0.02 0z"/>
   </g>
  </g>
  <path class="fil5" d="M474.68 0l1075.94 0c262.11,0 474.68,212.57 474.68,474.68l0 1075.94c0,262.11 -212.57,474.68 -474.68,474.68l-1075.94 0c-262.11,-0 -474.68,-212.57 -474.68,-474.68l-0 -1075.94c0,-262.11 212.57,-474.68 474.68,-474.68z"/>
 </g>
</svg>
