<?xml version="1.0" encoding="UTF-8"?>
<!DOCTYPE svg PUBLIC "-//W3C//DTD SVG 1.1//EN" "http://www.w3.org/Graphics/SVG/1.1/DTD/svg11.dtd">
<!-- Creator: CorelDRAW 2018 (64-Bit) -->
<svg xmlns="http://www.w3.org/2000/svg" xml:space="preserve" width="67.7334mm" height="67.7334mm" version="1.1" style="shape-rendering:geometricPrecision; text-rendering:geometricPrecision; image-rendering:optimizeQuality; fill-rule:evenodd; clip-rule:evenodd"
viewBox="0 0 6719 6719"
 xmlns:xlink="http://www.w3.org/1999/xlink">
 <defs>
  <style type="text/css">
   <![CDATA[
    .fil5 {fill:none}
    .fil2 {fill:#004482}
    .fil3 {fill:#00599C}
    .fil0 {fill:#394AAB}
    .fil1 {fill:#659AD2}
    .fil4 {fill:white}
   ]]>
  </style>
   <clipPath id="id0">
    <path d="M1574.76 0l3569.47 0c869.57,0 1574.76,705.2 1574.76,1574.76l0 3569.47c0,869.56 -705.2,1574.75 -1574.76,1574.75l-3569.47 0.01c-869.56,-0.01 -1574.75,-705.21 -1574.75,-1574.77l-0.01 -3569.46c0.01,-869.57 705.21,-1574.76 1574.77,-1574.76z"/>
   </clipPath>
 </defs>
 <g id="Слой_x0020_1">
  <metadata id="CorelCorpID_0Corel-Layer"/>
  <path class="fil0" d="M1574.76 0l3569.47 0c869.57,0 1574.76,705.2 1574.76,1574.76l0 3569.47c0,869.56 -705.2,1574.75 -1574.76,1574.75l-3569.47 0.01c-869.56,-0.01 -1574.75,-705.21 -1574.75,-1574.77l-0.01 -3569.46c0.01,-869.57 705.21,-1574.76 1574.77,-1574.76z"/>
  <g style="clip-path:url(#id0)">
   <g id="_2381395772720">
    <g>
     <path id="1" class="fil1" d="M6718.64 1803.87c-0.06,-126.97 336.95,-544.29 282.04,-640.58 -53.95,-94.69 -134.74,-174.06 -243.09,-236.81 89.74,-765.1 667.47,-1000.41 -226.72,-1516.69 -241.07,-139.17 -3296.27,141.48 -3535.55,282.65 -356.03,209.96 -2597.87,63.25 -3129.03,370.91 -218.75,126.64 -180.83,1645.87 -180.89,1897.77 -0.34,1037.22 -98.42,1972.73 -98.76,3009.98 0.05,124.2 42.46,362.15 94.96,457 53.96,97.56 532.85,-4.61 643.71,59.56 531.19,307.65 2313.95,1328.82 2669.9,1538.84 239.38,141.25 473.12,146.3 714.26,7.07 894.22,-516.31 1789.62,-1030.48 2684.23,-1546.23 110.85,-64.15 192.77,-145.75 246.74,-243.22 52.42,-94.85 78.48,-204.87 78.52,-329.09 0,0 0,-2073.9 -0.34,-3111.16l0 0zm0 0l0 0 0 0z"/>
    </g>
    <g>
     <path class="fil2" d="M3369.78 3349.37l-3497.89 2016.39c53.96,97.56 290.08,1291.29 400.95,1355.46 531.19,307.65 2366.43,95.26 2722.38,305.28 239.38,141.25 473.12,146.3 714.27,7.07 894.21,-516.31 2465.45,288.4 3360.07,-227.36 110.85,-64.15 -30.32,-1202.16 23.65,-1299.63l-3723.43 -2157.21 0 0zm0 0l0 0 0 0z"/>
    </g>
    <g>
     <path class="fil2" d="M2394.96 3910.69c191.51,334.34 551.54,559.84 964.54,559.84 415.55,0 777.62,-228.36 968.17,-566.28l-957.89 -554.88 -974.82 561.32 0 0zm0 0l0 0 0 0z"/>
    </g>
    <path class="fil3" d="M6999.15 1844.88c-0.06,-126.97 74.49,-500.01 19.57,-596.3l-3648.95 2100.79 3514.99 2036.46c52.42,-94.85 450.94,-727.16 450.99,-851.37 0,0 -336.26,-1652.32 -336.61,-2689.58z"/>
    <g>
     <path class="fil4" d="M6538.8 3484.81l-255.58 0 0 255.64 -255.63 0 0 -255.64 -255.55 0 0 -255.55 255.55 0 0 -255.57 255.63 0 0 255.57 255.58 0 0 255.55 0 0zm-932.6 0l-255.55 0 0 255.64 -255.58 0 0 -255.64 -255.58 0 0 -255.55 255.58 0 0 -255.57 255.58 0 0 255.57 255.55 0 0 255.55z"/>
    </g>
    <g>
     <path class="fil4" d="M4327.67 3904.25c-190.55,337.92 -552.62,566.28 -968.17,566.28 -413,0 -773.02,-225.51 -964.54,-559.84 -95.9,-167.24 -146.53,-357.17 -146.53,-550.08 0,-0.28 0,-0.81 0,-1.08 0,-613.61 497.47,-1111.04 1111.07,-1111.04 410.34,0 768.47,222.69 960.94,553.61l971.14 -559.22c-386,-666.32 -1106.66,-1114.6 -1932.07,-1114.6 -1232.31,0 -2231.26,998.98 -2231.26,2231.24 0,404.27 107.55,783.37 295.51,1110.39 385.03,669.83 1107.73,1120.87 1935.75,1120.87 829.55,0 1553.39,-452.85 1937.86,-1124.66l-969.69 -561.82 0 -0.06zm0 0l0 0 0 0z"/>
    </g>
   </g>
  </g>
  <path class="fil5" d="M1574.76 0l3569.47 0c869.57,0 1574.76,705.2 1574.76,1574.76l0 3569.47c0,869.56 -705.2,1574.75 -1574.76,1574.75l-3569.47 0.01c-869.56,-0.01 -1574.75,-705.21 -1574.75,-1574.77l-0.01 -3569.46c0.01,-869.57 705.21,-1574.76 1574.77,-1574.76z"/>
 </g>
</svg>
