<?xml version="1.0" encoding="UTF-8"?>
<!DOCTYPE svg PUBLIC "-//W3C//DTD SVG 1.1//EN" "http://www.w3.org/Graphics/SVG/1.1/DTD/svg11.dtd">
<!-- Creator: CorelDRAW 2018 (64-Bit) -->
<svg xmlns="http://www.w3.org/2000/svg" xml:space="preserve" width="67.7334mm" height="67.7334mm" version="1.1" style="shape-rendering:geometricPrecision; text-rendering:geometricPrecision; image-rendering:optimizeQuality; fill-rule:evenodd; clip-rule:evenodd"
viewBox="0 0 6719 6719"
 xmlns:xlink="http://www.w3.org/1999/xlink">
 <defs>
  <style type="text/css">
   <![CDATA[
    .fil0 {fill:#FEFEFE}
    .fil1 {fill:url(#id0)}
   ]]>
  </style>
  <linearGradient id="id0" gradientUnits="userSpaceOnUse" x1="650.39" y1="2525.13" x2="5881" y2="4789">
   <stop offset="0" style="stop-opacity:1; stop-color:#06A0CE"/>
   <stop offset="1" style="stop-opacity:1; stop-color:#51CBBF"/>
  </linearGradient>
 </defs>
 <g id="Слой_x0020_1">
  <metadata id="CorelCorpID_0Corel-Layer"/>
  <path class="fil0" d="M1574.76 0l3569.47 0c869.57,0 1574.76,705.2 1574.76,1574.76l0 3569.47c0,869.56 -705.2,1574.75 -1574.76,1574.75l-3569.47 0.01c-869.56,-0.01 -1574.75,-705.21 -1574.75,-1574.77l-0.01 -3569.46c0.01,-869.57 705.21,-1574.76 1574.77,-1574.76z"/>
  <path class="fil1" d="M5767.3 1626.76c-160.49,-160 -378.36,-250.1 -605.13,-250.1 -217.44,0 -427.06,82.78 -585.79,231.38 -16.17,14.94 -25.45,35.97 -25.53,58.02 -0.02,0.72 -0.03,1.47 -0.03,2.19 0,21.42 8.55,41.99 23.74,57.08l107.92 107.92c15.32,15.25 36.05,23.82 57.66,23.82 17.67,0 34.87,-5.73 49,-16.34 85.05,-63.95 188.68,-98.6 295.13,-98.6 271.1,0 490.95,219.85 490.95,490.95 0,130.67 -52.14,256 -144.75,348.12 -680.01,679.98 -1588.29,-1225.81 -3647.54,-245.78 -98.61,45.78 -161.72,144.73 -161.72,253.47 0,48.73 12.79,96.67 36.98,138.94l353.71 611.35c49.78,86.16 141.85,139.3 241.41,139.3 47.82,0 94.94,-12.32 136.62,-35.75l8.72 -6.87 -6.85 4.99 156.57 -87.33c174.54,-108.21 340.04,-232.01 493.56,-368.23 15.77,-14.44 36.6,-22.58 58.21,-22.58 19.62,0 38.69,6.72 53.97,19.02l-0.01 0c19.71,15.37 31.22,38.95 31.22,63.93 0,23.27 -10.01,45.44 -27.46,60.83 -161.02,145.79 -335.34,277.09 -519.52,391.81l-5.61 0 -156.58 87.96c-66.6,36.64 -141.46,56 -217.4,56 -159.62,0 -307.35,-84.82 -387.85,-222.63l-334.37 -576.42c-641.28,456.04 -1029.93,1328.77 -822.2,2432.33 6.94,38.6 40.58,66.73 79.83,66.73 0.01,0 0.02,0 0.03,0l379.9 0.01c41.17,-0.28 75.81,-30.93 81.11,-71.74 35,-278.48 272.02,-487.47 552.7,-487.47 280.68,0 517.69,208.99 552.72,487.43 5.01,40.74 39.44,71.45 80.46,71.77l370.55 0.01c41.17,-0.28 75.8,-30.93 81.1,-71.74 35.01,-278.48 272.02,-487.47 552.7,-487.47 280.68,0 517.69,208.99 552.73,487.43 4.99,41.03 39.8,71.85 81.1,71.85 1.24,0 2.49,-0.03 3.72,-0.08l366.18 0.01c44.52,-0.33 80.72,-35.99 81.73,-80.48 8.1,-516.52 147.22,-1109.16 544.6,-1406.72 1371.16,-1028.06 1009.35,-1908.89 691.81,-2228.3zm-1402.36 1553.94l-262 -131.62 0 0c0,-0.22 0,-0.42 0,-0.62 0,-90.93 73.75,-164.69 164.69,-164.69 90.93,0 164.7,73.75 164.7,164.69 0,52.48 -25.06,101.86 -67.39,132.87l0 -0.63z"/>
 </g>
</svg>
