<?xml version="1.0" encoding="UTF-8"?>
<!DOCTYPE svg PUBLIC "-//W3C//DTD SVG 1.1//EN" "http://www.w3.org/Graphics/SVG/1.1/DTD/svg11.dtd">
<!-- Creator: CorelDRAW 2018 (64-Bit) -->
<svg xmlns="http://www.w3.org/2000/svg" xml:space="preserve" width="67.733mm" height="49.7158mm" version="1.1" style="shape-rendering:geometricPrecision; text-rendering:geometricPrecision; image-rendering:optimizeQuality; fill-rule:evenodd; clip-rule:evenodd"
viewBox="0 0 6718.96 4931.69"
 xmlns:xlink="http://www.w3.org/1999/xlink">
 <defs>
  <style type="text/css">
   <![CDATA[
    .fil0 {fill:url(#id0)}
   ]]>
  </style>
  <linearGradient id="id0" gradientUnits="userSpaceOnUse" x1="-9.57" y1="1428.22" x2="6495.21" y2="4243.57">
   <stop offset="0" style="stop-opacity:1; stop-color:#06A0CE"/>
   <stop offset="1" style="stop-opacity:1; stop-color:#51CBBF"/>
  </linearGradient>
 </defs>
 <g id="Слой_x0020_1">
  <metadata id="CorelCorpID_0Corel-Layer"/>
  <path class="fil0" d="M6353.8 311.02c-199.59,-198.97 -470.52,-311.02 -752.52,-311.02 -270.41,0 -531.08,102.95 -728.5,287.73 -20.11,18.59 -31.65,44.74 -31.74,72.17 -0.03,0.89 -0.04,1.83 -0.04,2.73 0,26.62 10.63,52.22 29.51,70.99l134.21 134.2c19.04,18.95 44.84,29.61 71.71,29.61 21.97,0 43.36,-7.13 60.94,-20.32 105.76,-79.54 234.64,-122.62 367.03,-122.62 337.13,0 610.54,273.4 610.54,610.54 0,162.5 -64.85,318.37 -180.01,432.93 -845.66,845.62 -1975.2,-1524.41 -4536.07,-305.66 -122.63,56.94 -201.11,179.99 -201.11,315.22 0,60.58 15.9,120.21 46,172.77l439.87 760.27c61.89,107.14 176.4,173.23 300.2,173.23 59.48,0 118.08,-15.32 169.91,-44.45l10.84 -8.54 -8.53 6.2 194.72 -108.61c217.05,-134.57 422.87,-288.53 613.79,-457.94 19.62,-17.95 45.53,-28.08 72.39,-28.08 24.39,0 48.11,8.36 67.12,23.66l-0.01 0c24.51,19.11 38.83,48.44 38.83,79.51 0,28.95 -12.45,56.51 -34.15,75.65 -200.24,181.3 -417.02,344.58 -646.07,487.26l-6.98 0 -194.72 109.38c-82.83,45.57 -175.93,69.64 -270.36,69.64 -198.5,0 -382.23,-105.49 -482.33,-276.86l-415.82 -716.83c-797.51,567.13 -1280.82,1652.47 -1022.49,3024.84 8.64,48.01 50.47,82.98 99.28,82.98 0.01,0 0.02,0 0.04,0l472.44 0.02c51.21,-0.34 94.28,-38.47 100.87,-89.22 43.53,-346.31 338.28,-606.21 687.34,-606.21 349.05,0 643.79,259.9 687.35,606.17 6.23,50.66 49.05,88.85 100.07,89.24l460.8 0.02c51.2,-0.34 94.28,-38.47 100.86,-89.22 43.54,-346.31 338.29,-606.21 687.34,-606.21 349.06,0 643.8,259.9 687.37,606.17 6.2,51.02 49.5,89.35 100.86,89.35 1.55,0 3.09,-0.04 4.62,-0.11l455.38 0.02c55.36,-0.41 100.39,-44.75 101.64,-100.08 10.08,-642.35 183.08,-1379.34 677.26,-1749.4 1705.17,-1278.48 1255.22,-2373.89 860.33,-2771.1zm-1743.97 1932.48l-325.82 -163.69 0 0c0,-0.27 0,-0.52 0,-0.76 0,-113.09 91.72,-204.81 204.81,-204.81 113.09,0 204.81,91.73 204.81,204.81 0,65.26 -31.17,126.68 -83.8,165.23l0 -0.78z"/>
 </g>
</svg>
