<?xml version="1.0" encoding="UTF-8"?>
<!DOCTYPE svg PUBLIC "-//W3C//DTD SVG 1.1//EN" "http://www.w3.org/Graphics/SVG/1.1/DTD/svg11.dtd">
<!-- Creator: CorelDRAW 2018 (64-Bit) -->
<svg xmlns="http://www.w3.org/2000/svg" xml:space="preserve" width="67.7334mm" height="67.7334mm" version="1.1" style="shape-rendering:geometricPrecision; text-rendering:geometricPrecision; image-rendering:optimizeQuality; fill-rule:evenodd; clip-rule:evenodd"
viewBox="0 0 2025.3 2025.3"
 xmlns:xlink="http://www.w3.org/1999/xlink">
 <defs>
  <style type="text/css">
   <![CDATA[
    .fil0 {fill:#49021F}
    .fil1 {fill:#FF3366}
   ]]>
  </style>
 </defs>
 <g id="Слой_x0020_1">
  <metadata id="CorelCorpID_0Corel-Layer"/>
  <path class="fil0" d="M474.68 0l1075.94 0c262.11,0 474.68,212.57 474.68,474.68l0 1075.94c0,262.11 -212.57,474.68 -474.68,474.68l-1075.94 0c-262.11,-0 -474.68,-212.57 -474.68,-474.68l-0 -1075.94c0,-262.11 212.57,-474.68 474.68,-474.68z"/>
  <path class="fil1" d="M725.73 608.06l0 865.81c0,9.28 -4.22,13.5 -11.81,13.5l-165.4 0c-7.59,0 -10.97,-4.22 -10.97,-13.5l0 -865.81c0,-7.59 4.22,-10.97 11.81,-10.97l164.56 0c5.06,-0.84 10.12,2.53 10.97,8.44 0.84,0.84 0.84,1.69 0.84,2.53zm486.07 892.81c-62.45,0.84 -124.89,-11.81 -181.43,-37.97 -53.16,-24.47 -97.04,-64.98 -127.42,-114.77 -31.22,-51.47 -46.41,-115.61 -46.41,-192.4 -0.84,-62.45 15.19,-124.05 46.41,-178.05 32.07,-54.85 78.48,-100.42 134.17,-130.8 59.07,-32.91 129.96,-48.95 213.5,-48.95 4.22,0 10.12,0 17.72,0.84 7.59,0.84 16.03,0.84 26.16,1.69l0 -266.66c0,-5.91 2.53,-9.28 8.44,-9.28l171.31 -0c4.22,-0.84 7.59,2.53 8.44,5.91l0 805.05c0,15.19 0.84,32.07 1.69,50.63 1.69,17.72 2.53,34.6 3.37,48.95 0,5.91 -2.53,10.97 -8.44,13.5 -43.88,18.57 -90.3,32.07 -137.55,40.5 -42.19,7.59 -86.07,11.81 -129.96,11.81zm82.7 -168.77l0 -371.3c-7.59,-1.69 -15.19,-3.38 -22.79,-4.22 -9.28,-0.84 -18.57,-1.69 -27.85,-1.69 -32.91,0 -65.82,6.75 -95.36,21.94 -28.69,14.35 -53.16,35.44 -71.73,62.45 -18.57,27 -27.85,63.29 -27.85,107.17 -0.84,29.54 4.22,59.07 14.35,86.92 8.44,22.78 21.1,43.04 37.97,59.91 16.03,15.19 35.44,27 57.38,33.76 22.78,7.59 46.41,10.97 70.04,10.97 12.66,0 24.47,-0.84 35.44,-1.69 10.97,0.84 21.1,-0.84 30.38,-4.22l0 0z"/>
 </g>
</svg>
