<?xml version="1.0" encoding="UTF-8"?>
<!DOCTYPE svg PUBLIC "-//W3C//DTD SVG 1.1//EN" "http://www.w3.org/Graphics/SVG/1.1/DTD/svg11.dtd">
<!-- Creator: CorelDRAW 2018 (64-Bit) -->
<svg xmlns="http://www.w3.org/2000/svg" xml:space="preserve" width="49.0632mm" height="67.733mm" version="1.1" style="shape-rendering:geometricPrecision; text-rendering:geometricPrecision; image-rendering:optimizeQuality; fill-rule:evenodd; clip-rule:evenodd"
viewBox="0 0 5733.33 7915.01"
 xmlns:xlink="http://www.w3.org/1999/xlink">
 <defs>
  <style type="text/css">
   <![CDATA[
    .str0 {stroke:#D33833;stroke-width:77.3;stroke-miterlimit:22.9256}
    .fil10 {fill:none}
    .fil12 {fill:#1D1919}
    .fil2 {fill:#231F20}
    .fil4 {fill:#335061}
    .fil8 {fill:#49728B}
    .fil5 {fill:#6D6B6D}
    .fil11 {fill:#81B0C4}
    .fil0 {fill:#D33833}
    .fil6 {fill:#DCD9D8}
    .fil1 {fill:#EF3D3A}
    .fil3 {fill:#F0D6B7}
    .fil7 {fill:#F7E4CD}
    .fil9 {fill:white}
   ]]>
  </style>
   <clipPath id="id0">
    <path d="M0.01 7915.01l5733.31 0 0 -7915.01 -5733.31 0 0 7915.01z"/>
   </clipPath>
 </defs>
 <g id="Слой_x0020_1">
  <metadata id="CorelCorpID_0Corel-Layer"/>
  <g>
  </g>
  <g style="clip-path:url(#id0)">
   <g>
    <path class="fil0" d="M5635.57 3815.95c0,1567.41 -1242.26,2838.08 -2774.69,2838.08 -1532.4,0 -2774.67,-1270.67 -2774.67,-2838.08 0,-1567.46 1242.26,-2838.14 2774.67,-2838.14 1532.43,0 2774.69,1270.68 2774.69,2838.14z"/>
    <g>
     <path class="fil1" d="M199.27 4518.85c0,0 -200.86,-2959.66 2526.3,-3044.23l-190.28 -317.11 -1479.82 496.81 -422.82 486.23 -369.94 708.22 -211.43 824.48 63.42 549.66 84.57 295.95zm0 0l0 0 0 0z"/>
    </g>
    <path class="fil2" d="M960.46 1879.84c-486.82,498.12 -788.08,1185.88 -788.08,1946.72 0,760.67 301.26,1448.48 788.08,1946.54 487.07,498.01 1158.31,805.31 1900.38,805.31 742.11,0 1413.39,-307.31 1900.4,-805.31 486.81,-498.06 788.12,-1185.87 788.12,-1946.54 0,-760.84 -301.31,-1448.59 -788.12,-1946.72 -487.01,-497.91 -1158.29,-805.23 -1900.4,-805.29 -742.07,0.06 -1413.32,307.38 -1900.38,805.29zm-123.24 4013.73c-517.38,-529.12 -837.23,-1260.4 -837.23,-2067.01 0,-806.79 319.85,-1537.97 837.23,-2067.13 517.26,-529.25 1233.3,-857.3 2023.62,-857.2 790.36,-0.11 1506.42,327.94 2023.59,857.2 517.44,529.16 837.34,1260.42 837.3,2067.13 0.05,806.61 -319.86,1537.88 -837.3,2067.01 -517.17,529.19 -1233.23,857.23 -2023.59,857.23 -790.32,0 -1506.36,-328.04 -2023.62,-857.23z"/>
    <g>
     <path class="fil3" d="M4028.89 3831.7l-422.84 63.41 -570.8 63.43 -369.99 10.53 -359.34 -10.53 -274.86 -84.57 -243.14 -264.25 -190.25 -539.09 -42.27 -116.31 -253.69 -84.55 -147.99 -243.12 -105.7 -348.8 116.28 -306.56 274.81 -95.12 221.97 105.72 105.74 232.54 126.84 -21.15 42.27 -52.83 -42.27 -243.14 -10.6 -306.55 63.43 -422.79 -2.48 -241.52 192.75 -308.13 338.25 -243.14 591.92 -253.67 655.36 95.12 570.8 412.24 264.28 422.8 169.11 306.55 42.26 761.06 -126.85 655.38 -232.54 581.34 -221.97 306.56 -158.5 169.14zm0 0l0 0 0 0z"/>
    </g>
    <polygon class="fil4" points="3669.48,5660.3 2157.9,5723.75 2157.9,5977.41 2284.75,6865.33 2221.35,6939.34 1164.32,6579.92 1090.31,6453.09 984.61,5258.66 741.53,4539.89 688.66,4370.76 1534.26,3789.39 1798.53,3683.68 2031.06,3969.06 2231.92,4148.77 2464.46,4222.78 2570.17,4254.47 2697,4804.13 2792.14,4920.41 3035.26,4835.84 2866.12,5163.52 3785.75,5596.92 "/>
    <polygon class="fil5" points="1164.32,1971.29 1439.12,1876.17 1661.11,1981.89 1766.83,2214.43 1893.66,2193.26 1925.36,2066.42 1861.97,1823.34 1925.36,1241.95 1872.5,924.83 2062.78,702.87 2475.02,375.19 2358.75,216.64 1777.36,502.04 1534.25,692.3 1396.85,988.25 1185.45,1273.66 1122.02,1611.91 "/>
    <path class="fil6" d="M1597.69 977.7c0,0 158.53,-391.08 792.76,-581.36 634.22,-190.25 31.7,-137.42 31.7,-137.42l-687.04 264.27 -264.27 264.25 -116.26 211.42 243.11 -21.15z"/>
    <path class="fil6" d="M1280.57 1897.31c0,0 -221.98,-739.94 623.67,-845.63l-31.74 -126.85 -581.34 137.43 -169.15 549.64 42.3 359.38 116.25 -73.98z"/>
    <g>
     <path class="fil7" d="M1618.82 2880.35l138.39 -134.1c0,0 62.48,7.27 73.02,81.25 10.55,74.03 42.27,739.92 496.78,1099.34 41.48,32.81 -338.2,-52.87 -338.2,-52.87l-338.28 -528.52 -31.71 -465.1zm0 0l0 0 0 0z"/>
    </g>
    <path class="fil7" d="M3563.82 2679.52c0,0 24.66,-320.41 110.93,-295.75 86.27,24.63 86.27,110.92 86.27,110.92 0,0 -209.56,135.56 -197.21,184.83z"/>
    <g>
     <path class="fil7" d="M4441.12 1506.22c0,0 -174.24,36.79 -190.28,190.28 -16.07,153.51 190.28,31.71 221.98,21.15l-31.7 -211.43zm0 0l0 0 0 0z"/>
    </g>
    <g>
     <path class="fil7" d="M3162.09 1516.82c0,0 -232.54,31.7 -232.54,179.68 0,148 264.28,137.43 338.25,74.02l-105.71 -253.69zm0 0l0 0 0 0z"/>
    </g>
    <path class="fil7" d="M1724.53 2203.87c0,0 -401.7,-243.13 -443.96,-10.56 -42.28,232.53 -137.43,401.67 63.43,644.78l-137.42 -42.27 -126.84 -327.68 -42.27 -317.11 243.1 -253.72 274.83 21.15 158.55 126.85 10.58 158.56z"/>
    <path class="fil7" d="M1914.8 1537.93c0,0 179.67,-930.16 1088.76,-1109.88 748.39,-147.93 1141.53,31.7 1289.54,200.83 0,0 -665.93,-792.74 -1300.16,-549.64 -634.19,243.12 -1099.28,687.08 -1088.7,972.44 18,486.07 10.56,486.25 10.56,486.25z"/>
    <g>
     <path class="fil7" d="M4367.11 734.58c0,0 -306.5,-10.56 -317.11,264.27 0,0 0,42.27 21.14,84.53 0,0 243.14,-274.82 391.11,-126.84l-95.13 -221.97zm0 0l0 0 0 0z"/>
    </g>
    <path class="fil7" d="M3024.84 1112.03c0,0 -52.76,-421.84 -412.41,-176.59 -232.54,158.54 -211.38,380.53 -169.16,422.8 42.33,42.3 30.8,127.45 63.02,69 32.14,-58.44 21.57,-248.7 137.83,-301.54 116.28,-52.85 306.91,-111.91 380.72,-13.67z"/>
    <path class="fil8" d="M2031.06 3969.06l-993.58 443.96c0,0 412.23,1638.4 200.82,2145.79l-147.99 -52.83 -10.58 -623.67 -274.79 -1183.85 -116.3 -327.71 1035.87 -697.6 306.54 295.9z"/>
    <g>
     <path class="fil8" d="M2133.21 4875.31l140.98 171.98 0 634.2 -169.14 0c0,0 -21.1,-443.92 -21.1,-496.79 0,-52.88 21.1,-243.14 21.1,-243.14l28.16 -66.25zm0 0l0 0 0 0z"/>
    </g>
    <g>
     <path class="fil8" d="M2136.77 5776.62l-475.66 21.13 137.42 95.14 338.24 52.83 0 -169.1zm0 0l0 0 0 0z"/>
    </g>
    <polygon class="fil4" points="3764.62,5670.91 4155.71,5660.35 4250.84,6632.82 3849.15,6685.65 "/>
    <path class="fil4" d="M3870.29 5670.91l591.96 -31.7c0,0 243.12,-613.09 243.12,-644.8 0,-31.69 211.42,-887.9 211.42,-887.9l-475.7 -496.79 -95.1 -84.58 -253.73 253.73 0 983.01 -221.97 909.04z"/>
    <g>
     <path class="fil8" d="M4134.52 5596.92l-369.9 73.99 52.83 296c137.4,63.43 369.94,-105.71 369.94,-105.71l-52.88 -264.28zm0 0l0 0 0 0z"/>
    </g>
    <polygon class="fil8" points="4145.13,3747.13 4885.06,4296.79 4906.2,4043.1 4345.98,3525.14 "/>
    <polygon class="fil9" points="2503.61,7753.36 2284.75,6865.33 2175.92,6210.08 2157.9,5723.75 3148.4,5670.99 3764.62,5670.91 3708.58,6780.88 3803.72,7637.1 3793.15,7795.62 2989.81,7859.06 "/>
    <g>
     <path class="fil6" d="M3627.18 5660.35c0,0 -52.84,1099.32 105.74,1881.48 0,0 -317.12,200.89 -782.23,253.73l887.91 -31.74 105.7 -63.41 -126.84 -1733.5 -31.7 -369.99 -158.57 63.43zm0 0l0 0 0 0z"/>
    </g>
    <g>
     <path class="fil9" d="M4268.85 6548.34l412.26 -116.27 782.16 -42.27 116.26 -359.38 -211.42 -623.67 -243.05 -31.7 -338.3 105.71 -324.52 158.46 -172.27 -31.61 -134.27 52.75 113.14 887.99zm0 0l0 0 0 0z"/>
    </g>
    <g>
     <path class="fil6" d="M4261.41 6336.85c0,0 274.8,-126.85 317.11,-116.28l-116.28 -581.36 137.41 -52.82c0,0 95.13,549.61 95.13,613.04 0,0 591.93,31.71 644.77,31.71 0,0 126.84,-243.12 95.14,-496.83l116.26 338.29 10.58 190.23 -169.11 253.73 -190.27 42.26 -317.09 -10.56 -105.71 -137.4 -369.99 52.83 -116.26 42.3 -31.69 -169.14zm0 0l0 0 0 0z"/>
    </g>
    <path class="fil9" d="M3846.03 5586.46l-232.54 -591.93 -243.11 -348.85c0,0 52.83,-147.96 126.84,-147.96 74,0 243.11,0 243.11,0l232.54 84.57 -21.13 391.08 -105.71 613.1z"/>
    <g>
     <path class="fil6" d="M3891.45 5385.5c0,0 -295.97,-570.76 -295.97,-655.33 0,0 52.83,-126.85 126.84,-95.13 74.02,31.69 232.59,116.26 232.59,116.26l0 -200.83 -359.43 -74.02 -243.11 31.7 412.26 972.48 84.52 10.6 42.3 -105.73zm0 0l0 0 0 0z"/>
    </g>
    <g>
     <path class="fil9" d="M2598.73 3990.36l-292.81 -31.82 -274.86 -84.57 0 95.1 134.29 148.08 422.82 190.28 10.55 -317.07zm0 0l0 0 0 0z"/>
    </g>
    <path class="fil6" d="M2126.26 4022.05c0,0 327.68,137.42 433.38,105.71l10.53 126.72 -295.95 -63.27 -179.7 -126.85 31.74 -42.31z"/>
    <path class="fil0" d="M4267.69 4533.69c-179.35,-5.27 -341.41,-26.57 -483.25,-66.58 9.62,-58.16 -8.41,-115.23 6.06,-157.14 39.57,-28.47 105.82,-28.02 165.62,-34.72 -51.7,-25.39 -124.31,-35.45 -183.99,-20.78 -1.38,-40.35 -19.47,-65.38 -30.48,-96.96 100.85,-36.02 338.93,-271.96 472.81,-193.83 63.83,37.15 90.94,249.43 95.89,352.65 4.11,85.63 -7.81,172 -42.68,217.35z"/>
    <path class="fil10 str0" d="M4267.69 4533.69c-179.35,-5.27 -341.41,-26.57 -483.25,-66.58 9.62,-58.16 -8.41,-115.23 6.06,-157.14 39.57,-28.47 105.82,-28.02 165.62,-34.72 -51.7,-25.39 -124.31,-35.45 -183.99,-20.78 -1.38,-40.35 -19.47,-65.38 -30.48,-96.96 100.85,-36.02 338.93,-271.96 472.81,-193.83 63.83,37.15 90.94,249.43 95.89,352.65 4.11,85.63 -7.81,172 -42.68,217.35z"/>
    <path class="fil0" d="M3410.02 4240.51c-0.48,13.58 -1.08,27.23 -1.58,40.92 -56.01,36.81 -146.43,36.33 -207.9,67.27 90.63,3.96 161.95,25.77 223.65,56.51 -1.36,34.19 -2.65,68.35 -4,102.54 -102.66,70.24 -196.41,174.92 -317.28,240.82 -57.14,31.14 -257.68,111.36 -318.47,97.2 -34.43,-8 -37.51,-50.7 -51.24,-90.91 -29.33,-86.18 -96.76,-223.31 -102.66,-353.01 -7.49,-163.83 -24.01,-438.36 152.52,-404.65 142.42,27.18 308.08,92.8 418.36,153.03 67.39,36.83 106.37,82.4 208.59,90.27z"/>
    <path class="fil10 str0" d="M3410.02 4240.51c-0.48,13.58 -1.08,27.23 -1.58,40.92 -56.01,36.81 -146.43,36.33 -207.9,67.27 90.63,3.96 161.95,25.77 223.65,56.51 -1.36,34.19 -2.65,68.35 -4,102.54 -102.66,70.24 -196.41,174.92 -317.28,240.82 -57.14,31.14 -257.68,111.36 -318.47,97.2 -34.43,-8 -37.51,-50.7 -51.24,-90.91 -29.33,-86.18 -96.76,-223.31 -102.66,-353.01 -7.49,-163.83 -24.01,-438.36 152.52,-404.65 142.42,27.18 308.08,92.8 418.36,153.03 67.39,36.83 106.37,82.4 208.59,90.27l0 0z"/>
    <path class="fil0" d="M3511.98 4435.97c-15.68,-89.24 -33.76,-114.68 -26.76,-192.57 237.95,-158.67 282.65,272.54 26.76,192.57z"/>
    <path class="fil10 str0" d="M3511.98 4435.97c-15.68,-89.24 -33.76,-114.68 -26.76,-192.57 237.95,-158.67 282.65,272.54 26.76,192.57z"/>
    <g>
     <path class="fil1" d="M3856.59 4508.27c0,0 -74.04,-105.71 -21.17,-137.4 52.88,-31.74 105.75,0.04 137.45,-52.83 31.7,-52.88 0,-84.58 10.56,-148.02 10.53,-63.38 63.45,-74 116.28,-84.57 52.83,-10.56 200.83,-31.69 221.97,21.19l-63.44 -190.3 -126.84 -42.26 -401.68 232.56 -21.14 116.26 0 232.54 148.01 52.83zm0 0l0 0 0 0z"/>
    </g>
    <g>
     <path class="fil1" d="M2746.7 4857.12c-12.69,-164.98 -26.11,-329.69 -41.06,-494.52 -22.41,-246.08 59.08,-203.13 272.39,-203.13 32.56,0 200.61,38.85 212.63,63.43 57.62,117.73 -96.41,91.57 66.41,180.39 137.4,74.9 380.19,-45.52 324.67,-212.08 -31.07,-37.06 -161.9,-11.57 -208.85,-35.9 -82.55,-42.78 -165.14,-85.61 -247.69,-128.42 -105.08,-54.49 -347.92,-133.96 -459.9,-57.82 -283.83,193.05 17.87,675.36 119.15,876.71l-37.76 11.35zm0 0l0 0 0 0z"/>
    </g>
    <path class="fil2" d="M3024.84 1112.03c-288.11,-67.1 -431.26,120.56 -518.6,315.21 -77.95,-18.9 -46.93,-124.94 -27.22,-178.97 51.56,-141.82 259.36,-330.6 429.19,-305.01 73.05,11.01 171.95,77.83 116.62,168.76z"/>
    <path class="fil2" d="M4428.58 1440.11c4.55,0.2 9.14,0.34 13.66,0.54 65.14,135.25 121.45,278.53 203.6,397.9 -55.05,128.16 -416.64,241.55 -411.06,11.46 78.2,-34.19 213.24,-6.99 282.53,-50.65 -40.11,-110 -97.91,-203.65 -88.73,-359.25z"/>
    <path class="fil2" d="M3172.34 1443.63c61.77,113.25 81.88,232.22 169.7,317.81 39.54,38.52 116.42,85.48 78.32,192.64 -8.9,25.28 -74,81.62 -111.6,92.69 -137.26,40.53 -457.14,8.37 -348.82,-162.78 113.54,5.29 266.14,73.74 350.99,-8.67 -65.18,-104.19 -181.33,-310.26 -138.59,-431.69z"/>
    <path class="fil2" d="M4377.04 2594.54c-206.7,132.76 -437.15,277.14 -775.83,243.66 -72.38,-62.9 -99.96,-202.91 -29.65,-295.38 36.58,62.92 13.59,178.63 115.57,196.04 192.17,32.88 415.84,-117.56 554.05,-170.13 85.73,-144.5 -7.36,-197.65 -84.57,-290.66 -158.12,-190.56 -370.15,-426.74 -362.44,-712 63.87,-46.35 69.42,70.72 78.56,92.01 82.55,193.2 290.28,440.24 441.89,605.58 37.24,40.72 98.53,79.79 105.36,106.71 19.67,78.28 -51.18,172.11 -42.94,224.17z"/>
    <path class="fil2" d="M1652.19 2454.75c-64.8,-36.97 -80.22,-199.82 -156.28,-204.46 -108.69,-6.6 -88.87,211.29 -88.43,338.71 -74.83,-67.92 -87.98,-277.05 -33.02,-384.47 -62.62,-30.74 -90.61,33.95 -125.36,56.73 44.66,-324.39 474.56,-150.46 403.1,193.49z"/>
    <path class="fil2" d="M4508.62 2729.63c-96.21,183.14 -232.3,384.81 -514.62,390.66 -5.75,-59.12 -10.14,-149.11 0.32,-184.73 215.83,-20.75 349.1,-130.6 514.31,-205.94z"/>
    <path class="fil2" d="M3156.08 2848.36c180.05,94.69 510.99,104.85 755.71,97.69 13.15,53.63 12.83,119.87 13.34,185.25 -314.62,15.71 -686.6,-62.13 -769.05,-282.94z"/>
    <path class="fil2" d="M3121.85 3024.93c124.53,312.64 552.5,276.62 913.39,268.03 -15.87,40.56 -50.35,88.53 -93.12,105.87 -115.69,47.06 -434.66,82.75 -595.21,-2.5 -101.79,-54.13 -167.26,-176.46 -223.01,-248.13 -26.95,-34.62 -161.12,-123.08 -2.06,-123.27z"/>
    <path class="fil11" d="M4362 4749.45c-146.11,250.27 -285.94,507.31 -459.3,728.05 72.7,-213.69 103.8,-571.37 114.76,-844.05 152.04,-71.15 282.3,16.02 344.54,116z"/>
    <path class="fil2" d="M5148.32 5648.95c-163.59,32.72 -278.57,191.74 -438.14,181.52 87.71,-123.62 241.41,-175.79 438.14,-181.52z"/>
    <path class="fil2" d="M5220.48 5904.96c-133.33,14.09 -289.97,35.69 -425.2,24.53 64.04,-97.79 310.7,-64.03 425.2,-24.53z"/>
    <path class="fil2" d="M5266.69 6125.7c-149.88,3.25 -336.16,0.25 -478.58,-11.71 84.25,-90.51 381.38,-33.56 478.58,11.71z"/>
    <path class="fil6" d="M4080.03 6729.75c21.5,188.21 96.14,378.92 86.75,585.03 -82.83,27.94 -130.43,52.4 -241.46,52.23 -7.83,-175.16 -31.26,-442.95 -24.26,-609.97 54.58,3.65 135.11,-38.98 178.97,-27.3z"/>
    <path class="fil3" d="M3838.43 3955.96c-75.24,49.1 -139.35,110.45 -211.6,162.89 -160.24,7.91 -247.71,-11.11 -365.49,-103.13 1.94,-7.41 13.78,-4.07 14.21,-13.13 171.56,76.45 389.66,-31.15 562.88,-46.63z"/>
    <path class="fil11" d="M2937.82 5125.38c47.13,-204.26 231.83,-310.04 399.54,-422.5 173.11,219.71 278.42,502.24 394.33,774.87 -273.91,-82.55 -553.82,-216.56 -793.87,-352.37z"/>
    <path class="fil2" d="M3901.07 6757.05c-7,167.01 16.43,434.81 24.26,609.97 111.02,0.16 158.63,-24.29 241.46,-52.23 9.38,-206.11 -65.25,-396.82 -86.75,-585.03 -43.86,-11.69 -124.38,30.94 -178.97,27.3l0 0zm-1728.71 -949.69c73.22,673.02 179.28,1238.74 373.74,1834.71 431.62,131.03 951.94,142.47 1333.44,24.21 -70.04,-336.38 -39.4,-745.87 -80.37,-1104.8 -30.86,-269.8 -15.11,-541.24 -57.42,-816.49 -462.28,-96.16 -1115.7,-22.47 -1569.39,62.37l0 0zm1678.7 -58.17c-3.91,289.06 12.94,574.16 35.03,863.58 110.97,-16.66 186.28,-27.79 289.41,-50.39 -33.49,-278.61 -29.38,-592.13 -97.6,-838.59 -78.83,0.75 -148.24,-0.91 -226.84,25.4l0 0zm563.04 -46.58c-52.67,-12.07 -114.02,-0.48 -164.31,0.51 23.62,235.63 81.04,495.6 101.23,742.94 79.18,2.45 121.5,-34.89 186.64,-47.44 3.47,-217.11 -19,-516.21 -123.56,-696.01l0 0zm852.49 778.92c165.07,-40.08 268.87,-242.23 222.68,-449.85 -30.98,-139.54 -86.16,-402.23 -145.19,-491.52 -43.66,-66.02 -161.94,-152.44 -256.42,-91.97 -153.65,98.42 -424.4,126.99 -536.43,246.06 56.16,187.12 73.6,444.12 96.8,681.17 191.97,11.97 428.2,-52.83 587.84,15.92 -111.48,36.13 -256.09,36.4 -352.41,89.04 78.7,37.99 262.96,30.31 383.12,1.15l0 0zm-1534.88 -1003.78c-115.91,-272.64 -221.22,-555.16 -394.33,-774.87 -167.71,112.46 -352.41,218.24 -399.54,422.5 240.06,135.81 519.96,269.82 793.87,352.37zm285.77 -844.3c-10.96,272.68 -42.07,630.36 -114.76,844.05 173.37,-220.74 313.2,-477.78 459.3,-728.05 -62.28,-99.98 -192.5,-187.16 -344.54,-116l0 0zm-323.96 -115.13c-65.65,-7.05 -121.41,75.51 -206.82,39.82 -19.55,21.64 -37.36,45.06 -57.29,66.16 188.61,227.31 274.33,549.81 420,816.95 78.2,-256.62 69.18,-537.75 86.39,-817.78 -107.4,6.8 -167.01,-97.15 -242.28,-105.16zm-208.28 -274.92c-7,77.84 11.08,103.32 26.76,192.57 255.89,79.98 211.19,-351.23 -26.76,-192.57zm-283.79 -93.17c-110.28,-60.24 -275.93,-125.85 -418.36,-153.03 -176.53,-33.76 -160.01,240.82 -152.52,404.65 5.9,129.7 73.33,266.83 102.66,353.01 13.73,40.21 16.82,82.91 51.22,90.91 60.81,14.16 261.35,-66.06 318.49,-97.2 120.86,-65.9 214.62,-170.57 317.28,-240.82 1.34,-34.19 2.64,-68.35 4,-102.54 -61.7,-30.74 -133.02,-52.55 -223.65,-56.51 61.47,-30.94 151.89,-30.46 207.9,-67.27 0.5,-13.7 1.1,-27.34 1.58,-40.92 -102.26,-7.88 -141.2,-53.44 -208.59,-90.27l0 0zm-1053.27 -191.31c-91.5,92.92 256.69,219.56 367.58,226.36 -0.63,-58.77 33.48,-114.2 26.64,-156.4 -131.67,-23.1 -304.74,-7.83 -394.23,-69.96l0 0zm1127.38 43.66c-0.43,9.07 -12.27,5.73 -14.21,13.13 117.78,92.01 205.2,111.04 365.49,103.13 72.25,-52.43 136.36,-113.78 211.6,-162.89 -173.23,15.47 -391.33,123.07 -562.88,46.63l0 0zm1034.82 313.75c-4.95,-103.22 -32.07,-315.5 -95.86,-352.65 -133.92,-78.18 -372,157.81 -472.85,193.83 11.01,31.57 29.1,56.61 30.48,96.96 59.68,-14.68 132.29,-4.62 183.99,20.78 -59.8,6.7 -126.05,6.25 -165.62,34.72 -14.48,41.9 3.55,98.98 -6.06,157.14 141.84,40.01 303.9,61.31 483.25,66.58 34.87,-45.35 46.79,-131.72 42.68,-217.35l0 0zm-2316.26 -267.53c-28.73,-20.51 -223.11,-273.47 -249.76,-262.94 -351.81,138.72 -680.73,378.63 -974.67,605.5 280.26,601.38 393.37,1338.15 413.38,2048.25 321.05,150.18 603.01,366.62 1038.69,389.22 -50.41,-356.66 -96.44,-674.89 -125.06,-1010.71 -109.46,-46.15 -266.49,2.09 -368.94,-14.29 -0.86,-123.47 156.42,-54.06 169.57,-137.08 9.85,-62.8 -86.6,-67.55 -55.18,-166.41 80.07,29.1 122.14,93.39 207.54,117.53 78.05,-170.73 -1.05,-472.8 10.18,-615.52 2.14,-26.78 13.37,-148.41 73.36,-127.06 53.16,18.87 -3,323.48 2.82,458.54 5.31,124.42 -15.04,244.86 35.34,322.93 421,-57.29 848.77,-94.3 1304.29,-106.81 -100.22,-43.01 -219.25,-83.7 -349.77,-157.28 -70.76,-39.89 -293.81,-122.87 -314.23,-190.08 -32.58,-107.09 85.48,-164.11 105.66,-255.93 -212.47,115.91 -253.95,-111.1 -304.2,-271.89 -45.56,-145.64 -71.49,-254.42 -82.64,-338.44 -183.07,-87.26 -378.78,-175.65 -536.37,-287.56l0 0zm2130.32 -232.34c293.11,-142.12 345.94,531.18 231.06,748.08 17.76,64.71 78.82,89.45 103.76,147.62 -163.56,293.02 -345.25,566.51 -512.15,856.04 124.15,-77.24 301.48,-13.8 447.56,-71.66 53.43,-21.09 92.09,-143.34 132.49,-241.13 111.21,-269.07 228,-608.31 279.92,-865.09 11.76,-58.49 43.69,-185.95 36.54,-238.04 -12.8,-93.24 -139.27,-162.32 -203.62,-219.99 -118.54,-106.49 -193.17,-200.22 -316.84,-299.79 -50.1,74.06 -157.7,123.76 -198.71,183.95l0 0zm-2800.62 -2599.28c-139.67,153.67 -110.44,441.6 -93.52,646.45 252.44,-158.81 587.52,12.56 584.35,282.69 120.5,-3.23 45.04,-150.53 23.22,-245.46 -71.27,-310 120.03,-646.8 8.68,-930.3 -216.23,16.39 -393.85,104.71 -522.73,246.62l0 0zm999.34 -891.9c-316.22,89.63 -721.42,319.36 -851.34,603.4 100.6,-14.63 170.45,-65.36 269.7,-71.64 37.46,-2.44 86.63,15.74 129.72,5.01 85.91,-21.3 158.42,-213.91 223.24,-285.58 63.16,-69.99 139.11,-99.89 191.07,-163.68 33.36,-16.13 82.76,-15 84.62,-65.14 -14.46,-15.48 -29.68,-27.29 -47.01,-22.37l0 0zm1645.87 84.29c-328.19,-185.16 -883.67,-324.43 -1232.75,-150.41 -281.67,140.44 -662.46,372.82 -792.25,667.3 121.28,284.16 -35.9,544.54 -45.96,833.04 -5.34,153.5 72.26,287.52 78.25,454.63 -41.52,68.48 -168.32,76.91 -256.06,72.22 -29.54,-147.85 -81.26,-314 -233.5,-330.68 -215.4,-23.56 -372.91,154.72 -382.69,341.01 -11.59,219.08 168.27,582.21 423.19,556.99 98.49,-9.72 122.66,-108.44 229.96,-107.43 58.18,116.03 -89.69,152.46 -104.91,235.47 -3.95,21.44 12.26,105.22 21.7,144.48 46.31,191.34 149.54,438.93 251.14,584.56 128.94,184.74 382.28,212.61 654.84,230.72 48.69,-104.87 228,-96.24 344.87,-68.82 -140.06,-55.48 -270.22,-189.93 -378.15,-308.92 -123.9,-136.58 -249.44,-283.05 -255.81,-461.49 234.2,324.91 427.69,608.62 853.56,751.57 322.25,108.08 698.58,-49.56 946.2,-223.41 102.74,-72.26 164.08,-186.96 237.09,-291.89 273.28,-393.07 400.75,-954.09 372.72,-1497.87 -11.56,-224.26 -11.05,-447.76 -86.27,-598.63 -78.64,-157.77 -344.62,-298.92 -500.35,-156.2 -28.84,-153.42 129.5,-248.3 315.45,-193.09 -132.61,-171.15 -271.76,-376.79 -460.26,-483.15l0 0zm611.4 5060.02c256.45,-127.51 735.63,-343.15 896.38,0.48 59.32,126.64 128.93,340.74 159.68,471.49 43.41,184.46 -47.1,572.14 -236.66,634.08 -167.48,54.65 -362.87,51.32 -564.59,10.8 -23.78,-19.75 -50.21,-54.22 -68.7,-90.11 -144,-5.59 -278.88,7.75 -392.66,66.96 10.77,106.49 -61.27,123.59 -128.81,145.57 -50.07,198.49 100.17,457.8 64.22,638.82 -25.68,128.96 -184.34,148.92 -300.96,173.05 -3.84,71.68 5.11,131.51 13.06,192.13 -26.69,98.28 -146.32,154.19 -259.62,167.93 -372.92,44.83 -939.08,64.97 -1297.75,-64.01 -100.09,-245.5 -178.92,-544.11 -262.31,-824.42 -349.8,37.36 -632.72,-150.94 -899.44,-274.3 -92.34,-42.83 -220.09,-66.41 -254.58,-139.9 -33.46,-71.2 -19.76,-207.56 -28.06,-336.38 -21.12,-329.08 -39.21,-646.46 -126.11,-983.4 -39.01,-151.18 -107.02,-284.64 -154.46,-430.3 -43.84,-134.99 -120.46,-301.87 -140.44,-436.52 -29.63,-199.58 158.28,-210.66 278.43,-297.13 185.74,-133.73 331.53,-207.7 532.7,-328.35 59.57,-35.73 239.25,-126.2 259.69,-167.89 40.64,-82.63 -69.73,-199.1 -99.25,-263.84 -46.66,-102.38 -71,-189.38 -77.7,-290.4 -168.74,-26.69 -296.67,-127.13 -373.94,-240.35 -127.82,-187.4 -216.46,-534.14 -105.87,-797.87 8.67,-20.78 51.93,-61.62 58.3,-93.53 12.6,-62.8 -23.68,-146.34 -25.93,-213.16 -11.63,-342.8 58.01,-638.15 288.76,-741.52 93.68,-373.2 429,-497.29 744.89,-682.77 118.09,-69.31 248.25,-113.61 382.69,-163.1 482.25,-177.48 1222.21,-144.05 1622.45,158.66 169.71,128.37 440.99,399.4 538.04,595.63 256.28,518.06 238.07,1383.86 58.84,2014.05 -24.1,84.62 -59.05,209 -107.83,310.62 -34.03,70.97 -139.78,212.96 -126.96,275.64 13.22,64.79 241.13,237.81 290.01,284.94 87.98,84.9 255.17,197.56 268.71,304.7 14.57,113.97 -50.21,269.94 -83.07,379.95 -109.7,367.1 -216.76,706.47 -341.17,1033.74z"/>
    <path class="fil7" d="M2869.55 2928.31c13.88,-18.52 90.39,-46.6 197.39,4.92 0,0 -126.84,21.13 -116.26,232.63l-52.88 -10.61c0,0 -54.61,-191.74 -28.26,-226.93z"/>
    <path class="fil12" d="M3796.33 4746.04c0,32.1 -26.05,58.09 -58.15,58.09 -32.1,0 -58.14,-25.99 -58.14,-58.09 0,-32.1 26.04,-58.17 58.14,-58.17 32.1,0 58.15,26.07 58.15,58.17z"/>
    <path class="fil12" d="M3854.46 5015.59c0,32.09 -26.05,58.09 -58.18,58.09 -32.1,0 -58.1,-26 -58.1,-58.09 0,-32.1 26,-58.17 58.1,-58.17 32.14,0 58.18,26.07 58.18,58.17z"/>
   </g>
  </g>
  <polygon class="fil10" points="0.01,7915.01 5733.32,7915.01 5733.32,0 0.01,0 "/>
 </g>
</svg>
