<?xml version="1.0" encoding="UTF-8"?>
<!DOCTYPE svg PUBLIC "-//W3C//DTD SVG 1.1//EN" "http://www.w3.org/Graphics/SVG/1.1/DTD/svg11.dtd">
<!-- Creator: CorelDRAW 2018 (64-Bit) -->
<svg xmlns="http://www.w3.org/2000/svg" xml:space="preserve" width="67.7334mm" height="67.7334mm" version="1.1" style="shape-rendering:geometricPrecision; text-rendering:geometricPrecision; image-rendering:optimizeQuality; fill-rule:evenodd; clip-rule:evenodd"
viewBox="0 0 7563.63 7563.63"
 xmlns:xlink="http://www.w3.org/1999/xlink">
 <defs>
  <style type="text/css">
   <![CDATA[
    .str0 {stroke:#D33833;stroke-width:73.87;stroke-miterlimit:22.9256}
    .fil11 {fill:none}
    .fil0 {fill:#FEFEFE}
    .fil13 {fill:#1D1919}
    .fil3 {fill:#231F20}
    .fil5 {fill:#335061}
    .fil9 {fill:#49728B}
    .fil6 {fill:#6D6B6D}
    .fil12 {fill:#81B0C4}
    .fil1 {fill:#D33833}
    .fil7 {fill:#DCD9D8}
    .fil2 {fill:#EF3D3A}
    .fil4 {fill:#F0D6B7}
    .fil8 {fill:#F7E4CD}
    .fil10 {fill:white}
   ]]>
  </style>
   <clipPath id="id0">
    <path d="M1654.56 6736.36l4280.29 0 0 -5909.08 -4280.29 0 0 5909.08z"/>
   </clipPath>
 </defs>
 <g id="Слой_x0020_1">
  <metadata id="CorelCorpID_0Corel-Layer"/>
  <path class="fil0" d="M1772.73 0l4018.18 0c978.88,0 1772.73,793.85 1772.73,1772.73l0 4018.18c0,978.87 -793.85,1772.71 -1772.73,1772.71l-4018.18 0.01c-978.87,-0.01 -1772.71,-793.86 -1772.71,-1772.74l-0.01 -4018.17c0.01,-978.88 793.86,-1772.73 1772.74,-1772.73z"/>
  <g>
  </g>
  <g style="clip-path:url(#id0)">
   <g>
    <path class="fil1" d="M5861.87 3676.14c0,1170.18 -927.43,2118.82 -2071.49,2118.82 -1144.04,0 -2071.47,-948.64 -2071.47,-2118.82 0,-1170.21 927.43,-2118.86 2071.47,-2118.86 1144.06,0 2071.49,948.65 2071.49,2118.86z"/>
    <g>
     <path class="fil2" d="M1803.32 4200.9c0,0 -149.96,-2209.58 1886.05,-2272.72l-142.05 -236.75 -1104.78 370.9 -315.66 363 -276.19 528.74 -157.84 615.52 47.35 410.36 63.14 220.95zm0 0l0 0 0 0z"/>
    </g>
    <path class="fil3" d="M2371.6 2230.71c-363.44,371.88 -588.35,885.34 -588.35,1453.34 0,567.9 224.91,1081.39 588.35,1453.22 363.62,371.8 864.75,601.22 1418.76,601.22 554.03,0 1055.18,-229.42 1418.77,-601.22 363.43,-371.83 588.39,-885.32 588.39,-1453.22 0,-568.01 -224.95,-1081.47 -588.39,-1453.34 -363.59,-371.73 -864.74,-601.16 -1418.77,-601.21 -554.01,0.04 -1055.14,229.48 -1418.76,601.21zm-92 2996.5c-386.26,-395.02 -625.05,-940.97 -625.05,-1543.16 0,-602.31 238.79,-1148.19 625.05,-1543.24 386.17,-395.13 920.73,-640.03 1510.76,-639.96 590.05,-0.08 1124.64,244.83 1510.74,639.96 386.3,395.05 625.13,940.98 625.09,1543.24 0.03,602.19 -238.79,1148.13 -625.09,1543.16 -386.1,395.08 -920.69,639.98 -1510.74,639.98 -590.03,0 -1124.59,-244.9 -1510.76,-639.98z"/>
    <g>
     <path class="fil4" d="M4662.38 3687.89l-315.68 47.34 -426.14 47.36 -276.22 7.86 -268.27 -7.86 -205.2 -63.14 -181.53 -197.28 -142.03 -402.46 -31.56 -86.83 -189.4 -63.11 -110.48 -181.5 -78.9 -260.41 86.81 -228.86 205.17 -71.02 165.71 78.93 78.94 173.61 94.69 -15.79 31.56 -39.44 -31.56 -181.52 -7.92 -228.86 47.36 -315.64 -1.85 -180.31 143.91 -230.04 252.53 -181.52 441.91 -189.39 489.27 71.02 426.14 307.77 197.31 315.64 126.25 228.86 31.55 568.18 -94.69 489.28 -173.61 434.01 -165.71 228.86 -118.33 126.27zm0 0l0 0 0 0z"/>
    </g>
    <polygon class="fil5" points="4394.06,5053.07 3265.57,5100.43 3265.57,5289.81 3360.26,5952.69 3312.94,6007.95 2523.79,5739.62 2468.54,5644.93 2389.62,4753.21 2208.15,4216.61 2168.68,4090.33 2799.98,3656.3 2997.27,3577.39 3170.87,3790.45 3320.82,3924.61 3494.43,3979.86 3573.34,4003.52 3668.04,4413.88 3739.06,4500.69 3920.56,4437.55 3794.29,4682.18 4480.86,5005.74 "/>
    <polygon class="fil6" points="2523.79,2298.98 2728.95,2227.96 2894.67,2306.89 2973.6,2480.5 3068.29,2464.7 3091.96,2370 3044.63,2188.52 3091.96,1754.48 3052.49,1517.73 3194.55,1352.02 3502.31,1107.39 3415.51,989.02 2981.46,1202.08 2799.97,1344.13 2697.39,1565.08 2539.56,1778.15 2492.21,2030.68 "/>
    <path class="fil7" d="M2847.33 1557.2c0,0 118.36,-291.97 591.85,-434.02 473.49,-142.04 23.67,-102.6 23.67,-102.6l-512.92 197.29 -197.29 197.28 -86.8 157.83 181.49 -15.79z"/>
    <path class="fil7" d="M2610.58 2243.75c0,0 -165.73,-552.42 465.61,-631.32l-23.7 -94.69 -434.01 102.6 -126.27 410.35 31.58 268.3 86.79 -55.23z"/>
    <g>
     <path class="fil8" d="M2863.1 2977.65l103.31 -100.12c0,0 46.65,5.43 54.52,60.66 7.88,55.26 31.56,552.4 370.88,820.72 30.97,24.5 -252.49,-39.46 -252.49,-39.46l-252.55 -394.58 -23.67 -347.22zm0 0l0 0 0 0z"/>
    </g>
    <path class="fil8" d="M4315.18 2827.72c0,0 18.4,-239.2 82.81,-220.8 64.41,18.39 64.41,82.81 64.41,82.81 0,0 -156.45,101.2 -147.22,137.99z"/>
    <g>
     <path class="fil8" d="M4970.13 1951.77c0,0 -130.08,27.46 -142.05,142.05 -11.99,114.6 142.05,23.67 165.73,15.79l-23.67 -157.84zm0 0l0 0 0 0z"/>
    </g>
    <g>
     <path class="fil8" d="M4015.26 1959.68c0,0 -173.61,23.67 -173.61,134.15 0,110.48 197.31,102.6 252.53,55.25l-78.92 -189.4zm0 0l0 0 0 0z"/>
    </g>
    <path class="fil8" d="M2942.02 2472.61c0,0 -299.89,-181.52 -331.44,-7.88 -31.57,173.6 -102.61,299.87 47.35,481.37l-102.59 -31.56 -94.69 -244.63 -31.56 -236.75 181.49 -189.41 205.18 15.79 118.37 94.69 7.89 118.38z"/>
    <path class="fil8" d="M3084.07 1975.45c0,0 134.14,-694.43 812.83,-828.6 558.73,-110.44 852.24,23.67 962.73,149.94 0,0 -497.16,-591.84 -970.66,-410.35 -473.46,181.5 -820.68,512.95 -812.78,725.99 13.43,362.89 7.88,363.02 7.88,363.02z"/>
    <g>
     <path class="fil8" d="M4914.89 1375.69c0,0 -228.83,-7.88 -236.75,197.29 0,0 0,31.56 15.78,63.11 0,0 181.53,-205.18 291.99,-94.69l-71.02 -165.71zm0 0l0 0 0 0z"/>
    </g>
    <path class="fil8" d="M3912.79 1657.48c0,0 -39.39,-314.94 -307.89,-131.85 -173.61,118.37 -157.81,284.09 -126.29,315.65 31.59,31.58 22.99,95.15 47.05,51.51 23.99,-43.63 16.1,-185.67 102.9,-225.11 86.81,-39.46 229.13,-83.55 284.23,-10.21z"/>
    <path class="fil9" d="M3170.87 3790.45l-741.78 331.44c0,0 307.76,1223.17 149.93,1601.97l-110.48 -39.44 -7.89 -465.61 -205.14 -883.82 -86.82 -244.66 773.34 -520.8 228.85 220.91z"/>
    <g>
     <path class="fil9" d="M3247.13 4467.01l105.25 128.4 0 473.47 -126.27 0c0,0 -15.76,-331.42 -15.76,-370.88 0,-39.47 15.76,-181.53 15.76,-181.53l21.03 -49.46zm0 0l0 0 0 0z"/>
    </g>
    <g>
     <path class="fil9" d="M3249.79 5139.9l-355.11 15.78 102.6 71.03 252.51 39.44 0 -126.25zm0 0l0 0 0 0z"/>
    </g>
    <polygon class="fil5" points="4465.09,5060.98 4757.06,5053.1 4828.08,5779.12 4528.19,5818.56 "/>
    <path class="fil5" d="M4543.97 5060.98l441.94 -23.66c0,0 181.5,-457.71 181.5,-481.39 0,-23.66 157.83,-662.87 157.83,-662.87l-355.14 -370.89 -71 -63.14 -189.42 189.42 0 733.88 -165.71 678.65z"/>
    <g>
     <path class="fil9" d="M4741.24 5005.74l-276.15 55.24 39.44 220.98c102.58,47.36 276.19,-78.92 276.19,-78.92l-39.47 -197.31zm0 0l0 0 0 0z"/>
    </g>
    <polygon class="fil9" points="4749.16,3624.76 5301.57,4035.11 5317.35,3845.72 4899.11,3459.03 "/>
    <polygon class="fil10" points="3523.65,6615.67 3360.26,5952.69 3279.01,5463.51 3265.57,5100.43 4005.03,5061.05 4465.09,5060.98 4423.25,5889.65 4494.28,6528.87 4486.38,6647.22 3886.64,6694.58 "/>
    <g>
     <path class="fil7" d="M4362.48 5053.1c0,0 -39.45,820.71 78.94,1404.65 0,0 -236.75,149.97 -583.99,189.42l662.88 -23.7 78.92 -47.34 -94.69 -1294.17 -23.67 -276.22 -118.38 47.36zm0 0l0 0 0 0z"/>
    </g>
    <g>
     <path class="fil10" d="M4841.52 5716.04l307.78 -86.8 583.93 -31.56 86.8 -268.3 -157.83 -465.61 -181.46 -23.66 -252.56 78.92 -242.27 118.3 -128.61 -23.61 -100.24 39.39 84.47 662.94zm0 0l0 0 0 0z"/>
    </g>
    <g>
     <path class="fil7" d="M4835.97 5558.15c0,0 205.16,-94.69 236.75,-86.81l-86.81 -434.02 102.59 -39.44c0,0 71.02,410.32 71.02,457.68 0,0 441.91,23.67 481.35,23.67 0,0 94.69,-181.5 71.03,-370.92l86.8 252.56 7.89 142.02 -126.25 189.42 -142.05 31.55 -236.72 -7.88 -78.92 -102.58 -276.22 39.44 -86.8 31.58 -23.66 -126.27zm0 0l0 0 0 0z"/>
    </g>
    <path class="fil10" d="M4525.86 4997.93l-173.61 -441.91 -181.49 -260.44c0,0 39.44,-110.46 94.69,-110.46 55.24,0 181.49,0 181.49,0l173.61 63.14 -15.78 291.97 -78.92 457.71z"/>
    <g>
     <path class="fil7" d="M4559.77 4847.91c0,0 -220.97,-426.11 -220.97,-489.25 0,0 39.44,-94.69 94.69,-71.02 55.25,23.66 173.64,86.8 173.64,86.8l0 -149.94 -268.34 -55.25 -181.49 23.66 307.78 726.02 63.1 7.92 31.58 -78.94zm0 0l0 0 0 0z"/>
    </g>
    <g>
     <path class="fil10" d="M3594.67 3806.34l-218.6 -23.75 -205.2 -63.14 0 71 100.26 110.55 315.66 142.05 7.88 -236.71zm0 0l0 0 0 0z"/>
    </g>
    <path class="fil7" d="M3241.94 3830c0,0 244.63,102.59 323.55,78.92l7.86 94.6 -220.95 -47.24 -134.16 -94.69 23.7 -31.59z"/>
    <path class="fil1" d="M4840.66 4211.97c-133.9,-3.93 -254.88,-19.83 -360.78,-49.7 7.18,-43.43 -6.29,-86.03 4.52,-117.32 29.55,-21.25 79,-20.92 123.65,-25.92 -38.59,-18.96 -92.81,-26.47 -137.36,-15.51 -1.03,-30.13 -14.53,-48.81 -22.75,-72.38 75.29,-26.89 253.03,-203.03 352.98,-144.71 47.65,27.74 67.89,186.22 71.59,263.28 3.07,63.93 -5.83,128.41 -31.86,162.26z"/>
    <path class="fil11 str0" d="M4840.66 4211.97c-133.9,-3.93 -254.88,-19.83 -360.78,-49.7 7.18,-43.43 -6.29,-86.03 4.52,-117.32 29.55,-21.25 79,-20.92 123.65,-25.92 -38.59,-18.96 -92.81,-26.47 -137.36,-15.51 -1.03,-30.13 -14.53,-48.81 -22.75,-72.38 75.29,-26.89 253.03,-203.03 352.98,-144.71 47.65,27.74 67.89,186.22 71.59,263.28 3.07,63.93 -5.83,128.41 -31.86,162.26z"/>
    <path class="fil1" d="M4200.36 3993.09c-0.36,10.14 -0.8,20.33 -1.18,30.55 -41.81,27.48 -109.32,27.12 -155.21,50.23 67.66,2.96 120.9,19.24 166.97,42.19 -1.01,25.53 -1.98,51.03 -2.98,76.56 -76.64,52.44 -146.63,130.58 -236.87,179.79 -42.66,23.25 -192.37,83.14 -237.75,72.56 -25.71,-5.97 -28.01,-37.86 -38.26,-67.87 -21.9,-64.34 -72.24,-166.72 -76.64,-263.55 -5.59,-122.31 -17.93,-327.26 113.87,-302.09 106.33,20.29 230,69.28 312.32,114.25 50.32,27.5 79.42,61.52 155.73,67.39z"/>
    <path class="fil11 str0" d="M4200.36 3993.09c-0.36,10.14 -0.8,20.33 -1.18,30.55 -41.81,27.48 -109.32,27.12 -155.21,50.23 67.66,2.96 120.9,19.24 166.97,42.19 -1.01,25.53 -1.98,51.03 -2.98,76.56 -76.64,52.44 -146.63,130.58 -236.87,179.79 -42.66,23.25 -192.37,83.14 -237.75,72.56 -25.71,-5.97 -28.01,-37.86 -38.26,-67.87 -21.9,-64.34 -72.24,-166.72 -76.64,-263.55 -5.59,-122.31 -17.93,-327.26 113.87,-302.09 106.33,20.29 230,69.28 312.32,114.25 50.32,27.5 79.42,61.52 155.73,67.39l0 0z"/>
    <path class="fil1" d="M4276.47 4139.02c-11.7,-66.62 -25.2,-85.62 -19.98,-143.76 177.65,-118.46 211.02,203.47 19.98,143.76z"/>
    <path class="fil11 str0" d="M4276.47 4139.02c-11.7,-66.62 -25.2,-85.62 -19.98,-143.76 177.65,-118.46 211.02,203.47 19.98,143.76z"/>
    <g>
     <path class="fil2" d="M4533.74 4193c0,0 -55.28,-78.92 -15.8,-102.58 39.47,-23.7 78.95,0.02 102.61,-39.44 23.66,-39.47 0,-63.15 7.88,-110.51 7.86,-47.32 47.37,-55.25 86.81,-63.14 39.44,-7.88 149.94,-23.66 165.71,15.81l-47.36 -142.06 -94.69 -31.55 -299.88 173.61 -15.78 86.8 0 173.61 110.5 39.44zm0 0l0 0 0 0z"/>
    </g>
    <g>
     <path class="fil2" d="M3705.15 4453.44c-9.48,-123.17 -19.5,-246.14 -30.66,-369.2 -16.73,-183.72 44.11,-151.66 203.36,-151.66 24.31,0 149.77,29.01 158.75,47.36 43.01,87.89 -71.97,68.36 49.58,134.67 102.58,55.92 283.84,-33.98 242.39,-158.33 -23.19,-27.66 -120.87,-8.63 -155.91,-26.8 -61.63,-31.94 -123.29,-63.91 -184.92,-95.88 -78.45,-40.68 -259.74,-100.01 -343.34,-43.16 -211.9,144.12 13.34,504.19 88.95,654.52l-28.18 8.48zm0 0l0 0 0 0z"/>
    </g>
    <path class="fil3" d="M3912.79 1657.48c-215.09,-50.09 -321.96,90 -387.16,235.32 -58.2,-14.1 -35.04,-93.28 -20.32,-133.61 38.49,-105.87 193.63,-246.81 320.42,-227.7 54.54,8.22 128.37,58.1 87.07,125.99z"/>
    <path class="fil3" d="M4960.77 1902.42c3.39,0.15 6.82,0.26 10.2,0.4 48.63,100.97 90.67,207.94 152,297.06 -41.09,95.68 -311.05,180.33 -306.89,8.55 58.38,-25.53 159.19,-5.21 210.93,-37.81 -29.94,-82.12 -73.1,-152.04 -66.24,-268.2z"/>
    <path class="fil3" d="M4022.91 1905.04c46.12,84.54 61.13,173.36 126.69,237.27 29.52,28.75 86.92,63.82 58.47,143.82 -6.64,18.87 -55.24,60.94 -83.32,69.2 -102.47,30.25 -341.28,6.24 -260.41,-121.53 84.77,3.95 198.69,55.05 262.04,-6.48 -48.66,-77.78 -135.37,-231.63 -103.47,-322.28z"/>
    <path class="fil3" d="M4922.3 2764.28c-154.31,99.12 -326.36,206.9 -579.21,181.91 -54.04,-46.97 -74.63,-151.49 -22.13,-220.52 27.3,46.97 10.14,133.35 86.27,146.35 143.47,24.56 310.46,-87.76 413.64,-127.01 64,-107.88 -5.49,-147.56 -63.14,-216.99 -118.04,-142.26 -276.34,-318.59 -270.58,-531.56 47.68,-34.59 51.82,52.8 58.65,68.7 61.63,144.23 216.71,328.67 329.9,452.11 27.81,30.4 73.57,59.56 78.66,79.66 14.68,58.45 -38.21,128.48 -32.06,167.36z"/>
    <path class="fil3" d="M2888.02 2659.91c-48.37,-27.6 -59.89,-149.19 -116.67,-152.65 -81.15,-4.92 -66.35,157.74 -66.02,252.87 -55.87,-50.71 -65.68,-206.84 -24.66,-287.03 -46.76,-22.96 -67.65,25.34 -93.59,42.36 33.34,-242.18 354.29,-112.34 300.93,144.45z"/>
    <path class="fil3" d="M5020.54 2865.13c-71.82,136.73 -173.43,287.29 -384.2,291.65 -4.29,-44.13 -7.57,-111.32 0.23,-137.91 161.14,-15.49 260.62,-97.5 383.97,-153.74z"/>
    <path class="fil3" d="M4010.77 2953.77c134.43,70.69 381.49,78.28 564.19,72.93 9.82,40.03 9.58,89.49 9.96,138.3 -234.88,11.73 -512.59,-46.39 -574.15,-211.23z"/>
    <path class="fil3" d="M3985.21 3085.58c92.97,233.41 412.48,206.52 681.91,200.11 -11.85,30.28 -37.59,66.1 -69.52,79.04 -86.36,35.13 -324.5,61.77 -444.36,-1.86 -75.99,-40.41 -124.87,-131.75 -166.49,-185.25 -20.12,-25.85 -120.29,-91.89 -1.54,-92.04z"/>
    <path class="fil12" d="M4911.07 4373.05c-109.08,186.84 -213.46,378.74 -342.9,543.54 54.27,-159.54 77.5,-426.57 85.68,-630.14 113.51,-53.12 210.75,11.96 257.22,86.6z"/>
    <path class="fil3" d="M5498.11 5044.59c-122.13,24.43 -207.97,143.15 -327.1,135.52 65.48,-92.29 180.23,-131.23 327.1,-135.52z"/>
    <path class="fil3" d="M5551.97 5235.72c-99.54,10.52 -216.48,26.64 -317.44,18.31 47.8,-73.01 231.96,-47.8 317.44,-18.31z"/>
    <path class="fil3" d="M5586.48 5400.52c-111.89,2.42 -250.96,0.18 -357.29,-8.74 62.9,-67.57 284.73,-25.06 357.29,8.74z"/>
    <path class="fil7" d="M4700.56 5851.48c16.05,140.51 71.77,282.89 64.77,436.77 -61.84,20.86 -97.39,39.12 -180.27,38.99 -5.85,-130.76 -23.34,-330.69 -18.11,-455.38 40.75,2.72 100.87,-29.1 133.61,-20.38z"/>
    <path class="fil4" d="M4520.19 3780.67c-56.17,36.66 -104.03,82.46 -157.98,121.61 -119.63,5.91 -184.93,-8.3 -272.86,-76.99 1.45,-5.53 10.28,-3.04 10.61,-9.8 128.08,57.07 290.91,-23.26 420.23,-34.81z"/>
    <path class="fil12" d="M3847.82 4653.71c35.19,-152.49 173.07,-231.46 298.29,-315.43 129.23,164.03 207.86,374.96 294.39,578.49 -204.49,-61.63 -413.46,-161.67 -592.68,-263.07z"/>
    <path class="fil3" d="M4566.95 5871.86c-5.23,124.69 12.26,324.62 18.11,455.38 82.88,0.12 118.42,-18.13 180.27,-38.99 7,-153.88 -48.72,-296.25 -64.77,-436.77 -32.74,-8.72 -92.86,23.1 -133.61,20.38l0 0zm-1290.6 -709c54.66,502.45 133.84,924.8 279.02,1369.73 322.23,97.82 710.69,106.36 995.51,18.08 -52.29,-251.13 -29.42,-556.84 -60.01,-824.81 -23.04,-201.42 -11.28,-404.07 -42.87,-609.56 -345.12,-71.79 -832.94,-16.77 -1171.65,46.57l0 0zm1253.26 -43.43c-2.93,215.8 9.66,428.65 26.15,644.71 82.85,-12.44 139.07,-20.75 216.07,-37.62 -25,-207.99 -21.93,-442.06 -72.86,-626.07 -58.86,0.56 -110.67,-0.68 -169.36,18.97l0 0zm420.34 -34.77c-39.32,-9.01 -85.11,-0.36 -122.67,0.38 17.63,175.91 60.5,370 75.58,554.65 59.12,1.83 90.71,-26.05 139.34,-35.42 2.59,-162.09 -14.18,-385.39 -92.25,-519.61l0 0zm636.44 581.51c123.24,-29.93 200.73,-180.85 166.25,-335.84 -23.13,-104.17 -64.32,-300.3 -108.4,-366.95 -32.6,-49.29 -120.9,-113.81 -191.43,-68.66 -114.72,73.48 -316.85,94.81 -400.49,183.7 41.93,139.7 54.95,331.56 72.27,508.53 143.33,8.93 319.68,-39.44 438.87,11.88 -83.23,26.98 -191.19,27.18 -263.1,66.48 58.76,28.36 196.32,22.64 286.03,0.86l0 0zm-1145.89 -749.39c-86.53,-203.54 -165.16,-414.47 -294.39,-578.49 -125.21,83.96 -263.1,162.93 -298.29,315.43 179.22,101.39 388.19,201.44 592.68,263.07zm213.35 -630.32c-8.19,203.57 -31.41,470.6 -85.68,630.14 129.43,-164.8 233.82,-356.7 342.9,-543.54 -46.5,-74.64 -143.71,-139.72 -257.22,-86.6l0 0zm-241.86 -85.95c-49.01,-5.26 -90.64,56.37 -154.4,29.73 -14.59,16.16 -27.89,33.65 -42.78,49.4 140.81,169.7 204.81,410.47 313.56,609.91 58.38,-191.58 51.65,-401.47 64.5,-610.53 -80.19,5.08 -124.69,-72.53 -180.88,-78.5zm-155.5 -205.25c-5.23,58.11 8.27,77.14 19.98,143.76 191.04,59.71 157.67,-262.22 -19.98,-143.76zm-211.87 -69.56c-82.32,-44.97 -205.99,-93.96 -312.32,-114.25 -131.8,-25.2 -119.46,179.79 -113.87,302.09 4.4,96.83 54.74,199.2 76.64,263.55 10.25,30.02 12.55,61.9 38.24,67.87 45.4,10.57 195.12,-49.31 237.77,-72.56 90.24,-49.2 160.23,-127.35 236.87,-179.79 1.01,-25.53 1.98,-51.03 2.98,-76.56 -46.06,-22.95 -99.31,-39.23 -166.97,-42.19 45.88,-23.1 113.4,-22.75 155.21,-50.23 0.38,-10.22 0.83,-20.41 1.18,-30.55 -76.35,-5.87 -105.41,-39.89 -155.73,-67.39l0 0zm-786.33 -142.82c-68.31,69.38 191.63,163.92 274.42,169 -0.47,-43.87 24.99,-85.26 19.89,-116.76 -98.3,-17.25 -227.5,-5.85 -294.31,-52.24l0 0zm841.66 32.6c-0.32,6.77 -9.16,4.28 -10.61,9.8 87.93,68.7 153.2,82.9 272.86,76.99 53.95,-39.15 101.81,-84.95 157.98,-121.61 -129.32,11.55 -292.15,91.88 -420.23,34.81l0 0zm772.56 234.23c-3.7,-77.06 -23.94,-235.54 -71.57,-263.28 -99.98,-58.36 -277.72,117.82 -353,144.71 8.22,23.57 21.72,42.26 22.75,72.38 44.56,-10.95 98.77,-3.45 137.36,15.51 -44.64,5 -94.1,4.67 -123.65,25.92 -10.81,31.29 2.66,73.89 -4.52,117.32 105.89,29.87 226.88,45.77 360.78,49.7 26.03,-33.86 34.93,-98.33 31.86,-162.26l0 0zm-1729.24 -199.73c-21.45,-15.31 -166.57,-204.16 -186.46,-196.3 -262.64,103.56 -508.21,282.66 -727.66,452.04 209.23,448.97 293.69,999.02 308.62,1529.16 239.68,112.13 450.19,273.71 775.45,290.58 -37.64,-266.26 -72,-503.84 -93.37,-754.56 -81.72,-34.45 -198.96,1.56 -275.44,-10.66 -0.65,-92.18 116.78,-40.36 126.6,-102.34 7.35,-46.89 -64.66,-50.44 -41.19,-124.24 59.78,21.72 91.18,69.73 154.94,87.75 58.27,-127.46 -0.79,-352.98 7.59,-459.52 1.6,-20 9.98,-110.8 54.77,-94.86 39.69,14.09 -2.24,241.5 2.1,342.34 3.96,92.89 -11.22,182.8 26.39,241.09 314.3,-42.78 633.66,-70.41 973.73,-79.74 -74.82,-32.12 -163.68,-62.49 -261.12,-117.42 -52.83,-29.78 -219.35,-91.74 -234.59,-141.91 -24.32,-79.94 63.82,-122.52 78.88,-191.06 -158.62,86.53 -189.59,-82.94 -227.11,-202.98 -34.01,-108.73 -53.37,-189.95 -61.7,-252.67 -136.67,-65.15 -282.78,-131.13 -400.43,-214.68l0 0zm1590.43 -173.46c218.82,-106.1 258.27,396.57 172.49,558.49 13.27,48.31 58.85,66.78 77.46,110.2 -122.11,218.76 -257.75,422.94 -382.35,639.1 92.68,-57.67 225.08,-10.31 334.13,-53.5 39.89,-15.75 68.75,-107.01 98.92,-180.02 83.02,-200.88 170.22,-454.14 208.97,-645.84 8.78,-43.66 32.62,-138.83 27.28,-177.71 -9.55,-69.61 -103.97,-121.19 -152.01,-164.24 -88.5,-79.51 -144.22,-149.48 -236.55,-223.82 -37.4,55.29 -117.73,92.39 -148.35,137.33l0 0zm-2090.86 -1940.53c-104.26,114.73 -82.44,329.69 -69.81,482.62 188.46,-118.56 438.62,9.38 436.25,211.04 89.97,-2.4 33.62,-112.38 17.34,-183.25 -53.21,-231.43 89.61,-482.87 6.48,-694.53 -161.43,12.24 -294.03,78.18 -390.26,184.12l0 0zm746.07 -665.86c-236.08,66.91 -538.58,238.42 -635.58,450.48 75.11,-10.92 127.25,-48.8 201.35,-53.49 27.97,-1.82 64.68,11.75 96.85,3.74 64.14,-15.9 118.27,-159.7 166.66,-213.21 47.16,-52.25 103.85,-74.57 142.64,-122.2 24.91,-12.04 61.79,-11.2 63.17,-48.63 -10.79,-11.56 -22.15,-20.37 -35.1,-16.69l0 0zm1228.76 62.92c-245.02,-138.23 -659.72,-242.21 -920.33,-112.28 -210.28,104.84 -494.57,278.33 -591.47,498.17 90.55,212.15 -26.8,406.54 -34.3,621.92 -3.99,114.6 53.95,214.66 58.41,339.41 -31,51.12 -125.66,57.42 -191.16,53.91 -22.05,-110.37 -60.67,-234.42 -174.32,-246.88 -160.81,-17.59 -278.4,115.51 -285.7,254.59 -8.65,163.56 125.63,434.66 315.94,415.83 73.52,-7.26 91.58,-80.96 171.68,-80.2 43.44,86.62 -66.96,113.82 -78.32,175.79 -2.95,16.01 9.16,78.56 16.2,107.87 34.57,142.85 111.65,327.69 187.49,436.41 96.26,137.92 285.4,158.72 488.88,172.25 36.35,-78.29 170.22,-71.85 257.46,-51.38 -104.57,-41.42 -201.74,-141.78 -282.31,-230.63 -92.51,-101.96 -186.23,-211.31 -190.99,-344.53 174.85,242.56 319.3,454.38 637.24,561.1 240.59,80.69 521.53,-37 706.4,-166.79 76.7,-53.95 122.5,-139.57 177,-217.92 204.02,-293.45 299.18,-712.29 278.26,-1118.26 -8.63,-167.42 -8.25,-334.28 -64.41,-446.92 -58.71,-117.78 -257.28,-223.16 -373.55,-116.61 -21.53,-114.54 96.68,-185.37 235.51,-144.15 -99,-127.77 -202.89,-281.3 -343.61,-360.71l0 0zm456.45 3777.64c191.45,-95.2 549.19,-256.19 669.2,0.36 44.29,94.54 96.26,254.38 119.22,352 32.41,137.71 -35.16,427.14 -176.68,473.38 -125.03,40.8 -270.91,38.31 -421.5,8.06 -17.76,-14.74 -37.49,-40.48 -51.29,-67.27 -107.51,-4.18 -208.2,5.78 -293.15,49.98 8.04,79.51 -45.74,92.27 -96.17,108.68 -37.38,148.19 74.78,341.78 47.95,476.92 -19.17,96.28 -137.62,111.18 -224.69,129.2 -2.87,53.51 3.81,98.18 9.75,143.44 -19.92,73.37 -109.23,115.12 -193.82,125.37 -278.41,33.47 -701.08,48.51 -968.85,-47.78 -74.72,-183.29 -133.58,-406.21 -195.83,-615.49 -261.15,27.89 -472.37,-112.68 -671.49,-204.78 -68.93,-31.97 -164.31,-49.58 -190.06,-104.44 -24.98,-53.15 -14.75,-154.96 -20.95,-251.13 -15.77,-245.68 -29.27,-482.63 -94.15,-734.18 -29.12,-112.86 -79.9,-212.49 -115.32,-321.25 -32.73,-100.78 -89.93,-225.37 -104.84,-325.88 -22.12,-149 118.17,-157.27 207.87,-221.83 138.67,-99.84 247.51,-155.06 397.69,-245.14 44.48,-26.68 178.62,-94.21 193.88,-125.34 30.34,-61.69 -52.06,-148.64 -74.09,-196.97 -34.84,-76.44 -53.01,-141.38 -58.01,-216.8 -125.97,-19.92 -221.48,-94.91 -279.17,-179.44 -95.42,-139.91 -161.61,-398.77 -79.04,-595.66 6.48,-15.51 38.77,-46.01 43.53,-69.83 9.4,-46.89 -17.68,-109.26 -19.36,-159.14 -8.68,-255.92 43.3,-476.42 215.59,-553.59 69.94,-278.62 320.27,-371.26 556.11,-509.73 88.16,-51.75 185.33,-84.82 285.7,-121.76 360.04,-132.5 912.46,-107.55 1211.27,118.45 126.7,95.83 329.23,298.18 401.68,444.67 191.33,386.76 177.74,1033.14 43.93,1503.62 -17.99,63.17 -44.09,156.03 -80.51,231.9 -25.4,52.98 -104.35,158.98 -94.78,205.78 9.87,48.36 180.02,177.54 216.51,212.73 65.68,63.38 190.51,147.49 200.61,227.48 10.88,85.09 -37.49,201.53 -62.02,283.66 -81.9,274.07 -161.82,527.42 -254.7,771.76z"/>
    <path class="fil8" d="M3796.86 3013.45c10.36,-13.82 67.48,-34.8 147.37,3.67 0,0 -94.69,15.77 -86.8,173.67l-39.47 -7.92c0,0 -40.77,-143.15 -21.09,-169.42z"/>
    <path class="fil13" d="M4488.75 4370.51c0,23.96 -19.44,43.37 -43.41,43.37 -23.96,0 -43.41,-19.41 -43.41,-43.37 0,-23.96 19.44,-43.43 43.41,-43.43 23.96,0 43.41,19.46 43.41,43.43z"/>
    <path class="fil13" d="M4532.16 4571.74c0,23.96 -19.44,43.37 -43.44,43.37 -23.96,0 -43.37,-19.41 -43.37,-43.37 0,-23.96 19.41,-43.43 43.37,-43.43 24,0 43.44,19.46 43.44,43.43z"/>
   </g>
  </g>
  <polygon class="fil11" points="1654.56,6736.36 5934.85,6736.36 5934.85,827.28 1654.56,827.28 "/>
 </g>
</svg>
