<?xml version="1.0" encoding="UTF-8"?>
<!DOCTYPE svg PUBLIC "-//W3C//DTD SVG 1.1//EN" "http://www.w3.org/Graphics/SVG/1.1/DTD/svg11.dtd">
<!-- Creator: CorelDRAW 2018 (64-Bit) -->
<svg xmlns="http://www.w3.org/2000/svg" xml:space="preserve" width="67.7334mm" height="67.7334mm" version="1.1" style="shape-rendering:geometricPrecision; text-rendering:geometricPrecision; image-rendering:optimizeQuality; fill-rule:evenodd; clip-rule:evenodd"
viewBox="0 0 5038.32 5038.32"
 xmlns:xlink="http://www.w3.org/1999/xlink">
 <defs>
  <style type="text/css">
   <![CDATA[
    .fil0 {fill:#FEFEFE}
    .fil1 {fill:#2684FF}
    .fil2 {fill:url(#id0)}
    .fil3 {fill:url(#id1)}
   ]]>
  </style>
  <linearGradient id="id0" gradientUnits="userSpaceOnUse" x1="3405.94" y1="2755.62" x2="2679.89" y2="3513">
   <stop offset="0" style="stop-opacity:1; stop-color:#0052CC"/>
   <stop offset="0.180392" style="stop-opacity:1; stop-color:#0052CC"/>
   <stop offset="1" style="stop-opacity:1; stop-color:#2684FF"/>
  </linearGradient>
  <linearGradient id="id1" gradientUnits="userSpaceOnUse" xlink:href="#id0" x1="2604.78" y1="3536.83" x2="1765.13" y2="4362.96">
  </linearGradient>
 </defs>
 <g id="Слой_x0020_1">
  <metadata id="CorelCorpID_0Corel-Layer"/>
  <path class="fil0" d="M1180.86 0l2676.61 0c652.06,0 1180.86,528.8 1180.86,1180.86l0 2676.61c0,652.05 -528.8,1180.85 -1180.86,1180.85l-2676.61 0.01c-652.05,-0.01 -1180.85,-528.81 -1180.85,-1180.86l-0.01 -2676.6c0.01,-652.06 528.81,-1180.86 1180.86,-1180.86z"/>
  <g id="_2381294601456">
   <path class="fil1" d="M4145.5 803.38l-1716.94 0c0,427.98 347.07,775.05 775.05,775.05l316.28 0 0 305.38c0.28,427.66 346.89,774.28 774.55,774.57l0 -1706.05c0,-82.24 -66.66,-148.95 -148.95,-148.95z"/>
   <path class="fil2" d="M3295.97 1658.87l-1716.92 0c0.26,427.66 346.88,774.28 774.55,774.57l316.28 0 0 306.35c0.54,427.66 347.4,774.05 775.06,774.05l0 -1706c0,-82.26 -66.69,-148.96 -148.96,-148.96l0 -0.01z"/>
   <path class="fil3" d="M2445.94 2513.87l-1716.94 0c0,428.05 347.01,775.06 775.05,775.06l317.27 0 0 305.36c0.28,427.27 346.29,773.74 773.58,774.55l0 -1706c0,-82.27 -66.69,-148.96 -148.96,-148.96z"/>
  </g>
 </g>
</svg>
