<?xml version="1.0" encoding="UTF-8"?>
<!DOCTYPE svg PUBLIC "-//W3C//DTD SVG 1.1//EN" "http://www.w3.org/Graphics/SVG/1.1/DTD/svg11.dtd">
<!-- Creator: CorelDRAW 2018 (64-Bit) -->
<svg xmlns="http://www.w3.org/2000/svg" xml:space="preserve" width="67.7334mm" height="67.7334mm" version="1.1" style="shape-rendering:geometricPrecision; text-rendering:geometricPrecision; image-rendering:optimizeQuality; fill-rule:evenodd; clip-rule:evenodd"
viewBox="0 0 5038.32 5038.32"
 xmlns:xlink="http://www.w3.org/1999/xlink">
 <defs>
  <style type="text/css">
   <![CDATA[
    .fil0 {fill:#FEFEFE}
    .fil1 {fill:#2684FF}
    .fil3 {fill:url(#id0)}
    .fil2 {fill:url(#id1)}
   ]]>
  </style>
  <linearGradient id="id0" gradientUnits="userSpaceOnUse" x1="2624.96" y1="3599.93" x2="1670.45" y2="4539.07">
   <stop offset="0" style="stop-opacity:1; stop-color:#0052CC"/>
   <stop offset="0.180392" style="stop-opacity:1; stop-color:#0052CC"/>
   <stop offset="1" style="stop-opacity:1; stop-color:#2684FF"/>
  </linearGradient>
  <linearGradient id="id1" gradientUnits="userSpaceOnUse" xlink:href="#id0" x1="3535.71" y1="2711.87" x2="2710.34" y2="3572.84">
  </linearGradient>
 </defs>
 <g id="Слой_x0020_1">
  <metadata id="CorelCorpID_0Corel-Layer"/>
  <path class="fil0" d="M1180.86 0l2676.61 0c652.06,0 1180.86,528.8 1180.86,1180.86l0 2676.61c0,652.05 -528.8,1180.85 -1180.86,1180.85l-2676.61 0.01c-652.05,-0.01 -1180.85,-528.81 -1180.85,-1180.86l-0.01 -2676.6c0.01,-652.06 528.81,-1180.86 1180.86,-1180.86z"/>
  <g id="_2381431004512">
   <path class="fil1" d="M4376.43 492.57l-1951.8 0c0,486.52 394.55,881.08 881.07,881.08l359.55 0 0 347.15c0.32,486.16 394.34,880.2 880.51,880.52l0 -1939.42c0,-93.49 -75.78,-169.32 -169.32,-169.32z"/>
   <path class="fil2" d="M3410.68 1465.09l-1951.78 0c0.3,486.16 394.33,880.2 880.51,880.52l359.55 0 0 348.26c0.62,486.16 394.91,879.93 881.07,879.93l0 -1939.36c0,-93.52 -75.81,-169.34 -169.34,-169.34l0 -0.01z"/>
   <path class="fil3" d="M2444.38 2437.05l-1951.81 0c0,486.6 394.48,881.07 881.08,881.07l360.67 0 0 347.13c0.32,485.72 393.66,879.58 879.39,880.51l0 -1939.37c0,-93.52 -75.81,-169.34 -169.33,-169.34z"/>
  </g>
 </g>
</svg>
