<?xml version="1.0" encoding="UTF-8"?>
<!DOCTYPE svg PUBLIC "-//W3C//DTD SVG 1.1//EN" "http://www.w3.org/Graphics/SVG/1.1/DTD/svg11.dtd">
<!-- Creator: CorelDRAW 2018 (64-Bit) -->
<svg xmlns="http://www.w3.org/2000/svg" xml:space="preserve" width="67.7334mm" height="67.7334mm" version="1.1" style="shape-rendering:geometricPrecision; text-rendering:geometricPrecision; image-rendering:optimizeQuality; fill-rule:evenodd; clip-rule:evenodd"
viewBox="0 0 6719 6719"
 xmlns:xlink="http://www.w3.org/1999/xlink">
 <defs>
  <style type="text/css">
   <![CDATA[
    .fil3 {fill:none}
    .fil0 {fill:#FEFEFE}
    .fil1 {fill:#25A162}
    .fil2 {fill:#DC524A}
   ]]>
  </style>
   <clipPath id="id0">
    <path d="M3359.5 818.77c1410.49,0 2553.93,1137.52 2553.93,2540.73 0,1403.21 -1143.44,2540.73 -2553.93,2540.73 -1410.5,0 -2553.93,-1137.52 -2553.93,-2540.73 0,-1403.21 1143.43,-2540.73 2553.93,-2540.73zm-11.81 2088.02c347.44,0 622.31,91.99 825.25,275.72 202.72,183.95 304.2,434.57 304.2,752.26 0,367.9 -115.61,655.43 -346.6,862.8 -229.52,206.1 -556.5,309.04 -980.94,309.04 -385.2,0 -687.71,-62.02 -907.73,-186.26l0 -502.07c137.55,76.19 285.21,132.52 438.57,167.29 164.96,39.23 318.33,59.06 459.87,59.06 249.77,0 440.05,-55.9 570.43,-167.5 130.57,-111.81 195.76,-275.09 195.76,-490.46 0,-411.78 -262.64,-617.88 -787.48,-617.88 -73.84,0 -165.18,8.02 -273.62,23.63 -108.42,14.13 -203.56,30.58 -285.2,49.57l-247.66 -146.19 132.05 -1683.41 1792.05 0 0 492.57 -1303.9 0 -78.05 853.53c55.27,-9.28 121.93,-20.26 200.41,-32.91 80.16,-12.66 177.83,-18.99 292.59,-18.99l0 0.21z"/>
   </clipPath>
 </defs>
 <g id="Слой_x0020_1">
  <metadata id="CorelCorpID_0Corel-Layer"/>
  <path class="fil0" d="M1574.76 0l3569.47 0c869.57,0 1574.76,705.2 1574.76,1574.76l0 3569.47c0,869.56 -705.2,1574.75 -1574.76,1574.75l-3569.47 0.01c-869.56,-0.01 -1574.75,-705.21 -1574.75,-1574.77l-0.01 -3569.46c0.01,-869.57 705.21,-1574.76 1574.77,-1574.76z"/>
  <path class="fil1" d="M3359.5 818.77c1410.49,0 2553.93,1137.52 2553.93,2540.73 0,1403.21 -1143.44,2540.73 -2553.93,2540.73 -1410.5,0 -2553.93,-1137.52 -2553.93,-2540.73 0,-1403.21 1143.43,-2540.73 2553.93,-2540.73zm-11.81 2088.02c347.44,0 622.31,91.99 825.25,275.72 202.72,183.95 304.2,434.57 304.2,752.26 0,367.9 -115.61,655.43 -346.6,862.8 -229.52,206.1 -556.5,309.04 -980.94,309.04 -385.2,0 -687.71,-62.02 -907.73,-186.26l0 -502.07c137.55,76.19 285.21,132.52 438.57,167.29 164.96,39.23 318.33,59.06 459.87,59.06 249.77,0 440.05,-55.9 570.43,-167.5 130.57,-111.81 195.76,-275.09 195.76,-490.46 0,-411.78 -262.64,-617.88 -787.48,-617.88 -73.84,0 -165.18,8.02 -273.62,23.63 -108.42,14.13 -203.56,30.58 -285.2,49.57l-247.66 -146.19 132.05 -1683.41 1792.05 0 0 492.57 -1303.9 0 -78.05 853.53c55.27,-9.28 121.93,-20.26 200.41,-32.91 80.16,-12.66 177.83,-18.99 292.59,-18.99l0 0.21z"/>
  <g style="clip-path:url(#id0)">
   <g id="_2381441213008">
    <polygon id="1" class="fil2" points="4236.64,2104.96 4236.64,684.96 1265.46,-61.81 -582.5,3861.92 809.79,6469.3 2241.87,6083.26 2241.87,4418.28 2676.73,4823.87 3562.74,4836.52 4043.71,4254.29 3980.42,3406.26 2986.82,3165.77 2550.16,3032.87 2721.02,1982.32 "/>
   </g>
  </g>
  <path class="fil3" d="M3359.5 818.77c1410.49,0 2553.93,1137.52 2553.93,2540.73 0,1403.21 -1143.44,2540.73 -2553.93,2540.73 -1410.5,0 -2553.93,-1137.52 -2553.93,-2540.73 0,-1403.21 1143.43,-2540.73 2553.93,-2540.73zm-11.81 2088.02c347.44,0 622.31,91.99 825.25,275.72 202.72,183.95 304.2,434.57 304.2,752.26 0,367.9 -115.61,655.43 -346.6,862.8 -229.52,206.1 -556.5,309.04 -980.94,309.04 -385.2,0 -687.71,-62.02 -907.73,-186.26l0 -502.07c137.55,76.19 285.21,132.52 438.57,167.29 164.96,39.23 318.33,59.06 459.87,59.06 249.77,0 440.05,-55.9 570.43,-167.5 130.57,-111.81 195.76,-275.09 195.76,-490.46 0,-411.78 -262.64,-617.88 -787.48,-617.88 -73.84,0 -165.18,8.02 -273.62,23.63 -108.42,14.13 -203.56,30.58 -285.2,49.57l-247.66 -146.19 132.05 -1683.41 1792.05 0 0 492.57 -1303.9 0 -78.05 853.53c55.27,-9.28 121.93,-20.26 200.41,-32.91 80.16,-12.66 177.83,-18.99 292.59,-18.99l0 0.21z"/>
 </g>
</svg>
