<?xml version="1.0" encoding="UTF-8"?>
<!DOCTYPE svg PUBLIC "-//W3C//DTD SVG 1.1//EN" "http://www.w3.org/Graphics/SVG/1.1/DTD/svg11.dtd">
<!-- Creator: CorelDRAW 2018 (64-Bit) -->
<svg xmlns="http://www.w3.org/2000/svg" xml:space="preserve" width="67.7334mm" height="67.7334mm" version="1.1" style="shape-rendering:geometricPrecision; text-rendering:geometricPrecision; image-rendering:optimizeQuality; fill-rule:evenodd; clip-rule:evenodd"
viewBox="0 0 2025.3 2025.3"
 xmlns:xlink="http://www.w3.org/1999/xlink">
 <defs>
  <style type="text/css">
   <![CDATA[
    .fil0 {fill:#FEFEFE}
    .fil3 {fill:#212121}
    .fil2 {fill:#263238}
    .fil6 {fill:#455A64}
    .fil5 {fill:#634703}
    .fil1 {fill:#ECEFF1}
    .fil4 {fill:#FFC107}
   ]]>
  </style>
 </defs>
 <g id="Слой_x0020_1">
  <metadata id="CorelCorpID_0Corel-Layer"/>
  <path class="fil0" d="M474.68 0l1075.94 0c262.11,0 474.68,212.57 474.68,474.68l0 1075.94c0,262.11 -212.57,474.68 -474.68,474.68l-1075.94 0c-262.11,-0 -474.68,-212.57 -474.68,-474.68l-0 -1075.94c0,-262.11 212.57,-474.68 474.68,-474.68z"/>
  <polygon class="fil1" points="679.97,1581.68 874.04,1689.43 1167.52,1689.43 1442.06,1483.3 1565.13,1160.05 1281.12,818.07 1200.66,626 807.78,640.05 812.51,747.8 736.77,888.34 618.44,1117.9 594.77,1309.97 "/>
  <path class="fil2" d="M1479.93 907.08c-75.74,-107.75 -137.27,-173.33 -170.4,-309.19 -33.13,-135.86 9.47,-98.38 -18.93,-215.5 -14.2,-60.9 -37.87,-103.06 -61.53,-135.86 -28.4,-32.79 -61.53,-51.53 -80.47,-56.22 -42.59,-23.42 -142,-60.9 -265.07,4.69 -127.81,65.59 -113.61,206.13 -89.94,491.9 0,18.74 -4.73,42.16 -14.2,60.9 -18.94,42.16 -52.07,79.64 -80.47,112.44 -33.13,46.84 -66.27,93.7 -89.94,145.22 -56.8,107.75 -108.87,243.6 -94.67,295.14 23.67,-4.68 321.88,445.05 321.88,454.42 18.93,-4.68 99.4,-4.68 170.4,-4.68 99.41,-4.68 156.2,-9.37 236.67,9.37 0,-14.05 -4.74,-28.11 -4.74,-42.16 0,-28.11 4.74,-51.53 9.47,-84.33 4.73,-23.42 9.47,-46.84 14.2,-74.95 -47.33,42.16 -132.54,89.01 -213.01,103.06 -71,14.05 -189.34,-9.37 -246.14,-79.64 4.74,0 14.2,0 18.94,-4.68 14.2,-4.68 28.4,-9.37 33.13,-18.73 14.2,-23.43 4.73,-46.85 -4.73,-60.9 -9.47,-14.06 -80.47,-65.59 -113.61,-93.7 -33.13,-28.11 -52.07,-42.17 -71,-60.9 0,0 -28.4,-28.11 -37.87,-37.48 -9.47,-9.37 -14.2,-18.74 -18.93,-23.43 -9.47,-23.42 -14.2,-51.53 -9.47,-89 4.73,-51.53 23.67,-93.7 47.34,-140.54 9.47,-18.74 33.13,-56.22 33.13,-56.22 0,0 -80.47,196.76 -37.87,257.66 0,0 4.73,-60.9 23.67,-121.8 14.2,-42.17 37.87,-103.07 66.27,-135.86 28.4,-32.79 99.4,-154.59 104.14,-229.55 0,-32.79 4.73,-65.59 4.73,-89.01 -18.93,-18.74 312.41,-65.59 331.34,-14.06 4.73,18.74 71,187.39 108.87,276.4 18.93,42.17 42.6,79.64 56.8,126.49 14.2,51.53 23.66,121.8 23.66,192.08 0,14.05 0,37.48 -4.73,60.9 9.47,0 194.07,-196.76 -23.66,-360.72 0,0 132.53,60.9 137.27,182.7 4.73,98.38 -37.87,178.02 -47.33,192.07 4.73,0 99.4,42.17 104.13,42.17 18.94,0 56.8,-14.06 56.8,-14.06 4.74,-14.05 18.93,-51.53 18.93,-65.59 33.14,-107.75 -47.33,-281.08 -123.07,-388.83l0 0z"/>
  <path class="fil1" d="M878.77 597.89c33.99,0 61.53,-41.95 61.53,-93.7 0,-51.75 -27.54,-93.7 -61.53,-93.7 -33.98,0 -61.53,41.95 -61.53,93.7 0,51.75 27.55,93.7 61.53,93.7z"/>
  <path class="fil1" d="M1091.78 607.26c44.44,0 80.47,-48.24 80.47,-107.75 0,-59.51 -36.03,-107.75 -80.47,-107.75 -44.44,0 -80.47,48.24 -80.47,107.75 0,59.51 36.03,107.75 80.47,107.75z"/>
  <path class="fil3" d="M913.16 510.61c-3.93,-30.8 -21.84,-53.93 -40,-51.66 -18.15,2.27 -29.69,29.08 -25.74,59.89 3.93,30.8 21.84,53.93 39.99,51.66 18.16,-2.27 29.68,-29.08 25.75,-59.89z"/>
  <path class="fil3" d="M1087.06 579.15c26.14,0 47.33,-27.27 47.33,-60.9 0,-33.63 -21.19,-60.9 -47.33,-60.9 -26.15,0 -47.34,27.27 -47.34,60.9 0,33.64 21.2,60.9 47.34,60.9z"/>
  <path class="fil4" d="M1716.6 1548.89c-18.93,-9.37 -52.07,-23.42 -80.47,-65.59 -14.19,-23.42 -9.46,-89.01 -33.13,-117.12 -14.2,-18.73 -33.13,-9.37 -37.86,-9.37 -42.6,9.37 -142.01,74.95 -208.27,0 -9.47,-9.37 -23.67,-23.43 -47.33,-23.43 -23.67,0 -33.13,9.37 -42.6,28.11 -9.47,18.74 -9.47,32.79 -9.47,79.64 0,37.48 0,79.64 -4.73,112.43 -9.47,79.64 -23.66,126.49 -23.66,173.34 0,51.53 14.19,84.33 33.13,98.38 14.2,14.06 37.86,23.42 89.94,23.42 52.06,0 85.2,-18.73 118.34,-51.53 23.66,-23.42 42.59,-32.79 108.87,-79.64 52.07,-32.79 132.54,-74.96 146.73,-89.01 9.47,-9.37 23.67,-14.06 23.67,-42.17 0,-23.42 -18.93,-32.79 -33.13,-37.48l0 0z"/>
  <path class="fil4" d="M765.17 1562.95c-47.33,-74.96 -52.07,-89.01 -85.2,-135.86 -28.4,-46.84 -89.94,-135.85 -127.8,-135.85 -28.4,0 -42.6,14.05 -61.54,32.79 -18.93,18.73 -37.87,60.9 -71,84.33 -28.4,23.42 -108.87,18.73 -127.8,46.84 -18.94,28.11 18.93,70.28 18.93,140.54 0,28.11 -23.67,46.84 -28.4,65.59 -4.73,23.42 -9.47,37.48 0,56.22 18.93,28.11 42.6,37.48 203.54,70.27 85.2,18.74 165.67,65.59 217.74,70.28 52.07,4.69 142,0 142,-126.49 4.74,-74.95 -37.86,-93.69 -80.47,-168.65z"/>
  <path class="fil4" d="M855.11 715.01c-28.4,-18.74 -52.07,-37.48 -52.07,-65.59 0,-28.11 18.94,-37.48 47.34,-60.9 4.73,-4.69 56.8,-51.53 108.87,-51.53 52.06,0 113.6,32.8 137.27,42.16 42.6,9.37 85.2,18.74 80.47,51.53 -4.73,46.85 -9.46,56.22 -56.8,79.64 -33.13,9.37 -94.67,60.9 -137.27,60.9 -18.93,0 -47.33,0 -66.26,-4.68 -14.2,-4.69 -37.87,-28.11 -61.53,-51.53l0 0z"/>
  <path class="fil5" d="M845.64 677.53c9.47,9.37 23.67,18.74 37.87,23.42 9.46,4.69 23.66,9.37 23.66,9.37 18.94,0 33.14,0 42.6,0 23.67,0 56.8,-9.37 89.93,-28.11 33.13,-14.05 37.87,-23.42 61.54,-32.79 23.67,-14.05 47.33,-28.11 37.87,-32.79 -9.47,-4.69 -18.94,0 -52.07,18.74 -28.4,18.74 -52.06,28.11 -80.46,42.16 -14.2,4.68 -33.13,14.05 -47.33,14.05 -14.2,0 -28.4,0 -42.6,0 -14.2,0 -23.67,-4.69 -37.87,-9.37 -9.46,-4.68 -14.2,-9.37 -18.93,-9.37 -9.46,-4.69 -28.4,-23.42 -37.86,-28.11 0,0 -9.47,0 -4.74,4.68 14.2,14.05 18.94,18.74 28.4,28.11z"/>
  <path class="fil5" d="M987.65 574.47c4.73,9.37 14.2,9.37 18.93,14.06 4.73,4.68 9.47,4.68 9.47,4.68 4.73,-4.68 0,-14.05 -4.74,-14.05 0,-9.37 -23.66,-9.37 -23.66,-4.69l0 0z"/>
  <path class="fil5" d="M911.92 583.84c0,4.69 9.46,9.37 9.46,4.69 4.74,-4.69 9.47,-9.37 14.2,-9.37 9.47,-4.69 4.73,-9.37 -9.46,-9.37 -9.47,4.68 -9.47,9.37 -14.2,14.05l0 0z"/>
  <path class="fil6" d="M1371.06 1413.03c0,4.68 0,9.37 0,14.05 9.47,18.74 33.13,23.42 52.06,23.42 28.4,0 56.81,-18.74 71.01,-37.48 0,-4.68 4.73,-9.37 9.47,-14.06 9.46,-14.05 14.2,-23.42 18.93,-28.11 0,0 -4.73,-4.69 -4.73,-9.37 -4.74,-9.37 -18.94,-18.74 -37.87,-23.42 -14.2,-4.69 -37.86,-9.37 -47.34,-9.37 -42.6,-4.68 -66.26,9.37 -80.46,23.42 0,0 4.73,0 4.73,4.69 9.47,9.37 14.2,18.74 14.2,32.79 4.73,9.37 0,14.05 0,23.42l0 0z"/>
 </g>
</svg>
