<?xml version="1.0" encoding="UTF-8"?>
<!DOCTYPE svg PUBLIC "-//W3C//DTD SVG 1.1//EN" "http://www.w3.org/Graphics/SVG/1.1/DTD/svg11.dtd">
<!-- Creator: CorelDRAW 2018 (64-Bit) -->
<svg xmlns="http://www.w3.org/2000/svg" xml:space="preserve" width="58.6488mm" height="67.733mm" version="1.1" style="shape-rendering:geometricPrecision; text-rendering:geometricPrecision; image-rendering:optimizeQuality; fill-rule:evenodd; clip-rule:evenodd"
viewBox="0 0 1582.22 1827.29"
 xmlns:xlink="http://www.w3.org/1999/xlink">
 <defs>
  <style type="text/css">
   <![CDATA[
    .fil2 {fill:#212121}
    .fil1 {fill:#263238}
    .fil5 {fill:#455A64}
    .fil4 {fill:#634703}
    .fil0 {fill:#ECEFF1}
    .fil3 {fill:#FFC107}
   ]]>
  </style>
 </defs>
 <g id="Слой_x0020_1">
  <metadata id="CorelCorpID_0Corel-Layer"/>
  <g id="_2379462226192">
   <polygon class="fil0" points="433.01,1529.17 641.5,1644.92 956.77,1644.92 1251.7,1423.48 1383.91,1076.23 1078.8,708.85 992.36,502.51 570.31,517.61 575.39,633.36 494.03,784.34 366.91,1030.94 341.48,1237.28 "/>
   <path class="fil1" d="M1292.37 804.47c-81.36,-115.75 -147.46,-186.21 -183.06,-332.15 -35.59,-145.95 10.17,-105.68 -20.34,-231.5 -15.26,-65.43 -40.68,-110.72 -66.1,-145.95 -30.51,-35.23 -66.1,-55.36 -86.45,-60.39 -45.76,-25.16 -152.55,-65.42 -284.76,5.03 -137.3,70.46 -122.04,221.44 -96.62,528.43 0,20.13 -5.09,45.3 -15.25,65.43 -20.34,45.29 -55.94,85.55 -86.45,120.79 -35.59,50.32 -71.19,100.65 -96.62,156.01 -61.02,115.75 -116.95,261.69 -101.7,317.06 25.43,-5.03 345.78,478.1 345.78,488.16 20.34,-5.03 106.78,-5.03 183.06,-5.03 106.79,-5.03 167.8,-10.07 254.25,10.06 0,-15.09 -5.09,-30.2 -5.09,-45.29 0,-30.2 5.09,-55.36 10.17,-90.59 5.08,-25.16 10.17,-50.32 15.26,-80.52 -50.85,45.29 -142.38,95.62 -228.83,110.71 -76.27,15.09 -203.4,-10.07 -264.42,-85.56 5.09,0 15.25,0 20.34,-5.03 15.26,-5.03 30.51,-10.07 35.59,-20.13 15.26,-25.17 5.08,-50.33 -5.09,-65.42 -10.17,-15.1 -86.45,-70.47 -122.04,-100.65 -35.59,-30.19 -55.93,-45.3 -76.27,-65.42 0,0 -30.51,-30.2 -40.68,-40.27 -10.17,-10.06 -15.26,-20.13 -20.34,-25.17 -10.17,-25.15 -15.25,-55.35 -10.17,-95.61 5.09,-55.36 25.42,-100.66 50.85,-150.98 10.17,-20.13 35.59,-60.4 35.59,-60.4 0,0 -86.45,211.38 -40.68,276.8 0,0 5.09,-65.42 25.43,-130.85 15.25,-45.3 40.68,-110.73 71.19,-145.95 30.51,-35.23 106.78,-166.08 111.87,-246.6 0,-35.23 5.08,-70.46 5.08,-95.62 -20.34,-20.13 335.62,-70.46 355.95,-15.1 5.08,20.13 76.28,201.31 116.95,296.93 20.34,45.3 45.77,85.56 61.02,135.88 15.26,55.36 25.42,130.85 25.42,206.34 0,15.09 0,40.26 -5.08,65.42 10.17,0 208.48,-211.37 -25.42,-387.51 0,0 142.37,65.42 147.46,196.27 5.08,105.68 -40.69,191.24 -50.85,206.33 5.08,0 106.78,45.3 111.86,45.3 20.34,0 61.02,-15.1 61.02,-15.1 5.09,-15.09 20.34,-55.36 20.34,-70.46 35.6,-115.75 -50.85,-301.96 -132.21,-417.71l0 0z"/>
   <path class="fil0" d="M646.58 472.31c36.51,0 66.1,-45.06 66.1,-100.65 0,-55.59 -29.59,-100.65 -66.1,-100.65 -36.5,0 -66.1,45.06 -66.1,100.65 0,55.59 29.6,100.65 66.1,100.65z"/>
   <path class="fil0" d="M875.4 482.38c47.75,0 86.45,-51.82 86.45,-115.75 0,-63.93 -38.7,-115.75 -86.45,-115.75 -47.74,0 -86.45,51.82 -86.45,115.75 0,63.93 38.71,115.75 86.45,115.75z"/>
   <path class="fil2" d="M683.51 378.55c-4.22,-33.09 -23.46,-57.93 -42.97,-55.5 -19.5,2.44 -31.89,31.24 -27.66,64.33 4.22,33.09 23.46,57.94 42.96,55.5 19.5,-2.44 31.89,-31.24 27.66,-64.33z"/>
   <path class="fil2" d="M870.33 452.18c28.08,0 50.85,-29.29 50.85,-65.42 0,-36.13 -22.77,-65.42 -50.85,-65.42 -28.09,0 -50.86,29.29 -50.86,65.42 0,36.13 22.77,65.42 50.86,65.42z"/>
   <path class="fil3" d="M1546.62 1493.94c-20.34,-10.06 -55.94,-25.16 -86.45,-70.46 -15.25,-25.16 -10.17,-95.62 -35.59,-125.82 -15.26,-20.13 -35.59,-10.06 -40.68,-10.06 -45.77,10.06 -152.55,80.52 -223.74,0 -10.17,-10.06 -25.43,-25.16 -50.85,-25.16 -25.43,0 -35.59,10.06 -45.77,30.2 -10.17,20.13 -10.17,35.23 -10.17,85.56 0,40.26 0,85.55 -5.08,120.78 -10.17,85.55 -25.42,135.89 -25.42,186.21 0,55.36 15.25,90.59 35.59,105.68 15.25,15.1 40.67,25.16 96.62,25.16 55.93,0 91.53,-20.13 127.13,-55.36 25.42,-25.16 45.76,-35.23 116.95,-85.55 55.93,-35.23 142.38,-80.53 157.63,-95.62 10.17,-10.07 25.43,-15.1 25.43,-45.3 0,-25.16 -20.34,-35.23 -35.59,-40.26l0 0z"/>
   <path class="fil3" d="M524.54 1509.04c-50.85,-80.53 -55.93,-95.62 -91.53,-145.95 -30.51,-50.32 -96.62,-145.94 -137.3,-145.94 -30.51,0 -45.77,15.09 -66.11,35.23 -20.34,20.13 -40.68,65.42 -76.27,90.59 -30.51,25.15 -116.95,20.12 -137.3,50.32 -20.34,30.19 20.34,75.49 20.34,150.98 0,30.2 -25.42,50.32 -30.51,70.46 -5.09,25.16 -10.17,40.26 0,60.39 20.34,30.2 45.76,40.26 218.65,75.48 91.53,20.13 177.97,70.46 233.91,75.5 55.93,5.03 152.55,0 152.55,-135.89 5.09,-80.52 -40.67,-100.65 -86.44,-181.17z"/>
   <path class="fil3" d="M621.16 598.13c-30.51,-20.13 -55.94,-40.26 -55.94,-70.46 0,-30.19 20.34,-40.26 50.85,-65.42 5.09,-5.03 61.02,-55.36 116.96,-55.36 55.93,0 122.03,35.23 147.46,45.29 45.77,10.07 91.52,20.13 86.44,55.36 -5.08,50.33 -10.17,60.39 -61.02,85.56 -35.59,10.06 -101.7,65.42 -147.47,65.42 -20.34,0 -50.85,0 -71.18,-5.03 -15.26,-5.03 -40.69,-30.2 -66.1,-55.36l0 0z"/>
   <path class="fil4" d="M610.98 557.87c10.18,10.06 25.43,20.13 40.69,25.16 10.16,5.03 25.42,10.07 25.42,10.07 20.35,0 35.6,0 45.77,0 25.43,0 61.02,-10.07 96.61,-30.2 35.59,-15.1 40.69,-25.16 66.11,-35.23 25.43,-15.1 50.85,-30.19 40.68,-35.23 -10.17,-5.03 -20.34,0 -55.94,20.13 -30.51,20.13 -55.93,30.19 -86.44,45.3 -15.26,5.03 -35.59,15.1 -50.85,15.1 -15.26,0 -30.51,0 -45.77,0 -15.26,0 -25.43,-5.03 -40.69,-10.07 -10.16,-5.03 -15.26,-10.06 -20.34,-10.06 -10.17,-5.03 -30.51,-25.16 -40.68,-30.19 0,0 -10.17,0 -5.09,5.03 15.26,15.1 20.35,20.13 30.51,30.2z"/>
   <path class="fil4" d="M763.54 447.15c5.08,10.07 15.26,10.07 20.34,15.1 5.08,5.03 10.17,5.03 10.17,5.03 5.08,-5.03 0,-15.1 -5.09,-15.1 0,-10.06 -25.42,-10.06 -25.42,-5.03l0 0z"/>
   <path class="fil4" d="M682.18 457.22c0,5.03 10.17,10.06 10.17,5.03 5.09,-5.03 10.17,-10.07 15.25,-10.07 10.17,-5.03 5.08,-10.06 -10.16,-10.06 -10.17,5.03 -10.17,10.06 -15.26,15.1l0 0z"/>
   <path class="fil5" d="M1175.42 1348c0,5.03 0,10.07 0,15.09 10.17,20.13 35.59,25.16 55.93,25.16 30.51,0 61.02,-20.13 76.28,-40.26 0,-5.03 5.08,-10.07 10.17,-15.1 10.16,-15.09 15.25,-25.15 20.34,-30.2 0,0 -5.08,-5.03 -5.08,-10.06 -5.09,-10.06 -20.35,-20.13 -40.68,-25.16 -15.26,-5.03 -40.67,-10.06 -50.85,-10.06 -45.77,-5.03 -71.19,10.06 -86.44,25.16 0,0 5.08,0 5.08,5.03 10.17,10.06 15.25,20.14 15.25,35.23 5.08,10.06 0,15.09 0,25.16l0 0z"/>
  </g>
 </g>
</svg>
