<?xml version="1.0" encoding="UTF-8"?>
<!DOCTYPE svg PUBLIC "-//W3C//DTD SVG 1.1//EN" "http://www.w3.org/Graphics/SVG/1.1/DTD/svg11.dtd">
<!-- Creator: CorelDRAW 2018 (64-Bit) -->
<svg xmlns="http://www.w3.org/2000/svg" xml:space="preserve" width="67.7334mm" height="67.7334mm" version="1.1" style="shape-rendering:geometricPrecision; text-rendering:geometricPrecision; image-rendering:optimizeQuality; fill-rule:evenodd; clip-rule:evenodd"
viewBox="0 0 5038.32 5038.32"
 xmlns:xlink="http://www.w3.org/1999/xlink">
 <defs>
  <style type="text/css">
   <![CDATA[
    .fil1 {fill:#FEFEFE}
    .fil0 {fill:whitesmoke}
    .fil2 {fill:#1296DB}
   ]]>
  </style>
 </defs>
 <g id="Слой_x0020_1">
  <metadata id="CorelCorpID_0Corel-Layer"/>
  <path class="fil0" d="M1180.86 0l2676.61 0c652.06,0 1180.86,528.8 1180.86,1180.86l0 2676.61c0,652.05 -528.8,1180.85 -1180.86,1180.85l-2676.61 0.01c-652.05,-0.01 -1180.85,-528.81 -1180.85,-1180.86l-0.01 -2676.6c0.01,-652.06 528.81,-1180.86 1180.86,-1180.86z"/>
  <g id="_2379465945216">
   <polygon class="fil1" points="645.79,1310.1 4489.94,1310.1 4489.94,3784.44 645.79,3784.44 "/>
   <path class="fil2" d="M4463.72 1120.74l-3889.14 0c-181.1,0 -328.13,146.98 -328.13,327.4l0 2141.3c0,181.1 147.02,328.13 328.13,328.13l3889.86 -0.04c181.1,0 328.13,-147.02 327.4,-327.4l0 -2141.99c0,-180.38 -147.02,-327.4 -328.13,-327.4zm-1813.18 2141.26l-436.76 0 0 -852.27 -436.77 546.17 -436.76 -546.17 0 852.27 -438.25 0 0 -1485.74 436.81 0 436.76 546.16 436.77 -546.16 436.8 0 0 1485.77 1.41 -0.04zm960.91 22.03l-655.53 -764.9 436.8 0 0 -742.86 436.76 0 0 742.86 436.8 0 -654.84 764.9z" p-id="2241"/>
  </g>
 </g>
</svg>
