<?xml version="1.0" encoding="UTF-8"?>
<!DOCTYPE svg PUBLIC "-//W3C//DTD SVG 1.1//EN" "http://www.w3.org/Graphics/SVG/1.1/DTD/svg11.dtd">
<!-- Creator: CorelDRAW 2018 (64-Bit) -->
<svg xmlns="http://www.w3.org/2000/svg" xml:space="preserve" width="67.7334mm" height="67.7334mm" version="1.1" style="shape-rendering:geometricPrecision; text-rendering:geometricPrecision; image-rendering:optimizeQuality; fill-rule:evenodd; clip-rule:evenodd"
viewBox="0 0 5038.32 5038.32"
 xmlns:xlink="http://www.w3.org/1999/xlink"
 t="1649126639901"
 p-id="2240">
 <defs>
  <style type="text/css">
   <![CDATA[
    .fil0 {fill:#FEFEFE}
    .fil1 {fill:#1296DB}
   ]]>
  </style>
 </defs>
 <g id="Слой_x0020_1">
  <metadata id="CorelCorpID_0Corel-Layer"/>
  <path class="fil0" d="M1180.86 0l2676.61 0c652.06,0 1180.86,528.8 1180.86,1180.86l0 2676.61c0,652.05 -528.8,1180.85 -1180.86,1180.85l-2676.61 0.01c-652.05,-0.01 -1180.85,-528.81 -1180.85,-1180.86l-0.01 -2676.6c0.01,-652.06 528.81,-1180.86 1180.86,-1180.86z"/>
  <g id="_2381290050928">
   <path class="fil1" d="M4406.14 1188.33l-3773.96 0c-175.75,0 -318.41,142.63 -318.41,317.7l0 2077.9c0,175.74 142.66,318.41 318.41,318.41l3774.66 -0.04c175.74,0 318.41,-142.66 317.71,-317.7l0 -2078.57c0,-175.04 -142.67,-317.7 -318.41,-317.7zm-1759.49 2077.86l-423.84 0 0 -827.03 -423.83 529.99 -423.84 -529.99 0 827.03 -425.27 0 0 -1441.74 423.87 0 423.83 529.99 423.84 -529.99 423.87 0 0 1441.77 1.37 -0.03zm932.46 21.37l-636.11 -742.24 423.87 0 0 -720.88 423.84 0 0 720.88 423.87 0 -635.45 742.24z" p-id="2241"/>
  </g>
 </g>
</svg>
