<?xml version="1.0" encoding="UTF-8"?>
<!DOCTYPE svg PUBLIC "-//W3C//DTD SVG 1.1//EN" "http://www.w3.org/Graphics/SVG/1.1/DTD/svg11.dtd">
<!-- Creator: CorelDRAW 2018 (64-Bit) -->
<svg xmlns="http://www.w3.org/2000/svg" xml:space="preserve" width="67.733mm" height="41.6768mm" version="1.1" style="shape-rendering:geometricPrecision; text-rendering:geometricPrecision; image-rendering:optimizeQuality; fill-rule:evenodd; clip-rule:evenodd"
viewBox="0 0 5038.23 3100.07"
 xmlns:xlink="http://www.w3.org/1999/xlink">
 <defs>
  <style type="text/css">
   <![CDATA[
    .fil0 {fill:#FEFEFE}
    .fil1 {fill:#1296DB}
   ]]>
  </style>
 </defs>
 <g id="Слой_x0020_1">
  <metadata id="CorelCorpID_0Corel-Layer"/>
  <g id="_2381505946496">
   <polygon class="fil0" points="442.63,209.88 4703.58,209.88 4703.58,2952.51 442.63,2952.51 "/>
   <path class="fil1" d="M4674.51 -0.01l-4310.81 0c-200.74,0 -363.71,162.92 -363.71,362.9l0 2373.48c0,200.74 162.97,363.7 363.71,363.7l4311.61 -0.04c200.75,0 363.71,-162.96 362.9,-362.9l0 -2374.24c0,-199.94 -162.96,-362.9 -363.7,-362.9zm-2009.77 2373.44l-484.13 0 0 -944.68 -484.13 605.39 -484.13 -605.39 0 944.68 -485.76 0 0 -1646.83 484.16 0 484.13 605.38 484.13 -605.38 484.16 0 0 1646.87 1.56 -0.04zm1065.09 24.41l-726.6 -847.83 484.16 0 0 -823.41 484.13 0 0 823.41 484.16 0 -725.85 847.83z" p-id="2241"/>
  </g>
 </g>
</svg>
