<?xml version="1.0" encoding="UTF-8"?>
<!DOCTYPE svg PUBLIC "-//W3C//DTD SVG 1.1//EN" "http://www.w3.org/Graphics/SVG/1.1/DTD/svg11.dtd">
<!-- Creator: CorelDRAW 2018 (64-Bit) -->
<svg xmlns="http://www.w3.org/2000/svg" xml:space="preserve" width="67.7334mm" height="67.7334mm" version="1.1" style="shape-rendering:geometricPrecision; text-rendering:geometricPrecision; image-rendering:optimizeQuality; fill-rule:evenodd; clip-rule:evenodd"
viewBox="0 0 5038.32 5038.32"
 xmlns:xlink="http://www.w3.org/1999/xlink">
 <defs>
  <style type="text/css">
   <![CDATA[
    .str3 {stroke:white;stroke-width:33.06;stroke-miterlimit:22.9256}
    .str4 {stroke:white;stroke-width:16.48;stroke-miterlimit:22.9256}
    .str2 {stroke:white;stroke-width:99.07;stroke-linejoin:round;stroke-miterlimit:22.9256}
    .str0 {stroke:white;stroke-width:99.07;stroke-linecap:round;stroke-linejoin:round;stroke-miterlimit:22.9256}
    .str1 {stroke:white;stroke-width:99.07;stroke-linecap:round;stroke-linejoin:bevel;stroke-miterlimit:22.9256}
    .fil2 {fill:none}
    .fil0 {fill:#FEFEFE}
    .fil1 {fill:#336791}
    .fil3 {fill:white}
   ]]>
  </style>
 </defs>
 <g id="Слой_x0020_1">
  <metadata id="CorelCorpID_0Corel-Layer"/>
  <path class="fil0" d="M1180.86 0l2676.61 0c652.06,0 1180.86,528.8 1180.86,1180.86l0 2676.61c0,652.05 -528.8,1180.85 -1180.86,1180.85l-2676.61 0.01c-652.05,-0.01 -1180.85,-528.81 -1180.85,-1180.86l-0.01 -2676.6c0.01,-652.06 528.81,-1180.86 1180.86,-1180.86z"/>
  <path class="fil1" d="M4004.67 2926.32c-399.91,82.46 -428.96,-53 -428.96,-53 422.47,-626.88 599.18,-1422.57 446.68,-1617.28 -415.68,-531.38 -1135.41,-279.94 -1147.46,-273.44l-3.88 0.69c-87.9,-17.64 -177.27,-26.95 -266.94,-27.81 -181.01,-2.77 -318.28,47.46 -422.61,126.48 0,0 -1283.91,-528.9 -1224.12,665.2 12.73,254.08 363.94,1923.51 783.24,1418.42 154.43,-185.71 302.49,-341.68 302.49,-341.68 73.35,48.85 161.5,73.77 253.8,64.77l7.19 -6.08c-2.11,23.91 -1.12,48 2.92,71.68 -107.93,120.67 -76.11,141.84 -291.99,186.26 -218.36,44.97 -89.95,125.09 -6.36,146.14 101.58,25.46 336.55,61.44 495.41,-160.8l-6.37 25.31c42.35,33.9 71.95,220.45 66.98,389.54 -4.98,169.11 -8.31,285.08 24.91,375.84 33.21,90.79 66.43,294.76 350.11,235.25 237.06,-50.77 359.79,-182.66 377.09,-402.12 12.18,-156.11 39.58,-133.14 41.53,-272.62l22.14 -66.15c25.31,-211.73 4.13,-279.94 150.12,-248.12l35.56 3.19c107.54,4.84 248.27,-17.3 330.74,-55.64 177.82,-82.46 283.27,-220.3 107.93,-184.03l-0.14 0z"/>
  <path class="fil2 str0" d="M2874.79 956.42c-44.28,13.84 714.61,-277.45 1146.08,273.71 152.24,194.7 -24.2,990.41 -446.69,1617.26m-1053.09 179.21c-11.06,393.84 2.77,790.43 41.25,885.65 38.46,95.2 121.08,283.68 404.9,223.06 237.06,-50.78 323.39,-149.19 360.77,-366.31l87.58 -694.24 -894.5 -48.16zm-340.12 -1974.29c0,0 -1284.74,-525.3 -1224.96,668.8 12.73,254.06 363.94,1923.5 783.24,1418.4 153.05,-184.47 291.43,-328.79 291.43,-328.79l150.29 -1758.41z"/>
  <path class="fil2 str1" d="M3574.31 2847.12c0,0 27.69,135.63 428.98,52.87 175.34,-36.26 69.75,101.57 -107.92,184.06 -145.86,67.8 -473,85.1 -478.39,-8.31 -13.84,-241.48 172.15,-168.13 158.73,-228.61 -12.18,-54.52 -95.49,-107.93 -150.29,-241.33 -48.02,-116.26 -658.7,-1008.81 169.37,-876.38 30.45,-6.23 -215.88,-788.77 -990.81,-800.12 -774.94,-11.35 -750.44,952.75 -750.44,952.75"/>
  <path class="fil2 str2" d="M2304.24 2929.88c-107.92,120.67 -76.1,141.84 -291.96,186.26 -218.38,44.97 -89.96,125.09 -6.38,146.13 101.57,25.47 336.55,61.45 495.41,-160.95 48.44,-67.8 -0.28,-175.73 -66.7,-203.13 -32.1,-13.29 -75,-29.9 -130.07,31.82l-0.3 -0.13z"/>
  <path class="fil2 str0" d="M2297.2 2927.79c-11.08,-70.99 23.25,-155.26 59.91,-254.06 55.09,-148.06 182.13,-296.13 80.56,-766.21 -75.69,-350.11 -583.98,-72.93 -583.98,-25.46 0,47.46 22.97,240.79 -8.31,465.64 -41.1,293.66 186.82,541.92 449.19,516.59"/>
  <path class="fil3 str3" d="M2176.26 1875c-2.37,16.19 29.73,59.5 71.4,65.32 41.64,5.81 77.2,-27.95 79.57,-44.29 2.34,-16.33 -29.76,-34.04 -71.4,-39.85 -41.66,-5.82 -77.51,2.77 -79.57,18.82l0 0z"/>
  <path class="fil3 str4" d="M3444.38 1841.92c2.21,16.19 -29.75,59.51 -71.4,65.32 -41.66,5.82 -77.5,-27.95 -79.57,-44.28 -2.08,-16.33 29.76,-34.04 71.4,-39.85 41.65,-5.82 77.49,2.77 79.57,18.81z"/>
  <path class="fil2 str0" d="M3593.29 1729.69c6.9,127.31 -27.42,213.8 -31.84,349.28 -6.36,196.77 93.84,422.06 -57.16,647.62"/>
 </g>
</svg>
