<?xml version="1.0" encoding="UTF-8"?>
<!DOCTYPE svg PUBLIC "-//W3C//DTD SVG 1.1//EN" "http://www.w3.org/Graphics/SVG/1.1/DTD/svg11.dtd">
<!-- Creator: CorelDRAW 2018 (64-Bit) -->
<svg xmlns="http://www.w3.org/2000/svg" xml:space="preserve" width="63.7158mm" height="66.0253mm" version="1.1" style="shape-rendering:geometricPrecision; text-rendering:geometricPrecision; image-rendering:optimizeQuality; fill-rule:evenodd; clip-rule:evenodd"
viewBox="0 0 4271.34 4426.16"
 xmlns:xlink="http://www.w3.org/1999/xlink">
 <defs>
  <style type="text/css">
   <![CDATA[
    .fil0 {fill:#336791}
    .fil2 {fill:white}
    .fil1 {fill:white;fill-rule:nonzero}
   ]]>
  </style>
 </defs>
 <g id="Слой_x0020_1">
  <metadata id="CorelCorpID_0Corel-Layer"/>
  <g id="_2381396078144">
   <path class="fil0" d="M4108.81 2755.16c-532.77,109.85 -571.47,-70.61 -571.47,-70.61 562.83,-835.14 798.25,-1895.18 595.08,-2154.58 -553.79,-707.92 -1512.63,-372.94 -1528.67,-364.28l-5.16 0.93c-117.11,-23.5 -236.17,-35.91 -355.62,-37.05 -241.15,-3.69 -424.02,63.23 -563.01,168.49 0,0 -1710.46,-704.61 -1630.81,886.19 16.95,338.49 484.85,2562.56 1043.45,1889.66 205.74,-247.41 402.99,-455.19 402.99,-455.19 97.72,65.07 215.15,98.27 338.12,86.29l9.57 -8.1c-2.81,31.86 -1.49,63.95 3.88,95.49 -143.79,160.76 -101.39,188.97 -388.99,248.14 -290.92,59.92 -119.83,166.65 -8.47,194.69 135.32,33.92 448.35,81.85 660,-214.22l-8.49 33.72c56.43,45.17 95.86,293.68 89.23,518.96 -6.64,225.3 -11.07,379.79 33.19,500.71 44.23,120.95 88.49,392.69 466.42,313.41 315.81,-67.65 479.32,-243.35 502.36,-535.72 16.24,-207.98 52.73,-177.37 55.33,-363.19l29.5 -88.13c33.71,-282.07 5.5,-372.94 200,-330.55l47.38 4.25c143.27,6.45 330.76,-23.05 440.62,-74.12 236.89,-109.86 377.38,-293.5 143.79,-245.18l-0.19 0z"/>
   <path class="fil1" d="M2629.4 167.14c-3.74,2.66 -7.96,4.79 -12.58,6.22 -3.24,1.02 -6,1.7 -7.84,2.02l-2.81 0.4c-8.15,1.32 53.23,-14.47 43.97,-13.41 -68.79,15.14 -102.82,13.46 -114.09,3.49 -72.19,-6.02 -154.53,-17.95 103.69,-94.18 36.12,-10.66 89.19,-24.6 154.47,-37.27 324.01,-62.9 955.8,-97.02 1371.25,433.68 114.89,146.95 103.79,517.31 -17.95,958.08 -108.63,393.3 -304.4,846.94 -575.23,1248.79 -13.77,20.41 -41.5,25.8 -61.91,12.03 -20.41,-13.77 -25.8,-41.5 -12.03,-61.91 265.39,-393.77 457.11,-837.86 563.38,-1222.63 114.49,-414.53 131.13,-754.91 33.63,-879.61 -385.98,-493.05 -979.6,-460.06 -1284.4,-400.9 -62.31,12.09 -112.31,25.21 -146.11,35.18 -12.52,3.69 -24.27,7.01 -35.45,10.02zm-453.78 2768.56c-6.23,255.37 -4.56,508.92 4.96,713.45 9.19,197.4 25.27,346.57 48.06,402.95 23.9,59.16 61.43,147.25 134.57,208.99 71.88,60.68 181.56,98.04 354.27,61.16 148.87,-31.89 249.39,-77.68 317.21,-148.17 67.53,-70.19 105.33,-167.95 128.71,-303.74l110.5 -875.49 -1098.29 -59.13zm-83.97 717.28c-10.14,-217.76 -11.43,-491.04 -3.82,-763.58l0.05 -2.89c1.25,-24.56 22.18,-43.45 46.73,-42.2l1191.66 64.16 3.31 0.35c24.36,3.08 41.62,25.33 38.54,49.69l-116.27 921.76c-0.09,1.68 -0.28,3.37 -0.57,5.05 -26.41,153.44 -71.03,265.88 -152.41,350.46 -81.07,84.27 -195.97,137.88 -362.91,173.63 -205.4,43.86 -339.83,-3.95 -430.31,-80.33 -89.21,-75.32 -132.35,-176.22 -159.68,-243.88 -26.61,-65.83 -44.69,-225.28 -54.33,-432.24zm-459.72 -3364.93c-225.49,-83.39 -1610.22,-539.97 -1540.15,859.43 9.26,185 155.27,941.04 377.66,1467.98 70.59,167.27 148.55,310.4 231.61,402.52 74.02,82.1 150.7,120.99 227.18,93.68 40.99,-14.64 83.79,-47.21 128.29,-100.8l-0.1 -0.09c175.26,-211.25 336.67,-383.63 379.47,-428.84l196.04 -2293.87zm-1629.08 863.61c-81.24,-1622.45 1606.93,-968.6 1689.36,-935.78 19.68,5.97 33.24,25.03 31.49,46.36l-200.21 2342.6 -0.09 -0.01c-0.81,9.86 -4.89,19.52 -12.28,27.21 -0.53,0.55 -182.62,190.45 -385.98,435.58l-0.11 -0.09 -0.07 0.09c-55.45,66.8 -111.2,108.26 -166.74,128.09 -116.27,41.52 -224.52,-8.37 -323.45,-118.09 -89.9,-99.71 -172.96,-251.5 -247.29,-427.63 -226.38,-536.38 -375.14,-1308.86 -384.63,-1498.32z"/>
   <path class="fil1" d="M3492.06 2659.77c-0.78,-3.34 -1.15,-6.67 -1.17,-9.96 -8.19,-20.04 -28.21,-45.04 -52.84,-75.77 -43.21,-53.92 -98.54,-122.97 -142.07,-228.96 -7.27,-17.62 -27.74,-54.3 -54.84,-102.87 -112.64,-201.9 -334.63,-599.79 -291.79,-867.66 30.41,-190.19 181.18,-314.04 563.87,-265.96 -3.54,-11.99 -8.21,-26.39 -14.02,-42.98 -18.07,-51.53 -47.03,-118.85 -88.31,-194.11 -165.51,-301.72 -526.54,-722.96 -1168.62,-732.35 -986.13,-14.44 -954.83,1220.58 -954.77,1224.13 0.38,24.56 -19.21,44.78 -43.77,45.16 -24.56,0.38 -44.78,-19.21 -45.16,-43.77 -0.06,-3.81 -33.89,-1330.26 1044.75,-1314.46 685.48,10.03 1069.8,457.72 1245.7,778.38 43.63,79.56 74.63,151.83 94.23,207.72 21.33,60.84 29.56,106.94 26.62,126 -3.63,23.21 -16.38,37.44 -38.2,41.9l-15.87 0.35c-358.55,-57.33 -494.74,35.01 -518.56,183.94 -37.98,237.49 174.08,617.58 281.68,810.45 28.5,51.08 50.02,89.66 59.37,112.29 38.57,93.92 89.45,157.4 129.17,206.98 35.85,44.74 63.91,79.76 73.31,121.83l1.49 7.66c15.36,28.19 97.76,114.99 515.84,28.77 61.68,-12.76 104.54,-10.58 131.05,2.11 30.88,14.77 44.08,39.22 41.97,70.69 -1.38,20.7 -11.26,43.41 -28.29,66.77 -42.49,58.26 -140.65,133.83 -260.98,189.69 -89.97,41.82 -227.67,69.94 -354.23,77.23 -74.3,4.28 -145.43,1.51 -201.75,-9.71 -66.42,-13.24 -116.17,-39.64 -135.8,-81.87 -4.98,-10.72 -7.94,-22.31 -8.65,-34.75 -14.24,-248.47 111.06,-283.65 191.35,-306.18 7.57,-2.13 16.76,10.45 20.2,12.6 -0.64,-2.07 -0.9,-3.26 -0.91,-3.3zm623.83 103.91c-361.84,74.63 -515.09,15.17 -579.12,-39.77 -11.83,4.48 -25.35,8.28 -39.93,12.37 -53.36,14.98 -136.64,38.36 -126.49,215.51 0.04,0.72 0.26,1.52 0.64,2.32 6.17,13.27 33.18,23.84 72.33,31.64 49.25,9.81 112.57,12.16 179.43,8.31 116.34,-6.71 241.56,-31.92 321.79,-69.22 106.9,-49.63 191.73,-113.51 226.44,-161.09 2.01,-2.76 3.77,-5.3 5.26,-7.62 -12.99,-0.46 -32.77,1.85 -60.35,7.56z"/>
   <path class="fil1" d="M1872.19 2794.53c-26.06,29.47 -46.98,56.04 -64.76,78.65 -77.16,98.06 -101.11,128.48 -344.02,178.47 -68.96,14.2 -106.63,29.52 -122.72,44.63 -1.45,1.37 -2.71,-2.3 -2.47,-0.66 0.29,1.98 3.7,5.93 9.09,11.01 24.53,23.13 70.8,43.11 109.51,52.85 63.85,16.01 169.47,35.36 283.06,15.92 111.68,-19.11 232.27,-76.31 329.85,-212.91 4.19,-5.87 7.55,-11.97 10.12,-18.19 11.66,-28.27 9.34,-62.2 -1.97,-93.87 -11.8,-33.04 -32.81,-62.5 -57.87,-80.4 -6.53,-4.67 -13.17,-8.46 -19.77,-11.18 -16.57,-6.86 -35.86,-14.59 -54.42,-12.97 -18.57,1.63 -40.93,12.79 -68.65,43.86 -1.56,1.75 -3.22,3.35 -4.97,4.79zm-134.87 23.54c18.27,-23.23 39.91,-50.72 71.98,-86.63 1.52,-1.82 3.16,-3.51 4.91,-5.03 44.28,-48.12 85.95,-66.12 123.93,-69.46 39.05,-3.43 69.75,8.76 95.92,19.59 13.2,5.44 25.8,12.53 37.56,20.94 39.87,28.48 72.66,73.51 90.31,122.95 18.14,50.81 20.96,107.44 0.23,157.69 -5.2,12.6 -11.8,24.68 -19.88,35.99 -114.06,159.68 -255.83,226.67 -387.4,249.18 -129.66,22.18 -248.24,0.6 -319.69,-17.32 -50.65,-12.74 -113.05,-40.63 -148.92,-74.47 -19.49,-18.4 -32.81,-39.53 -36.29,-62.97 -4.02,-27.1 4.36,-53.37 29.67,-77.13 27.23,-25.57 79.13,-49.06 165.96,-66.94 210.61,-43.35 229.82,-67.75 291.71,-146.39z"/>
   <path class="fil1" d="M1878.03 2750.32c3.75,24.27 -12.87,46.99 -37.14,50.75 -24.27,3.75 -46.99,-12.87 -50.75,-37.14 -2.29,-14.65 -3.35,-29.49 -3.37,-44.55 -27.7,0.29 -55.01,-1.51 -81.77,-5.26 -136.07,-19.04 -259.39,-88.01 -352.13,-189.58 -92.08,-100.85 -154.13,-234.18 -168.47,-382.78 -5.12,-52.99 -4.17,-107.79 3.63,-163.56 32.66,-234.77 20.04,-444.29 13.62,-550.92 -1.75,-29.01 -3.07,-50.94 -3.07,-63.31 0,-36.89 103.06,-122.18 239.24,-177.86 62.85,-25.7 133.14,-47.48 202.82,-58.07 72.24,-10.99 144.91,-10.26 210.26,9.74 101.63,31.11 182.66,106.15 213.92,250.69 116.56,539.43 12.47,770.48 -68.93,951.15 -15.14,33.59 -29.47,65.4 -40.32,94.56l-10.26 27.55c-42.55,113.97 -79.2,212.16 -67.27,288.59zm-80.79 -120.2c13.37,-61.88 37.98,-127.83 64.71,-199.43l10.26 -27.55c12.84,-34.52 27.22,-66.43 42.41,-100.14 76.08,-168.88 173.38,-384.86 63,-895.7 -23.24,-107.49 -80.85,-162.49 -152.54,-184.43 -51.12,-15.65 -110.62,-15.81 -171.19,-6.6 -63.12,9.6 -126.34,29.14 -182.6,52.15 -104.4,42.69 -183.42,86.09 -183.42,95.56 0,13.13 1.17,32.5 2.71,58.08 6.6,109.55 19.55,324.82 -14.32,568.35 -6.86,49.06 -7.72,96.96 -3.28,142.99 12.41,128.51 66.11,243.86 145.81,331.16 79.03,86.57 183.56,145.26 298.41,161.33 26.25,3.67 52.99,5.14 80.03,4.24z"/>
   <path class="fil2" d="M1672.96 1354.56c-3.15,21.57 39.61,79.27 95.13,87.02 55.47,7.74 102.86,-37.24 106.01,-59.01 3.12,-21.75 -39.65,-45.34 -95.13,-53.09 -55.51,-7.75 -103.26,3.69 -106.01,25.07l0 0z"/>
   <path class="fil1" d="M1687.69 1356.76l-0.01 0.09c-0.8,6.82 7.51,21.32 21.51,36.04 15.17,15.96 36.58,30.41 60.43,33.89l0.52 0.08c20.04,2.79 39.02,-2.62 54.41,-11.19 19.9,-11.07 33.26,-26.08 34.79,-34.9l0.05 -0.29c0.57,-4.09 -6.31,-10.13 -17.85,-16.59 -15.54,-8.69 -38.03,-15.88 -63.72,-19.55l-3.61 -0.52c-25.19,-3.23 -48.29,-2.27 -65.3,1.91 -12.3,3 -20.24,6.7 -21.13,10.39l-0.08 0.64zm-29.46 -4.34l0.01 -0.09c2.41,-17.08 18.86,-29.39 43.55,-35.46 20.27,-4.99 47.26,-6.21 76.18,-2.5l4.02 0.52c29.27,4.18 55.41,12.66 73.96,23.03 22.44,12.55 35.17,28.97 32.88,46.38l-0.03 0.36c-2.35,16.2 -21.69,41.29 -49.84,56.95 -20.37,11.34 -45.73,18.46 -72.93,14.67l-0.58 -0.08c-31.37,-4.57 -58.76,-22.79 -77.82,-42.84 -20.03,-21.07 -31.37,-45.73 -29.44,-60.57l0.03 -0.38z"/>
   <path class="fil2" d="M3362.38 1310.49c2.94,21.57 -39.64,79.28 -95.13,87.01 -55.51,7.75 -103.25,-37.24 -106.01,-58.99 -2.78,-21.75 39.65,-45.34 95.13,-53.09 55.49,-7.75 103.23,3.69 106.01,25.07z"/>
   <path class="fil1" d="M3369.72 1309.51c1.94,14.23 -11.89,40.86 -35.19,62.18 -17.52,16.04 -40.55,29.58 -66.26,33.16l-1.28 0.16c-29.46,3.71 -56.67,-6.22 -76.88,-19.96 -20.65,-14.03 -34.36,-32.63 -36.15,-45.26l-0.04 -0.36c-1.8,-14.15 9.55,-28.08 29.42,-39.16 17.93,-10.02 43.36,-18.2 72.02,-22.2l2.39 -0.32c28.11,-3.65 54.26,-2.51 73.83,2.26 21.73,5.3 36.16,15.49 38.11,29.28l0.03 0.22zm-45.17 51.28c19.8,-18.12 31.8,-39.03 30.5,-49.22l-0.03 -0.13c-0.99,-7.23 -11.22,-13.21 -26.92,-17.03 -17.91,-4.37 -42.13,-5.38 -68.37,-1.97l-2.34 0.32c-26.86,3.75 -50.44,11.29 -66.86,20.46 -14.38,8.02 -22.79,16.73 -21.93,24.25l0.05 0.23c1.26,9.08 12.54,23.4 29.77,35.11 17.67,12.01 41.32,20.71 66.66,17.53l1.17 -0.16c22.44,-3.13 42.74,-15.14 58.31,-29.39z"/>
   <path class="fil1" d="M3516.3 1163.25c-1.25,-24.56 17.64,-45.48 42.2,-46.73 24.56,-1.25 45.48,17.64 46.73,42.2 5.37,99.05 -7.03,179.26 -20.05,263.5 -9.73,63.04 -19.86,128.5 -22.37,205.48 -2.33,72.21 7.08,150.49 16.75,230.99 24.88,207.07 51.48,428.29 -100.4,655.16 -13.68,20.41 -41.32,25.88 -61.73,12.21 -20.41,-13.68 -25.88,-41.32 -12.21,-61.73 133.35,-199.2 108.76,-403.72 85.75,-595.17 -9.98,-83.09 -19.69,-163.87 -17.09,-244.24 2.67,-82.13 13.25,-150.47 23.42,-216.3 12.25,-79.26 23.91,-154.73 19.01,-245.36z"/>
  </g>
 </g>
</svg>
