<?xml version="1.0" encoding="UTF-8"?>
<!DOCTYPE svg PUBLIC "-//W3C//DTD SVG 1.1//EN" "http://www.w3.org/Graphics/SVG/1.1/DTD/svg11.dtd">
<!-- Creator: CorelDRAW 2018 (64-Bit) -->
<svg xmlns="http://www.w3.org/2000/svg" xml:space="preserve" width="67.7334mm" height="67.7334mm" version="1.1" style="shape-rendering:geometricPrecision; text-rendering:geometricPrecision; image-rendering:optimizeQuality; fill-rule:evenodd; clip-rule:evenodd"
viewBox="0 0 5038.32 5038.32"
 xmlns:xlink="http://www.w3.org/1999/xlink">
 <defs>
  <style type="text/css">
   <![CDATA[
    .fil0 {fill:#001E36}
    .fil1 {fill:#31A8FF}
   ]]>
  </style>
 </defs>
 <g id="Слой_x0020_1">
  <metadata id="CorelCorpID_0Corel-Layer"/>
  <path class="fil0" d="M1180.86 0l2676.61 0c652.06,0 1180.86,528.8 1180.86,1180.86l0 2676.61c0,652.05 -528.8,1180.85 -1180.86,1180.85l-2676.61 0.01c-652.05,-0.01 -1180.85,-528.81 -1180.85,-1180.86l-0.01 -2676.6c0.01,-652.06 528.81,-1180.86 1180.86,-1180.86z"/>
  <g id="_2381357399184">
   <path class="fil1" d="M1111.31 3507.92l0 -2160.17c0,-14.7 6.3,-23.1 21,-23.1 35.68,0 69.27,0 117.56,-2.1 50.38,-2.1 102.87,-2.1 159.55,-4.2 56.68,-2.11 117.56,-2.11 182.64,-4.2 65.08,-2.1 128.05,-2.1 191.03,-2.1 172.14,0 314.89,20.99 432.46,65.08 104.96,35.68 201.53,94.47 281.3,172.14 67.18,67.18 119.66,149.04 153.25,239.32 31.49,88.17 48.28,178.44 48.28,272.91 0,180.54 -41.98,329.58 -125.96,447.15 -83.97,117.56 -201.53,205.73 -337.98,256.11 -142.75,52.48 -300.2,71.37 -472.34,71.37 -50.38,0 -83.97,0 -104.96,-2.1 -20.99,-2.1 -50.38,-2.1 -90.27,-2.1l0 673.87c2.1,14.69 -8.4,27.29 -23.09,29.39l-407.26 0c-16.8,0 -25.19,-8.4 -25.19,-27.29l0 0zm457.64 -1778.1l0 705.36c29.39,2.1 56.68,4.2 81.88,4.2l111.26 0c81.87,0 163.74,-12.6 241.42,-37.79 67.18,-18.89 125.96,-58.79 172.14,-111.26 44.09,-52.49 65.08,-123.86 65.08,-216.23 2.1,-65.08 -14.7,-130.16 -48.28,-186.84 -35.69,-54.58 -86.07,-96.57 -146.95,-119.66 -77.67,-31.49 -161.65,-44.09 -247.72,-41.99 -54.58,0 -102.86,0 -142.75,2.11 -41.98,-2.11 -71.37,0 -86.07,2.1zm2439.38 577.31c-62.98,-33.59 -130.16,-56.68 -201.53,-71.38 -77.67,-16.8 -155.35,-27.29 -235.12,-27.29 -41.98,-2.1 -86.07,4.2 -125.96,14.7 -27.29,6.29 -50.39,20.99 -65.08,41.98 -10.5,16.8 -16.8,37.79 -16.8,56.68 0,18.89 8.4,37.79 20.99,54.58 18.89,23.09 44.09,41.98 71.38,56.68 48.28,25.19 98.66,48.28 149.05,69.27 113.35,37.79 222.52,90.27 323.29,153.25 69.27,44.09 125.96,102.87 165.84,174.25 33.59,67.18 50.38,140.65 48.28,216.23 2.1,98.66 -27.29,197.33 -81.87,279.2 -58.79,83.97 -140.65,149.05 -235.12,186.84 -102.87,44.08 -228.82,67.18 -379.97,67.18 -96.57,0 -191.03,-8.4 -285.5,-27.29 -73.48,-12.6 -146.95,-35.69 -214.13,-67.18 -14.69,-8.4 -25.19,-23.1 -23.09,-39.89l0 -365.28c0,-6.29 2.1,-14.69 8.4,-18.89 6.29,-4.2 12.59,-2.1 18.89,2.1 81.87,48.28 167.94,81.88 260.31,102.87 79.77,20.99 163.74,31.49 247.72,31.49 79.77,0 136.45,-10.5 174.24,-29.4 33.59,-14.69 56.68,-50.38 56.68,-88.17 0,-29.39 -16.8,-56.68 -50.38,-83.97 -33.59,-27.29 -102.87,-58.78 -205.73,-98.66 -107.06,-37.79 -205.73,-88.17 -298.1,-151.15 -65.08,-46.19 -119.66,-107.06 -159.55,-178.44 -33.58,-67.18 -50.38,-140.65 -48.28,-214.12 0,-90.27 25.19,-176.34 71.38,-254.02 52.48,-83.97 130.15,-151.15 220.42,-193.13 98.66,-50.39 222.52,-73.48 371.57,-73.48 86.07,0 174.24,6.29 260.31,18.89 62.98,8.4 123.86,25.19 180.54,48.28 8.4,2.1 16.8,10.5 21,18.89 2.1,8.4 4.2,16.8 4.2,25.19l0 342.18c0,8.39 -4.2,16.79 -10.5,20.99 -18.89,4.2 -29.39,4.2 -37.79,0l0 0z"/>
  </g>
 </g>
</svg>
