<?xml version="1.0" encoding="UTF-8"?>
<!DOCTYPE svg PUBLIC "-//W3C//DTD SVG 1.1//EN" "http://www.w3.org/Graphics/SVG/1.1/DTD/svg11.dtd">
<!-- Creator: CorelDRAW 2018 (64-Bit) -->
<svg xmlns="http://www.w3.org/2000/svg" xml:space="preserve" width="67.7334mm" height="67.7334mm" version="1.1" style="shape-rendering:geometricPrecision; text-rendering:geometricPrecision; image-rendering:optimizeQuality; fill-rule:evenodd; clip-rule:evenodd"
viewBox="0 0 6710.08 6710.08"
 xmlns:xlink="http://www.w3.org/1999/xlink">
 <defs>
  <style type="text/css">
   <![CDATA[
    .fil1 {fill:#FEFEFE}
    .fil0 {fill:whitesmoke}
    .fil2 {fill:#41CD52}
   ]]>
  </style>
 </defs>
 <g id="Слой_x0020_1">
  <metadata id="CorelCorpID_0Corel-Layer"/>
  <path class="fil0" d="M1572.67 0l3564.73 0c868.41,0 1572.67,704.26 1572.67,1572.67l0 3564.73c0,868.4 -704.26,1572.66 -1572.67,1572.66l-3564.73 0.01c-868.4,-0.01 -1572.66,-704.27 -1572.66,-1572.68l-0.01 -3564.72c0.01,-868.41 704.27,-1572.67 1572.68,-1572.67z"/>
  <g id="_2381522004336">
   <polygon class="fil1" points="1167.31,1858.44 5555.5,1858.44 5555.5,5070.58 1167.31,5070.58 "/>
   <path class="fil2" d="M2611.27 2364.33c-229.3,0 -387.43,72.14 -474.4,218.31 -85.01,146.17 -128.49,377.77 -128.49,698.58 0,318.92 41.51,548.63 124.54,685.29 83.01,136.68 243.13,206.93 478.35,206.93 235.2,0 393.34,-68.33 476.38,-203.13 81.05,-134.78 122.54,-364.47 122.54,-685.3 0,-322.71 -41.5,-556.2 -126.52,-702.37 -84.99,-146.17 -243.12,-218.31 -472.41,-218.31z"/>
   <path class="fil2" d="M4697.81 4457.68c-208.9,0 -352.09,-44.97 -429.71,-134.91 -77.57,-89.91 -117.35,-260.44 -117.35,-511.5l0 -809.44 -282.46 0 0 -322.26 282.46 0 0 -505.88 399.85 0 0 505.88 509.23 0 0 324.13 -509.23 0 0 766.33c0,142.4 11.94,236.06 33.81,281.06 21.85,46.85 79.56,69.34 169.09,69.34l302.37 -11.27 17.9 303.55c-163.11,29.96 -288.47,44.97 -375.96,44.97l0 0zm-1151.79 363.47l-379.95 166.78 -328.23 -507.79c-47.76,13.14 -121.36,20.65 -224.8,20.65 -383.93,0 -652.48,-97.44 -803.65,-292.3 -151.19,-194.83 -226.78,-503.99 -226.78,-923.73 0,-421.56 77.58,-734.45 230.74,-938.67 153.19,-204.24 419.74,-307.3 799.69,-307.3 379.96,0 646.51,101.2 797.69,305.42 153.19,202.36 228.78,515.26 228.78,938.71 0,279.17 -31.84,503.99 -93.5,674.52 -63.69,172.38 -165.1,303.52 -308.34,393.47l308.34 470.26zm2166.3 -3490.6l-202.89 0 -4263.01 0 -809.64 762.58 0 2550.04 0 207.97 0 528.38 560.98 0 202.91 0 4263 0 809.63 -762.57 0 -2550.07 0 -207.96 0 -528.37 -560.98 0z"/>
  </g>
 </g>
</svg>
