<?xml version="1.0" encoding="UTF-8"?>
<!DOCTYPE svg PUBLIC "-//W3C//DTD SVG 1.1//EN" "http://www.w3.org/Graphics/SVG/1.1/DTD/svg11.dtd">
<!-- Creator: CorelDRAW 2018 (64-Bit) -->
<svg xmlns="http://www.w3.org/2000/svg" xml:space="preserve" width="67.7334mm" height="67.7334mm" version="1.1" style="shape-rendering:geometricPrecision; text-rendering:geometricPrecision; image-rendering:optimizeQuality; fill-rule:evenodd; clip-rule:evenodd"
viewBox="0 0 6718.98 6718.98"
 xmlns:xlink="http://www.w3.org/1999/xlink">
 <defs>
  <style type="text/css">
   <![CDATA[
    .fil0 {fill:#FEFEFE}
    .fil1 {fill:#41CD52}
   ]]>
  </style>
 </defs>
 <g id="Слой_x0020_1">
  <metadata id="CorelCorpID_0Corel-Layer"/>
  <g id="_2381398246160">
   <path class="fil0" d="M1574.76 0l3569.46 0c869.56,0 1574.76,705.19 1574.76,1574.76l0 3569.46c0,869.55 -705.19,1574.75 -1574.76,1574.75l-3569.46 0.01c-869.55,-0.01 -1574.75,-705.2 -1574.75,-1574.77l-0.01 -3569.45c0.01,-869.56 705.2,-1574.76 1574.77,-1574.76z"/>
   <path class="fil1" d="M2613.8 2369.06c-228.57,0 -386.21,71.91 -472.9,217.62 -84.73,145.71 -128.08,376.57 -128.08,696.38 0,317.92 41.39,546.9 124.15,683.13 82.75,136.25 242.36,206.27 476.84,206.27 234.46,0 392.1,-68.11 474.88,-202.49 80.79,-134.35 122.15,-363.32 122.15,-683.13 0,-321.7 -41.37,-554.44 -126.11,-700.16 -84.72,-145.71 -242.36,-217.62 -470.92,-217.62z"/>
   <path class="fil1" d="M4693.75 4455.81c-208.24,0 -350.98,-44.83 -428.35,-134.48 -77.32,-89.63 -116.98,-259.63 -116.98,-509.88l0 -806.88 -281.56 0 0 -321.25 281.56 0 0 -504.28 398.6 0 0 504.28 507.62 0 0 323.12 -507.62 0 0 763.92c0,141.94 11.89,235.32 33.71,280.17 21.78,46.69 79.31,69.11 168.55,69.11l301.41 -11.24 17.85 302.59c-162.59,29.87 -287.55,44.83 -374.77,44.83l0 0zm-1148.15 362.33l-378.76 166.24 -327.18 -506.18c-47.61,13.09 -120.97,20.57 -224.1,20.57 -382.71,0 -650.42,-97.13 -801.12,-291.38 -150.71,-194.22 -226.06,-502.4 -226.06,-920.81 0,-420.23 77.33,-732.13 230.02,-935.71 152.69,-203.6 418.41,-306.33 797.16,-306.33 378.77,0 644.48,100.87 795.18,304.46 152.7,201.72 228.05,513.63 228.05,935.75 0,278.28 -31.73,502.4 -93.2,672.39 -63.5,171.84 -164.59,302.56 -307.37,392.23l307.37 468.78zm2159.46 -3479.59l-202.24 0 -4249.56 0 -807.08 760.17 0 2541.99 0 207.31 0 526.71 559.21 0 202.26 0 4249.55 0 807.07 -760.16 0 -2542.02 0 -207.3 0 -526.7 -559.21 0z"/>
  </g>
 </g>
</svg>
