<?xml version="1.0" encoding="UTF-8"?>
<!DOCTYPE svg PUBLIC "-//W3C//DTD SVG 1.1//EN" "http://www.w3.org/Graphics/SVG/1.1/DTD/svg11.dtd">
<!-- Creator: CorelDRAW 2018 (64-Bit) -->
<svg xmlns="http://www.w3.org/2000/svg" xml:space="preserve" width="67.733mm" height="46.9884mm" version="1.1" style="shape-rendering:geometricPrecision; text-rendering:geometricPrecision; image-rendering:optimizeQuality; fill-rule:evenodd; clip-rule:evenodd"
viewBox="0 0 6710.49 4655.27"
 xmlns:xlink="http://www.w3.org/1999/xlink">
 <defs>
  <style type="text/css">
   <![CDATA[
    .fil0 {fill:#FEFEFE}
    .fil1 {fill:#41CD52}
   ]]>
  </style>
 </defs>
 <g id="Слой_x0020_1">
  <metadata id="CorelCorpID_0Corel-Layer"/>
  <g id="_2381294715776">
   <polygon class="fil0" points="839.93,606.93 5885.21,606.93 5885.21,4300.07 839.93,4300.07 "/>
   <path class="fil1" d="M2500.1 1188.57c-263.63,0 -445.44,82.93 -545.43,251 -97.74,168.06 -147.74,434.33 -147.74,803.18 0,366.69 47.73,630.79 143.19,787.91 95.45,157.15 279.53,237.91 549.98,237.91 270.43,0 452.24,-78.55 547.72,-233.55 93.18,-154.96 140.88,-419.05 140.88,-787.91 0,-371.04 -47.7,-639.48 -145.45,-807.54 -97.73,-168.07 -279.53,-251 -543.16,-251z"/>
   <path class="fil1" d="M4899.08 3595.4c-240.17,0 -404.81,-51.71 -494.06,-155.11 -89.19,-103.39 -134.93,-299.46 -134.93,-588.1l0 -930.65 -324.75 0 0 -370.52 324.75 0 0 -581.63 459.73 0 0 581.63 585.49 0 0 372.68 -585.49 0 0 881.08c0,163.72 13.72,271.41 38.89,323.16 25.12,53.85 91.47,79.7 194.39,79.7l347.65 -12.96 20.59 349c-187.53,34.45 -331.67,51.71 -432.25,51.71l0 0zm-1324.25 417.9l-436.85 191.75 -377.37 -583.83c-54.93,15.11 -139.53,23.73 -258.47,23.73 -441.42,0 -750.19,-112.03 -924,-336.07 -173.82,-224 -260.73,-579.46 -260.73,-1062.05 0,-484.68 89.2,-844.42 265.3,-1079.23 176.11,-234.83 482.59,-353.31 919.43,-353.31 436.86,0 743.32,116.34 917.15,351.15 176.12,232.65 263.03,592.41 263.03,1079.28 0,320.96 -36.6,579.46 -107.48,775.52 -73.23,198.19 -189.83,348.97 -354.52,452.39l354.52 540.68zm2490.68 -4013.29l-233.26 0 -4901.37 0 -930.88 876.76 0 2931.9 0 239.11 0 607.49 644.98 0 233.29 0 4901.36 0 930.86 -876.75 0 -2931.93 0 -239.1 0 -607.48 -644.98 0z"/>
  </g>
 </g>
</svg>
