<?xml version="1.0" encoding="UTF-8"?>
<!DOCTYPE svg PUBLIC "-//W3C//DTD SVG 1.1//EN" "http://www.w3.org/Graphics/SVG/1.1/DTD/svg11.dtd">
<!-- Creator: CorelDRAW 2018 (64-Bit) -->
<svg xmlns="http://www.w3.org/2000/svg" xml:space="preserve" width="67.7334mm" height="67.7334mm" version="1.1" style="shape-rendering:geometricPrecision; text-rendering:geometricPrecision; image-rendering:optimizeQuality; fill-rule:evenodd; clip-rule:evenodd"
viewBox="0 0 7563.63 7563.63"
 xmlns:xlink="http://www.w3.org/1999/xlink">
 <defs>
  <style type="text/css">
   <![CDATA[
    .fil0 {fill:#FEFEFE}
    .fil2 {fill:#2B2A29}
    .fil1 {fill:#0F9B2E}
   ]]>
  </style>
 </defs>
 <g id="Слой_x0020_1">
  <metadata id="CorelCorpID_0Corel-Layer"/>
  <path class="fil0" d="M1772.73 0l4018.18 0c978.88,0 1772.73,793.85 1772.73,1772.73l0 4018.18c0,978.87 -793.85,1772.71 -1772.73,1772.71l-4018.18 0.01c-978.87,-0.01 -1772.71,-793.86 -1772.71,-1772.74l-0.01 -4018.17c0.01,-978.88 793.86,-1772.73 1772.74,-1772.73z"/>
  <g id="_2381429984848">
   <path class="fil1" d="M3841.53 3829.7l-1835.31 1835.3c1013.62,1013.62 2657.01,1013.62 3670.63,0 1013.62,-1013.61 1013.62,-2657 0,-3670.62l-1835.31 1835.31zm1663.01 1434.24c14.73,-321.63 -24.05,-633.92 -110.61,-930.11l-409.75 409.75 520.36 520.36zm-224.45 -1248.28c-112.65,-264.63 -265.08,-513.1 -452.54,-739.98l-655.63 655.63 596.27 596.26 511.91 -511.92zm-235.63 -956.89c188.06,223.75 344.87,467.22 466.76,725.77l543.67 -543.67c-75.3,-284.12 -205.99,-556.59 -392.32,-800.21l-618.1 618.1zm592.27 1032.25c101.38,289.65 160.79,594.65 173.67,909.24 253.35,-425.42 356.8,-915.23 310.34,-1393.24l-484 484zm-2319.39 694.87c227.39,178.27 479.81,329.78 747.05,445.49l487.8 -487.8 -596.26 -596.27 -638.58 638.58zm1061.78 562.74c295.46,92.55 603.24,140.48 910.95,132.83l-521.89 -521.89 -389.06 389.06zm660.58 433.14c-306.94,-19.54 -610.72,-86.44 -901.42,-192.3l-519.44 519.44c488.4,47.41 989.11,-61.62 1420.86,-327.14zm-1206.11 -319.59c-261.84,-123.83 -509.09,-279.1 -733.7,-458.83l-647.39 647.39c243.63,186.32 516.09,317.05 800.21,392.32l580.88 -580.88z"/>
   <path class="fil2" d="M3722.11 3733.93l1835.31 -1835.3c-1013.62,-1013.62 -2657.01,-1013.62 -3670.63,0 -1013.62,1013.62 -1013.62,2657.01 0,3670.62l1835.31 -1835.31zm546.98 -978.98c-224.89,-176.21 -474.93,-326.45 -739.84,-442.2l-488.68 488.68 591.02 591.02 637.5 -637.5zm-1053.41 -560.64c-299.58,-95.73 -612.05,-146.63 -924.05,-141.82l532.93 532.93 391.12 -391.12zm-648.49 -438.35c302.59,23.74 602.11,92.36 888.74,198.1l498.36 -498.36c-475.19,-48.13 -962.52,51.96 -1387.1,300.26zm1192.59 326.25c259.54,123.56 504.53,277.47 726.78,455.27l624.58 -624.57c-241.25,-184.52 -510.79,-314.55 -791.9,-390.16l-559.46 559.46zm-1678.6 191.82c-13.76,322.99 27.15,638 117.11,937.67l410.28 -410.28 -527.38 -527.4zm232.67 1254.11c112.73,260.7 264.03,506.65 449.69,732.37l652.06 -652.06 -591.03 -591.03 -510.71 510.72zm232.75 949.31c-186.21,-222.59 -341.78,-463.67 -463.41,-718.65l-572.26 572.26c75.64,281.12 205.62,550.66 390.14,791.91l645.53 -645.53zm-590.3 -1023.76c-105.66,-296.12 -167.37,-607.3 -180.56,-927.12 -271.4,436.61 -382.05,944.66 -331.88,1439.55l512.43 -512.43z"/>
  </g>
 </g>
</svg>
