<?xml version="1.0" encoding="UTF-8"?>
<!DOCTYPE svg PUBLIC "-//W3C//DTD SVG 1.1//EN" "http://www.w3.org/Graphics/SVG/1.1/DTD/svg11.dtd">
<!-- Creator: CorelDRAW 2018 (64-Bit) -->
<svg xmlns="http://www.w3.org/2000/svg" xml:space="preserve" width="67.7334mm" height="67.7334mm" version="1.1" style="shape-rendering:geometricPrecision; text-rendering:geometricPrecision; image-rendering:optimizeQuality; fill-rule:evenodd; clip-rule:evenodd"
viewBox="0 0 5038.32 5038.32"
 xmlns:xlink="http://www.w3.org/1999/xlink">
 <defs>
  <style type="text/css">
   <![CDATA[
    .fil0 {fill:#FEFEFE}
    .fil6 {fill:url(#id0)}
    .fil4 {fill:url(#id1)}
    .fil2 {fill:url(#id2)}
    .fil5 {fill:url(#id3)}
    .fil7 {fill:url(#id4)}
    .fil8 {fill:url(#id5)}
    .fil9 {fill:url(#id6)}
    .fil1 {fill:url(#id7)}
    .fil3 {fill:url(#id8)}
   ]]>
  </style>
  <radialGradient id="id0" gradientUnits="userSpaceOnUse" gradientTransform="matrix(1 -0 -0 0.975608 0 43)" cx="3517.62" cy="1747.64" r="806.92" fx="3517.62" fy="1747.64">
   <stop offset="0" style="stop-opacity:1; stop-color:#24BDFF"/>
   <stop offset="1" style="stop-opacity:1; stop-color:#0088FF"/>
  </radialGradient>
  <radialGradient id="id1" gradientUnits="userSpaceOnUse" gradientTransform="matrix(1 -0 -0 0.9756 0 81)" cx="2584.39" cy="3301.96" r="806.92" fx="2584.39" fy="3301.96">
   <stop offset="0" style="stop-opacity:1; stop-color:#B700B7"/>
   <stop offset="1" style="stop-opacity:1; stop-color:#7B007B"/>
  </radialGradient>
  <radialGradient id="id2" gradientUnits="userSpaceOnUse" gradientTransform="matrix(1 -0 -0 0.975612 0 34)" cx="1920.39" cy="1383.52" r="806.92" fx="1920.39" fy="1383.52">
   <stop offset="0" style="stop-opacity:1; stop-color:#FFB500"/>
   <stop offset="1" style="stop-opacity:1; stop-color:#FF7700"/>
  </radialGradient>
  <radialGradient id="id3" gradientUnits="userSpaceOnUse" gradientTransform="matrix(1.45874 -1.2106 1.45877 1.21061 -3441 4248)" cx="3716.46" cy="1190.08" r="330.39" fx="3716.46" fy="1190.08">
   <stop offset="0" style="stop-opacity:1; stop-color:white"/>
   <stop offset="0.290196" style="stop-opacity:1; stop-color:white"/>
   <stop offset="0.360784" style="stop-opacity:1; stop-color:#E5E5E5"/>
   <stop offset="1" style="stop-opacity:1; stop-color:#CCCCCC"/>
  </radialGradient>
  <radialGradient id="id4" gradientUnits="userSpaceOnUse" gradientTransform="matrix(-0.851737 1.69741 -1.70913 -0.827971 5415 -2353)" xlink:href="#id3" cx="2214.5" cy="768.9" r="510.34" fx="2214.5" fy="768.9">
  </radialGradient>
  <radialGradient id="id5" gradientUnits="userSpaceOnUse" gradientTransform="matrix(1.1767 -1.54009 1.1767 1.54009 -2959 5180)" xlink:href="#id3" cx="4032.89" cy="1909.04" r="384.69" fx="4032.89" fy="1909.04">
  </radialGradient>
  <radialGradient id="id6" gradientUnits="userSpaceOnUse" gradientTransform="matrix(1.15164 -1.54011 1.15164 1.54011 -4116 797)" xlink:href="#id3" cx="1692.72" cy="3351.2" r="639.57" fx="1692.72" fy="3351.2">
  </radialGradient>
  <radialGradient id="id7" gradientUnits="userSpaceOnUse" gradientTransform="matrix(1.1403 -1.5401 1.14029 1.54009 -1424 1142)" xlink:href="#id3" cx="1131.01" cy="1110.09" r="472.04" fx="1131.01" fy="1110.09">
  </radialGradient>
  <radialGradient id="id8" gradientUnits="userSpaceOnUse" gradientTransform="matrix(1.45876 -1.21411 1.45877 1.21412 -7320 2445)" xlink:href="#id3" cx="2746.77" cy="4153.81" r="560.3" fx="2746.77" fy="4153.81">
  </radialGradient>
 </defs>
 <g id="Слой_x0020_1">
  <metadata id="CorelCorpID_0Corel-Layer"/>
  <path class="fil0" d="M1180.86 0l2676.61 0c652.06,0 1180.86,528.8 1180.86,1180.86l0 2676.61c0,652.05 -528.8,1180.85 -1180.86,1180.85l-2676.61 0.01c-652.05,-0.01 -1180.85,-528.81 -1180.85,-1180.86l-0.01 -2676.6c0.01,-652.06 528.81,-1180.86 1180.86,-1180.86z"/>
  <path id="path3801" class="fil1" d="M845.25 1024.31c-92.86,233.11 27.37,528.12 253.91,647.47 105.52,35.56 271.53,-132.13 374.33,-380.1 102.97,-248.37 104.15,-484.7 3.96,-533.72 -0.04,-0.01 -0.07,-0.04 -0.11,-0.04 -224.89,-69.8 -498.27,3.97 -610.91,220.21 -7.92,15.2 -14.97,30.59 -21.17,46.19l0 0z"/>
  <ellipse class="fil2" cx="1920.39" cy="1383.52" rx="872.96" ry="851.67"/>
  <path id="path3801_0" class="fil3" d="M2960.13 4663.34c280.36,-79.05 467.28,-398.13 417.29,-691.13 -41.75,-122.33 -336.49,-227.8 -645.8,-138.47 -375.09,109.36 -488.85,308.23 -463.27,435.16 0.01,0.04 0.01,0.09 0.04,0.13 94.49,256.5 355.48,456.29 634.25,407.4 19.59,-3.43 38.75,-7.8 57.49,-13.09l0 0z"/>
  <ellipse class="fil4" cx="2584.39" cy="3301.96" rx="1045.63" ry="1020.13"/>
  <path id="path3801_1" class="fil5" d="M3891.85 1005.72c-162.79,-66.86 -370.57,15.26 -455.96,173.25 -25.72,73.74 90.64,191.4 263.78,265.34 173.41,74.07 339.14,76.65 374.27,6.75 0.01,-0.02 0.03,-0.05 0.03,-0.07 50.63,-157.2 0.93,-349.46 -149.88,-430.07 -10.6,-5.68 -21.34,-10.73 -32.23,-15.2l0 0z"/>
  <ellipse class="fil6" cx="3517.63" cy="1747.64" rx="658.14" ry="642.08"/>
  <path id="path3801_2" class="fil7" d="M2297.42 302.05c-253.15,-94.39 -567.82,42.08 -690.89,288.78 -35.75,114.43 148.71,289.12 418.09,393.85 269.81,104.91 524.22,100.54 574.6,-8.48 0.01,-0.04 0.04,-0.08 0.04,-0.12 69.76,-243.75 -16.17,-536.25 -251.62,-652.34 -16.55,-8.17 -33.29,-15.38 -50.22,-21.69l0 0z"/>
  <path id="path3801_3" class="fil8" d="M4351.87 2151.84c87.61,-187.4 2.83,-435.95 -177.88,-545.06 -85.13,-34.32 -229.8,95.71 -326.31,294.85 -96.67,199.46 -108.99,393.9 -28.88,439.05 0.03,0.01 0.06,0.04 0.09,0.04 181.74,68.23 410.26,20.65 513.34,-151.9 7.25,-12.13 13.79,-24.46 19.64,-36.99l0 0z"/>
  <path id="path3801_4" class="fil9" d="M1282.66 3635.87c91.75,319.81 457.18,531.66 791.59,473.05 139.52,-48.33 258.46,-385.53 154.81,-738.37 -126.86,-427.87 -354.6,-556.78 -499.46,-526.9 -0.05,0.01 -0.1,0.01 -0.15,0.04 -292.49,109.26 -519.34,408.4 -462.05,726.57 4.02,22.36 9.12,44.22 15.26,65.61l0 0z"/>
 </g>
</svg>
